<?xml version="1.0" encoding="UTF-8"?>
<svg width="90px" height="31px" viewBox="0 0 90 31" version="1.1" xmlns="http://www.w3.org/2000/svg" xmlns:xlink="http://www.w3.org/1999/xlink">
    <!-- Generator: Sketch 50.2 (55047) - http://www.bohemiancoding.com/sketch -->
    <title>Logo</title>
    <desc>Created with Sketch.</desc>
    <defs>
        <polygon id="path-1" points="0.173443836 0.146390411 28.9674644 0.146390411 28.9674644 28.9406692 0.173443836 28.9406692"></polygon>
    </defs>
    <g id="Konnexion-Site" stroke="none" stroke-width="1" fill="none" fill-rule="evenodd">
        <g id="Clients-(960)" transform="translate(-271.000000, -698.000000)">
            <g id="Testimonials" transform="translate(271.000000, 494.000000)">
                <g id="Name" transform="translate(0.000000, 200.000000)">
                    <g id="Logo" transform="translate(0.000000, 4.000000)">
                        <path d="M11.310503,26.8743009 C10.1974226,28.3583413 8.40813779,29 6.75839366,29 C2.52451011,29 0,25.530828 0,21.7807257 C0,17.6097395 2.26611645,14 6.75839366,14 C9.83944396,14 12.3440776,15.4036284 12.8610678,18.752694 L10.9726036,18.752694 C10.5949513,16.5870959 8.88537506,15.6043514 6.75839366,15.6043514 C3.31956752,15.6043514 1.88826136,18.632383 1.88826136,21.6804665 C1.88826136,24.6683945 3.59783762,27.3956486 6.75839366,27.3956486 C9.70051173,27.3956486 11.4096824,25.3503615 11.310503,22.7233665 L6.77827009,22.7233665 L6.77827009,21.1190151 L13,21.1190151 L13,28.6591188 L11.8074139,28.6591188 L11.310503,26.8743009 Z" id="Fill-1" fill="#FFFFFF"></path>
                        <path d="M15,17.2297238 L16.4706655,17.2297238 L16.4706655,19.2896382 L16.5074274,19.2896382 C17.2610473,17.702137 18.3089504,16.9462759 20,17.0029655 L20,18.7038458 C17.481619,18.7038458 16.5625703,20.1588785 16.5625703,22.653413 L16.5625703,27 L15,27 L15,17.2297238 Z" id="Fill-3" fill="#FFFFFF"></path>
                        <path d="M26,26.4749538 C27.7729675,26.4749538 29.2071138,25.051771 29.2071138,22.5101656 C29.2071138,19.9685602 27.7729675,18.5250462 26,18.5250462 C24.2270325,18.5250462 22.7928862,19.9685602 22.7928862,22.5101656 C22.7928862,25.051771 24.2270325,26.4749538 26,26.4749538 M26,17 C29.2668699,17 31,19.4196183 31,22.5101656 C31,25.5803817 29.2668699,28 26,28 C22.7331301,28 21,25.5803817 21,22.5101656 C21,19.4196183 22.7331301,17 26,17" id="Fill-5" fill="#FFFFFF"></path>
                        <path d="M40,27.7731744 L38.5045891,27.7731744 L38.5045891,26.2231995 L38.4672086,26.2231995 C37.7943595,27.432936 36.7290152,28 35.3270556,28 C32.7849906,28 32,26.5254407 32,24.4271111 L32,18 L33.5886714,18 L33.5886714,24.6163253 C33.5886714,25.8260618 34.3364722,26.5821471 35.5513386,26.5821471 C37.4766253,26.5821471 38.4111379,25.2778999 38.4111379,23.5198087 L38.4111379,18 L40,18 L40,27.7731744 Z" id="Fill-7" fill="#FFFFFF"></path>
                        <path d="M47.8978614,18.4443867 C45.550861,18.4443867 44.6733648,20.3507179 44.6733648,22.1994779 C44.6733648,24.1445173 45.6120817,25.9738249 47.9998959,25.9738249 C50.3673032,25.9738249 51.16338,24.0674938 51.16338,22.1224544 C51.16338,20.254635 50.1428274,18.4443867 47.8978614,18.4443867 Z M43,17.2310704 L44.7345855,17.2310704 L44.7345855,18.5791778 L44.7753993,18.5791778 C45.3467922,17.4815932 46.6734481,17 48.1429523,17 C51.3878558,17 53,19.4264361 53,22.2381861 C53,25.068799 51.4080545,27.4182117 48.1835579,27.4182117 C47.1223997,27.4182117 45.5304542,27.0330943 44.7753993,25.8582897 L44.7345855,25.8582897 L44.7345855,31 L43,31 L43,17.2310704 Z" id="Fill-9" fill="#FFFFFF"></path>
                        <path d="M61.2973437,21.4934837 C61.2030702,19.8466268 60.0906433,18.5248675 58.4876095,18.5248675 C56.8283965,18.5248675 55.7913883,19.8669584 55.6971148,21.4934837 L61.2973437,21.4934837 Z M62.8434285,24.4214368 C62.4097706,26.7597744 60.8825404,28 58.6763488,28 C55.565132,28 54.0944659,25.6618698 54,22.4696064 C54,19.297467 55.9233712,17 58.5820754,17 C62.0326767,17 63.088732,20.4769054 62.9942661,23.0185587 L55.6971148,23.0185587 C55.6405508,24.8486072 56.6023325,26.4751325 58.7329129,26.4751325 C60.0717886,26.4751325 60.9768139,25.8041908 61.2596343,24.4214368 L62.8434285,24.4214368 Z" id="Fill-11" fill="#FFFFFF"></path>
                        <g id="Group-23" transform="translate(46.000000, 10.000000)" fill="#FFFFFF">
                            <path d="M2.99691389,3.47228 C2.71263611,3.85848 2.25608056,4.02548 1.83491389,4.02548 C0.754386111,4.02548 0.109997222,3.12268 0.109997222,2.14688 C0.109997222,1.06128 0.688469444,0.12208 1.83491389,0.12208 C2.62124722,0.12208 3.26058056,0.48728 3.39260833,1.35888 L2.91058056,1.35888 C2.81433056,0.79528 2.37780278,0.53948 1.83491389,0.53948 C0.957386111,0.53948 0.592025,1.32748 0.592025,2.12068 C0.592025,2.89828 1.02835833,3.60808 1.83491389,3.60808 C2.58585833,3.60808 3.02219167,3.07588 2.99691389,2.39228 L1.84016389,2.39228 L1.84016389,1.97468 L3.42819167,1.97468 L3.42819167,3.93668 L3.12369167,3.93668 L2.99691389,3.47228 Z" id="Fill-13"></path>
                            <path d="M4.05154167,1.23888 L4.45754167,1.23888 L4.45754167,1.80768 L4.46765278,1.80768 C4.67551389,1.36928 4.96465278,1.16048 5.43170833,1.17628 L5.43170833,1.64588 C4.736375,1.64588 4.48281944,2.04768 4.48281944,2.73648 L4.48281944,3.93668 L4.05154167,3.93668 L4.05154167,1.23888 Z" id="Fill-15"></path>
                            <path d="M6.88749444,3.60802 C7.3388,3.60802 7.70416111,3.24282 7.70416111,2.59042 C7.70416111,1.93802 7.3388,1.56762 6.88749444,1.56762 C6.43599444,1.56762 6.07063333,1.93802 6.07063333,2.59042 C6.07063333,3.24282 6.43599444,3.60802 6.88749444,3.60802 M6.88749444,1.17622 C7.71932778,1.17622 8.16091111,1.79722 8.16091111,2.59042 C8.16091111,3.37842 7.71932778,3.99942 6.88749444,3.99942 C6.05546667,3.99942 5.61388333,3.37842 5.61388333,2.59042 C5.61388333,1.79722 6.05546667,1.17622 6.88749444,1.17622" id="Fill-17"></path>
                            <path d="M10.8392472,3.93674 L10.4332472,3.93674 L10.4332472,3.50874 L10.4231361,3.50874 C10.2405528,3.84274 9.95141389,3.99934 9.57088611,3.99934 C8.88080278,3.99934 8.66769167,3.59234 8.66769167,3.01314 L8.66769167,1.23894 L9.09896944,1.23894 L9.09896944,3.06534 C9.09896944,3.39914 9.30196944,3.60794 9.63174722,3.60794 C10.1544139,3.60794 10.4079694,3.24794 10.4079694,2.76274 L10.4079694,1.23894 L10.8392472,1.23894 L10.8392472,3.93674 Z" id="Fill-19"></path>
                            <path d="M12.7212167,1.5676 C12.1376889,1.5676 11.9195222,2.0842 11.9195222,2.5852 C11.9195222,3.1124 12.1528556,3.608 12.7464944,3.608 C13.3350778,3.608 13.5330222,3.0914 13.5330222,2.5642 C13.5330222,2.0582 13.2792722,1.5676 12.7212167,1.5676 Z M11.5034111,1.2388 L11.9346889,1.2388 L11.9346889,1.6042 L11.9449944,1.6042 C12.0869389,1.3066 12.4169111,1.1762 12.7818833,1.1762 C13.5888278,1.1762 13.9893833,1.8338 13.9893833,2.5958 C13.9893833,3.3628 13.5936889,3.9994 12.7921889,3.9994 C12.5283278,3.9994 12.1326333,3.8952 11.9449944,3.5768 L11.9346889,3.5768 L11.9346889,4.9702 L11.5034111,4.9702 L11.5034111,1.2388 Z" id="Fill-21"></path>
                        </g>
                        <path d="M75,21.6686987 L75,14 L73.1194072,14 L73.1194072,21.8419969 C73.1194072,24.7852287 71.3436801,24.8892076 70,25.200739 L70.49217,27 C72.4917855,26.3601141 75,25.4946366 75,21.6686987" id="Fill-24" fill="#FFFFFF"></path>
                        <polygon id="Fill-26" fill="#FFFFFF" points="83.0407049 25 87 14 84.7518024 14 82.1179695 22.3649047 79.332279 14 77 14 81.0938648 25"></polygon>
                        <g id="Group-30" transform="translate(61.000000, 0.000000)">
                            <mask id="mask-2" fill="white">
                                <use xlink:href="#path-1"></use>
                            </mask>
                            <g id="Clip-29"></g>
                            <path d="M4.94354658,18.6611623 L4.94354658,15.2679637 L6.62216986,15.2679637 C7.48819726,15.2679637 8.3703137,15.4036281 8.3703137,16.9142103 C8.3703137,18.2712514 7.62346438,18.6611623 6.70777945,18.6611623 L4.94354658,18.6611623 Z M6.84304658,20.3072103 C9.04863562,20.3072103 10.5417384,19.4084089 10.5417384,16.9142103 C10.5417384,14.4027308 8.89588904,13.6229089 6.65693014,13.6229089 L2.80569041,13.6229089 L2.80569041,20.9317034 C1.76983425,19.0318062 1.18089589,16.8552171 1.18089589,14.5435596 C1.18089589,7.1604774 7.18766986,1.15370342 14.5707521,1.15370342 C18.9509438,1.15370342 22.8464781,3.26812123 25.2908205,6.52962808 C26.9460055,8.76441575 27.9266425,11.5271623 27.9266425,14.5153541 C27.9266425,20.2986692 24.2563548,25.2407856 19.1229575,27.1353199 C17.701163,27.6509637 16.1683342,27.9334158 14.5707521,27.9334158 C10.7939986,27.9334158 7.3803411,26.3592719 4.94354658,23.835676 L4.94354658,20.3072103 L6.84304658,20.3072103 Z M14.5707521,0.14625137 C6.63210137,0.14625137 0.173443836,6.6049089 0.173443836,14.5435596 C0.173443836,22.4820116 6.63210137,28.9406692 14.5707521,28.9406692 C22.5094027,28.9406692 28.9674644,22.4820116 28.9674644,14.5435596 C28.9674644,6.6049089 22.5094027,0.14625137 14.5707521,0.14625137 Z" id="Fill-28" fill="#FFFFFF" mask="url(#mask-2)"></path>
                        </g>
                    </g>
                </g>
            </g>
        </g>
    </g>
</svg>