<?xml version="1.0" encoding="UTF-8"?>
<svg width="20px" height="21px" viewBox="0 0 20 21" version="1.1" xmlns="http://www.w3.org/2000/svg" xmlns:xlink="http://www.w3.org/1999/xlink">
    <!-- Generator: Sketch 50.2 (55047) - http://www.bohemiancoding.com/sketch -->
    <title>Icon_Mail</title>
    <desc>Created with Sketch.</desc>
    <defs></defs>
    <g id="Konnexion-Site" stroke="none" stroke-width="1" fill="none" fill-rule="evenodd">
        <g id="Article-(960)" transform="translate(-612.000000, -1292.000000)">
            <g id="About-The-Autor" transform="translate(271.000000, 1254.000000)">
                <g id="Icon_Mail" transform="translate(342.000000, 39.000000)">
                    <rect id="Border" stroke="#2B2E42" x="0" y="0" width="18.2649858" height="19.2498914" rx="9.13249291"></rect>
                    <path d="M12.4473522,6.47729509 L5.71406756,6.47729509 L9.08070988,9.88594211 L12.4473522,6.47729509 Z M12.7198085,6.76869466 L9.22043603,10.3115311 C9.14289676,10.3902346 9.01735699,10.3902346 8.94098373,10.3115311 L5.44025094,6.76869466 L5.44025094,11.9369544 L12.7198085,11.9369544 L12.7198085,6.76869466 Z M5.11046613,5.80674157 L5.11765649,5.80674157 L13.0509536,5.80674157 C13.2353766,5.80674157 13.3820988,5.95667167 13.3820988,6.14201833 L13.3820988,6.15028219 L13.3820988,12.2722311 C13.3820988,12.4563972 13.2353766,12.6075079 13.0509536,12.6075079 L13.0427916,12.6075079 L5.11046613,12.6075079 C4.9274035,12.6075079 4.77932099,12.4563972 4.77932099,12.2722311 L4.77932099,12.26259 L4.77932099,6.14201833 C4.77932099,5.95667167 4.9274035,5.80674157 5.11046613,5.80674157 Z" id="Mail" fill="#2B2E42"></path>
                </g>
            </g>
        </g>
    </g>
</svg>