<?xml version="1.0" encoding="UTF-8"?>
<svg width="150px" height="21px" viewBox="0 0 150 21" version="1.1" xmlns="http://www.w3.org/2000/svg" xmlns:xlink="http://www.w3.org/1999/xlink">
    <!-- Generator: Sketch 50.2 (55047) - http://www.bohemiancoding.com/sketch -->
    <title>Logo_Konnexion_Dark</title>
    <desc>Created with Sketch.</desc>
    <defs></defs>
    <g id="Konnexion-Site" stroke="none" stroke-width="1" fill="none" fill-rule="evenodd">
        <g id="Accueil-(1140)" transform="translate(-45.000000, -645.000000)" fill-rule="nonzero">
            <g id="Projects" transform="translate(0.000000, 601.000000)">
                <g id="Top-Menu" transform="translate(45.000000, 39.000000)">
                    <g id="Logo_Konnexion_Dark" transform="translate(0.000000, 5.000000)">
                        <g id="Group" transform="translate(0.000000, 1.000000)" fill="#1EE095">
                            <path d="M11.9223301,19.0980392 L20,0.117647059 L17.1456311,0.117647059 C16.5631068,0.117647059 16.038835,0.470588235 15.8252427,1 L7.74757282,19.9803922 L10.6019417,19.9803922 C11.184466,19.9803922 11.7087379,19.6470588 11.9223301,19.0980392 Z" id="Shape"></path>
                            <path d="M4.19417476,19.0980392 L12.2718447,0.117647059 L9.39805825,0.117647059 C8.81553398,0.117647059 8.29126214,0.470588235 8.0776699,1 L0,19.9803922 L2.85436893,19.9803922 C3.4368932,19.9803922 3.96116505,19.6470588 4.19417476,19.0980392 Z" id="Shape"></path>
                        </g>
                        <g id="Group" transform="translate(22.000000, 0.000000)" fill="#2B2E42">
                            <path d="M20.9393581,5.89541284 C18.5724662,5.89541284 16.8163851,6.49266055 15.652027,7.66788991 C14.4876689,8.84311927 13.8959459,10.7311927 13.8959459,13.3321101 C13.8959459,15.8174312 14.4876689,17.6862385 15.652027,18.9385321 C16.8163851,20.1908257 18.5915541,20.8266055 20.9393581,20.8266055 C23.2298986,20.8266055 24.9859797,20.1908257 26.2266892,18.9192661 C27.4483108,17.6477064 28.0782095,15.7788991 28.0782095,13.3321101 C28.0782095,10.7889908 27.4864865,8.92018349 26.2839527,7.70642202 C25.0814189,6.49266055 23.30625,5.89541284 20.9393581,5.89541284 Z M23.2108108,16.453211 C22.6954392,17.166055 21.9319257,17.512844 20.9202703,17.512844 C19.889527,17.512844 19.1451014,17.166055 18.6488176,16.4917431 C18.1716216,15.7981651 17.9234797,14.7577982 17.9234797,13.3321101 C17.9234797,11.8293578 18.1525338,10.7697248 18.6297297,10.133945 C19.1069257,9.49816514 19.8704392,9.1706422 20.9202703,9.1706422 C21.9510135,9.1706422 22.714527,9.49816514 23.2108108,10.133945 C23.7070946,10.7697248 23.9743243,11.8486239 23.9743243,13.3321101 C23.9934122,14.7 23.7261824,15.740367 23.2108108,16.453211 Z" id="Shape"></path>
                            <path d="M68.3535473,5.89541284 C66.1393581,5.89541284 64.4214527,6.56972477 63.2189189,7.89908257 C62.0163851,9.24770642 61.4246622,11.1357798 61.4246622,13.5825688 C61.4246622,15.066055 61.7109797,16.3568807 62.3027027,17.4357798 C62.8944257,18.533945 63.7152027,19.3623853 64.7841216,19.940367 C65.8530405,20.5183486 67.09375,20.8073394 68.50625,20.8073394 C70.3768581,20.8073394 72.0565878,20.4990826 73.564527,19.8633028 L73.564527,18.2256881 C73.564527,17.3201835 72.6864865,16.6844037 71.8275338,16.9541284 L71.8084459,16.9541284 C71.1976351,17.146789 70.1668919,17.3394495 69.5179054,17.3394495 C67.2655405,17.3394495 65.9675676,16.3761468 65.6239865,14.4302752 L74.8052365,14.4302752 C74.8434122,8.74678899 72.6864865,5.89541284 68.3535473,5.89541284 Z M65.566723,11.8293578 C65.8339527,9.97981651 66.7119932,9.05504587 68.1817568,9.05504587 C68.9452703,9.05504587 69.5369932,9.26697248 69.9378378,9.69082569 C70.3386824,10.1146789 70.5868243,10.8275229 70.7204392,11.8293578 L65.566723,11.8293578 Z" id="Shape"></path>
                            <path d="M94.3702703,0.15412844 C93.2059122,0.15412844 92.2515203,1.11743119 92.2515203,2.29266055 C92.2515203,3.46788991 93.2059122,4.43119266 94.3702703,4.43119266 C95.5346284,4.43119266 96.4890203,3.46788991 96.4890203,2.29266055 C96.4890203,1.11743119 95.5346284,0.15412844 94.3702703,0.15412844 Z" id="Shape"></path>
                            <polygon id="Shape" points="92.3278716 6.55045872 92.3278716 20.4027523 96.4699324 20.4027523 96.4317568 6.55045872"></polygon>
                            <path d="M105.689358,5.89541284 C103.322466,5.89541284 101.566385,6.49266055 100.402027,7.66788991 C99.2376689,8.84311927 98.6459459,10.7311927 98.6459459,13.3321101 C98.6459459,15.8174312 99.2376689,17.6862385 100.402027,18.9385321 C101.566385,20.1908257 103.341554,20.8266055 105.689358,20.8266055 C107.979899,20.8266055 109.73598,20.1908257 110.976689,18.9192661 C112.198311,17.6477064 112.828209,15.7788991 112.828209,13.3321101 C112.828209,10.7889908 112.236486,8.92018349 111.033953,7.70642202 C109.850507,6.49266055 108.05625,5.89541284 105.689358,5.89541284 Z M107.979899,16.453211 C107.464527,17.166055 106.701014,17.512844 105.689358,17.512844 C104.658615,17.512844 103.914189,17.166055 103.417905,16.4917431 C102.940709,15.7981651 102.692568,14.7577982 102.692568,13.3321101 C102.692568,11.8293578 102.921622,10.7697248 103.398818,10.133945 C103.856926,9.49816514 104.639527,9.1706422 105.689358,9.1706422 C106.720101,9.1706422 107.483615,9.49816514 107.979899,10.133945 C108.476182,10.7697248 108.743412,11.8486239 108.743412,13.3321101 C108.743412,14.7 108.49527,15.740367 107.979899,16.453211 Z" id="Shape"></path>
                            <path d="M13.4569257,6.35779817 L9.69662162,6.35779817 C9.08581081,6.35779817 8.49408784,6.60825688 8.07415541,7.05137615 L4.27567568,10.9623853 L4.29476351,1.05963303 L0.171790541,1.05963303 L0.171790541,20.4220183 L4.2375,20.4220183 L4.25658784,15.0082569 L7.88327703,19.5550459 C8.3222973,20.0944954 8.97128378,20.4027523 9.65844595,20.4027523 L14.010473,20.4027523 L7.59695946,12.3688073 L13.4569257,6.35779817 Z" id="Shape"></path>
                            <path d="M86.4679054,6.31926606 C85.8570946,6.31926606 85.2844595,6.60825688 84.9408784,7.10917431 L83.0130068,9.86422018 L81.0851351,7.10917431 C80.7415541,6.60825688 80.1689189,6.31926606 79.5581081,6.31926606 L75.6451014,6.31926606 L80.5506757,13.3513761 L75.6069257,20.3834862 L79.5199324,20.3834862 C80.1307432,20.3834862 80.7033784,20.0944954 81.0469595,19.593578 L82.9748311,16.8385321 L84.9027027,19.593578 C85.2462838,20.0944954 85.8189189,20.3834862 86.4297297,20.3834862 L90.3427365,20.3834862 L85.3989865,13.3513761 L90.3809122,6.31926606 L86.4679054,6.31926606 Z" id="Shape"></path>
                        </g>
                        <path d="M64.5240175,7.13715047 C63.5400291,6.39147803 62.0829694,6 60.1339156,6 C59.055313,6 57.8253275,6.14913449 56.4628821,6.42876165 C54.5138282,5.79494008 53,6.72703063 53,6.72703063 L53,7.50998668 L53,7.60319574 L53,19.9440746 L57.0684134,19.9440746 L57.0684134,9.78428762 C57.2954876,9.65379494 57.636099,9.56058589 58.0524017,9.46737683 C58.4687045,9.37416778 58.8850073,9.33688415 59.2823872,9.33688415 C61.0611354,9.33688415 61.9505095,10.1198402 61.9505095,11.6671105 L61.9505095,20 L66,20 L66,10.8655126 C66,9.13182423 65.5080058,7.90146471 64.5240175,7.13715047 Z" id="Shape" fill="#2B2E42"></path>
                        <path d="M79.5072674,7.13715047 C78.5247093,6.39147803 77.0697674,6 75.1235465,6 C74.0465116,6 72.818314,6.14913449 71.4578488,6.42876165 C69.5116279,5.79494008 68,6.72703063 68,6.72703063 L68,7.50998668 L68,7.60319574 L68,19.9440746 L72.0625,19.9440746 L72.0625,9.78428762 C72.2892442,9.65379494 72.6293605,9.56058589 73.0450581,9.46737683 C73.4607558,9.37416778 73.8764535,9.33688415 74.2732558,9.33688415 C76.0494186,9.33688415 76.9375,10.1198402 76.9375,11.6671105 L76.9375,20 L81,20 L81,10.8655126 C80.9811047,9.13182423 80.4898256,7.90146471 79.5072674,7.13715047 Z" id="Shape" fill="#2B2E42"></path>
                        <path d="M148.507267,7.13715047 C147.524709,6.39147803 146.069767,6 144.123547,6 C143.046512,6 141.818314,6.14913449 140.457849,6.42876165 C138.511628,5.79494008 137,6.72703063 137,6.72703063 L137,7.50998668 L137,7.60319574 L137,19.9440746 L141.0625,19.9440746 L141.0625,9.78428762 C141.289244,9.65379494 141.62936,9.56058589 142.045058,9.46737683 C142.460756,9.37416778 142.876453,9.33688415 143.273256,9.33688415 C145.049419,9.33688415 145.9375,10.1198402 145.9375,11.6671105 L145.9375,20 L150,20 L150,10.8655126 C149.981105,9.13182423 149.489826,7.90146471 148.507267,7.13715047 Z" id="Shape" fill="#2B2E42"></path>
                    </g>
                </g>
            </g>
        </g>
    </g>
</svg>