<?xml version="1.0" encoding="utf-8"?>
<!-- Generator: Adobe Illustrator 22.1.0, SVG Export Plug-In . SVG Version: 6.00 Build 0)  -->
<svg version="1.1" id="Calque_1" xmlns="http://www.w3.org/2000/svg" xmlns:xlink="http://www.w3.org/1999/xlink" x="0px" y="0px"
	 viewBox="0 0 32 32" style="enable-background:new 0 0 32 32;" xml:space="preserve">
<style type="text/css">
	.st0{fill:none;stroke:#2B2E42;}
	.st1{fill:#2B2E42;}
</style>
<title>Icon_LinkedIn_Dark</title>
<desc>Created with Sketch.</desc>
<g id="Page-1">
	<g id="Accueil-_x28_1140_x29_" transform="translate(-993.000000, -639.000000)">
		<g id="Projects" transform="translate(0.000000, 601.000000)">
			<g id="Top-Menu" transform="translate(45.000000, 39.000000)">
				<g id="Icon_LinkedIn_Dark" transform="translate(949.000000, 0.000000)">
					<path id="Rectangle-3-Copy" class="st0" d="M15,0L15,0c8.3,0,15,6.7,15,15l0,0c0,8.3-6.7,15-15,15l0,0C6.7,30,0,23.3,0,15l0,0
						C0,6.7,6.7,0,15,0z"/>
				</g>
			</g>
		</g>
	</g>
</g>
<g id="Page-1_1_">
	<g id="À-Propos-_x28_1140_x29_" transform="translate(-560.000000, -988.000000)">
		<g id="Team" transform="translate(330.000000, 646.000000)">
			<g id="Eric-Turcotte" transform="translate(0.000000, 64.000000)">
				<g id="Hover">
					<g id="Icon_Mail" transform="translate(230.796275, 279.449438)">
						<path id="Mail" class="st1" d="M21,9.9H9.4l5.8,5.8L21,9.9z M21.4,10.4l-6,6c-0.1,0.1-0.3,0.1-0.5,0l-6-6v8.8h12.5V10.4z
							 M8.4,8.8L8.4,8.8H22c0.3,0,0.6,0.3,0.6,0.6v0v10.4c0,0.3-0.3,0.6-0.6,0.6h0H8.4c-0.3,0-0.6-0.3-0.6-0.6v0V9.4
							C7.8,9,8.1,8.8,8.4,8.8z"/>
					</g>
				</g>
			</g>
		</g>
	</g>
</g>
</svg>
