<?xml version="1.0" encoding="UTF-8"?>
<svg width="140px" height="140px" viewBox="0 0 140 140" version="1.1" xmlns="http://www.w3.org/2000/svg" xmlns:xlink="http://www.w3.org/1999/xlink">
  <g>
      <rect id="Rectangle" fill="#E0E0E0" x="0" y="0" width="140" height="140"></rect>
      <path d="M92,88 L48,88 C46.9,88 46,87.1 46,86 L46,54 C46,52.9 46.9,52 48,52 L92,52 C93.1,52 94,52.9 94,54 L94,86 C94,87.1 93.1,88 92,88 Z M68.2805,73.5725 L64.8655,70.0515 L55.2295,80.9995 L85.3495,80.9995 L74.5645,64.6445 L68.2805,73.5725 Z M62.9185,64.5235 C62.9185,62.4295 61.2205,60.7325 59.1265,60.7325 C57.0355,60.7325 55.3365,62.4295 55.3365,64.5235 C55.3365,66.6165 57.0355,68.3135 59.1265,68.3135 C61.2205,68.3135 62.9185,66.6165 62.9185,64.5235 Z" id="Combined-Shape" fill="#C2C2C2"></path>
  </g>
</svg>