<?xml version="1.0" encoding="UTF-8"?>
<svg width="155px" height="30px" viewBox="0 0 155 30" version="1.1" xmlns="http://www.w3.org/2000/svg" xmlns:xlink="http://www.w3.org/1999/xlink">
    <!-- Generator: Sketch 50.2 (55047) - http://www.bohemiancoding.com/sketch -->
    <title>Logo_Neige.tech</title>
    <desc>Created with Sketch.</desc>
    <defs></defs>
    <g id="Konnexion-Site" stroke="none" stroke-width="1" fill="none" fill-rule="evenodd">
        <g id="À-Propos-(960)" transform="translate(-472.000000, -1558.000000)" fill="#2B2E42">
            <g id="Clients" transform="translate(271.000000, 1394.000000)">
                <g id="Logos" transform="translate(0.000000, 65.000000)">
                    <g id="Logo_Neige.tech" transform="translate(201.000000, 99.000000)">
                        <path d="M23.9482097,6.7148847 L23.4053032,6.41090147 C23.0433655,6.83647799 22.6211049,7.20125786 22.1385213,7.47484277 L23.1640114,8.08280922 C23.9482097,8.53878407 24.4609547,9.38993711 24.4609547,10.3322851 L24.4609547,20.6677149 C24.4609547,21.5796646 23.9783712,22.4308176 23.1640114,22.9171908 L14.2663768,28.0849057 C13.8742776,28.3280922 13.4218556,28.4192872 12.9694335,28.4192872 C12.5170114,28.4192872 12.0947507,28.2976939 11.6724901,28.0849057 L2.77485553,22.9171908 C1.99065723,22.4612159 1.47791218,21.6100629 1.47791218,20.6677149 L1.47791218,10.3322851 C1.47791218,9.42033543 1.96049575,8.56918239 2.77485553,8.08280922 L11.7328131,2.91509434 C12.1249122,2.67190776 12.5773343,2.58071279 13.0297564,2.58071279 C13.4821785,2.58071279 13.9044391,2.70230608 14.3266997,2.91509434 L14.8997677,3.24947589 C14.8997677,2.67190776 15.0204136,2.12473795 15.2013825,1.60796646 L15.0505751,1.54716981 C14.4171842,1.18238994 13.7234703,1 12.9995949,1 C12.2757196,1 11.5518442,1.18238994 10.9486148,1.54716981 L2.05098017,6.7148847 C0.784198302,7.44444444 0,8.8427673 0,10.3322851 L0,20.6677149 C0,22.1572327 0.784198302,23.5251572 2.05098017,24.2851153 L10.9486148,29.4528302 C11.5820057,29.8176101 12.2757196,30 12.9995949,30 C13.7234703,30 14.4473456,29.8176101 15.0505751,29.4528302 L23.9482097,24.2851153 C25.2149916,23.5555556 25.9991899,22.1572327 25.9991899,20.6677149 L25.9991899,10.3322851 C26.0293513,8.8427673 25.2149916,7.47484277 23.9482097,6.7148847" id="Fill-1"></path>
                        <path d="M20.102459,5.42213115 L20.0737705,5.42213115 L19.4713115,5.42213115 L19.4713115,2.95491803 C19.4713115,2.66803279 19.4713115,2.43852459 19.5,2.26639344 C19.4713115,2.29508197 19.4139344,2.35245902 19.3565574,2.40983607 C19.2991803,2.46721311 19.0983607,2.61065574 18.7827869,2.89754098 L18.4672131,2.49590164 L19.5860656,1.60655738 L20.102459,1.60655738 L20.102459,5.42213115 Z M19.5,0 C17.5669672,0 16,1.56696721 16,3.5 C16,5.43303279 17.5669672,7 19.5,7 C21.4330328,7 23,5.43303279 23,3.5 C23,1.56696721 21.4330328,0 19.5,0 Z" id="Fill-3"></path>
                        <path d="M15.4389206,17.4415954 L13.7248521,18.5071225 C13.5744952,18.6011396 13.3940669,18.6011396 13.2737814,18.5071225 L11.5296415,17.4415954 C11.3792846,17.3475783 11.2890705,17.1908832 11.2890705,17.034188 L11.2890705,14.965812 C11.2890705,14.8091168 11.3792846,14.6524217 11.5296415,14.5584046 L13.2737814,13.5242165 C13.4241383,13.4301994 13.6045666,13.4301994 13.7248521,13.5242165 L15.468992,14.5584046 C15.6193489,14.6524217 15.709563,14.8091168 15.709563,14.965812 L15.709563,17.034188 C15.6794916,17.2222222 15.5892775,17.3789174 15.4389206,17.4415954 Z M22.956765,17.0655271 C22.9266936,16.9088319 22.8364795,16.8148148 22.716194,16.7207977 C22.5959085,16.6581197 22.4455516,16.6267806 22.3252661,16.6581197 L17.8145594,17.9116809 L16.6117043,17.1908832 L16.6117043,14.7464387 L17.8145594,14.025641 L22.3252661,15.2792023 C22.5658371,15.3418803 22.8966222,15.1851852 22.9868364,14.9031339 C23.0469791,14.6210826 22.8966222,14.3076923 22.6259798,14.2450142 L19.1076287,13.2735043 L22.475623,11.2364672 C22.716194,11.0797721 22.8064081,10.7663818 22.6560512,10.4843305 C22.5056943,10.2336182 22.1749092,10.1396011 21.9343382,10.2962963 L18.5362725,12.3333333 L19.4684852,8.66666667 C19.528628,8.38461538 19.3782711,8.07122507 19.1076287,8.00854701 C18.8369863,7.91452991 18.5362725,8.1025641 18.4761297,8.38461538 L17.2732746,13.0854701 L16.0704195,13.8062678 L14.0255659,12.5840456 L14.0255659,11.1424501 L17.3334174,7.6951567 C17.4236315,7.6011396 17.4837743,7.44444444 17.4837743,7.31908832 C17.4837743,7.16239316 17.4236315,7.03703704 17.3334174,6.94301994 C17.2432033,6.84900285 17.0928464,6.78632479 16.9725609,6.78632479 C16.822204,6.78632479 16.7019185,6.84900285 16.6117043,6.94301994 L14.0255659,9.60683761 L14.0255659,5.53276353 C14.0255659,5.21937322 13.7849948,5 13.5143525,5 C13.2136387,5 13.003139,5.25071225 13.003139,5.53276353 L13.003139,9.60683761 L10.4470719,6.94301994 C10.2365723,6.72364672 9.90578715,6.72364672 9.6952875,6.94301994 C9.48478786,7.16239316 9.48478786,7.50712251 9.6952875,7.72649573 L13.003139,11.1737892 L13.003139,12.6153846 L10.9582854,13.8376068 L9.75543026,13.1168091 L8.55257516,8.41595442 C8.46236102,8.13390313 8.19171863,7.94586895 7.92107623,8.03988604 C7.80079072,8.07122507 7.68050521,8.16524217 7.59029107,8.29059829 C7.53014832,8.41595442 7.50007694,8.57264957 7.53014832,8.6980057 L8.46236102,12.3646724 L5.09436674,10.3276353 C4.97408123,10.2649573 4.82372434,10.2336182 4.70343883,10.2649573 C4.55308194,10.2962963 4.46286781,10.3903134 4.37265368,10.5156695 C4.31251092,10.6410256 4.28243955,10.7977208 4.31251092,10.9230769 C4.3425823,11.0797721 4.43279643,11.1737892 4.55308194,11.2678063 L7.92107623,13.3048433 L4.40272506,14.2450142 C4.28243955,14.2763533 4.16215403,14.3703704 4.0719399,14.4957265 C4.01179715,14.6210826 3.98172577,14.7777778 4.01179715,14.9031339 C4.0719399,15.1538462 4.28243955,15.3105413 4.52301057,15.3105413 C4.58315332,15.3105413 4.6132247,15.3105413 4.67336745,15.2792023 L9.18407408,14.025641 L10.3869292,14.7464387 L10.3869292,17.2222222 L9.18407408,17.9430199 L4.67336745,16.6894587 C4.40272506,16.6267806 4.10201128,16.7834758 4.04186852,17.0655271 C3.95165439,17.3789174 4.10201128,17.6609687 4.40272506,17.7549858 L7.92107623,18.7264957 L4.55308194,20.7635328 C4.31251092,20.9202279 4.22229679,21.2649573 4.37265368,21.5156695 C4.52301057,21.7663818 4.85379572,21.8603989 5.09436674,21.7037037 L8.46236102,19.6666667 L7.53014832,23.3333333 C7.47000556,23.6153846 7.62036245,23.9287749 7.89100485,23.991453 C8.13157587,24.0854701 8.46236102,23.8974359 8.55257516,23.6153846 L9.75543026,18.9145299 L10.9582854,18.1937322 L13.003139,19.4159544 L13.003139,20.8575499 L9.6952875,24.3048433 C9.60507337,24.3988604 9.54493062,24.5555556 9.54493062,24.6809117 C9.54493062,24.8376068 9.60507337,24.962963 9.6952875,25.0569801 C9.90578715,25.2763533 10.2365723,25.2763533 10.4470719,25.0569801 L13.003139,22.3931624 L13.003139,26.4672365 C13.003139,26.7806268 13.2437101,27 13.5143525,27 C13.7849948,27 14.0255659,26.7492877 14.0255659,26.4672365 L14.0255659,22.3931624 L16.581633,25.0569801 C16.7921326,25.2763533 17.1229178,25.2763533 17.3334174,25.0569801 C17.4236315,24.962963 17.4837743,24.8062678 17.4837743,24.6809117 C17.4837743,24.5242165 17.4236315,24.3988604 17.3334174,24.3048433 L14.0255659,20.8575499 L14.0255659,19.4159544 L16.0704195,18.1937322 L17.2732746,18.9145299 L18.4761297,23.6153846 C18.5362725,23.8660969 18.7467721,24.022792 18.9873432,24.022792 C19.0174145,24.022792 19.0775573,24.022792 19.1377001,23.991453 C19.2880569,23.960114 19.3782711,23.8660969 19.4684852,23.7407407 C19.528628,23.6153846 19.5586993,23.4586895 19.528628,23.3333333 L18.5362725,19.6666667 L21.9042668,21.7037037 C22.1448378,21.8603989 22.475623,21.7663818 22.6259798,21.5156695 C22.7763367,21.2649573 22.6861226,20.9202279 22.4455516,20.7635328 L19.0775573,18.7264957 L22.5959085,17.7549858 C22.716194,17.7236467 22.8364795,17.6296296 22.9266936,17.5042735 C22.956765,17.3789174 22.9868364,17.2222222 22.956765,17.0655271 Z" id="Fill-5"></path>
                        <path d="M42.1712963,9 L44.6990741,9 C44.8796296,9 45,9.14925373 45,9.29850746 L45,22.7014925 C45,22.880597 44.849537,23 44.6990741,23 L42.0208333,23 C41.9305556,23 41.8402778,22.9402985 41.7800926,22.880597 L35.1296296,14.2238806 L35.1296296,22.7014925 C35.1296296,22.880597 34.9791667,23 34.8287037,23 L32.3009259,23 C32.1203704,23 32,22.8507463 32,22.7014925 L32,9.29850746 C32,9.11940299 32.150463,9 32.3009259,9 L34.7986111,9 C34.8888889,9 34.9791667,9.05970149 35.0393519,9.11940299 L41.8703704,18.0149254 L41.8703704,9.29850746 C41.8703704,9.11940299 41.9907407,9 42.1712963,9" id="Fill-7"></path>
                        <path d="M58.7976879,9.2991453 L58.7976879,11.482906 C58.7976879,11.6623932 58.6531792,11.7820513 58.5086705,11.7820513 L52.0346821,11.7820513 L52.0346821,14.6837607 L57.8150289,14.6837607 C57.9884393,14.6837607 58.1040462,14.8333333 58.1040462,14.982906 L58.1040462,17.0470085 C58.1040462,17.2264957 57.9595376,17.3461538 57.8150289,17.3461538 L52.0346821,17.3461538 L52.0346821,20.2478632 L58.7109827,20.2478632 C58.8843931,20.2478632 59,20.3974359 59,20.5470085 L59,22.7008547 C59,22.8803419 58.8554913,23 58.7109827,23 L49.2890173,23 C49.1156069,23 49,22.8504274 49,22.7008547 L49,9.2991453 C49,9.11965812 49.1445087,9 49.2890173,9 L58.4797688,9 C58.6531792,9 58.7976879,9.11965812 58.7976879,9.2991453" id="Fill-9"></path>
                        <path d="M62.2917962,9 L64.7118932,9 C64.8847573,9 65,9.14925373 65,9.29850746 L65,22.7014925 C65,22.880597 64.8559466,23 64.7118932,23 L62.2917962,23 C62.1189321,23 62.0036894,22.8507463 62.0036894,22.7014925 L62.0036894,9.29850746 C61.9748787,9.11940299 62.1189321,9 62.2917962,9" id="Fill-11"></path>
                        <path d="M78.1803653,16.4691358 L80.7031963,16.4691358 C80.8812785,16.4691358 81,16.6234568 81,16.7777778 L81,21.5925926 C79.6050228,23.1975309 77.7054795,24 75.2420091,24 C73.1940639,24 71.4726027,23.2901235 70.0776256,21.8703704 C68.6826484,20.4506173 68,18.691358 68,16.5308642 C68,14.3703704 68.7123288,12.5802469 70.1369863,11.1604938 C71.5616438,9.70987654 73.2534247,9 75.2716895,9 C77.1712329,9 78.8333333,9.61728395 80.2579909,10.8518519 C80.3767123,10.9444444 80.4063927,11.1604938 80.3173516,11.2839506 L79.0410959,13.1975309 C78.9520548,13.3518519 78.7442922,13.3518519 78.5958904,13.2592593 C78.0616438,12.8271605 77.586758,12.4876543 77.1415525,12.3024691 C76.6073059,12.0864198 76.043379,11.9938272 75.4497717,11.9938272 C74.2625571,11.9938272 73.283105,12.4259259 72.4520548,13.2592593 C71.6506849,14.0925926 71.2351598,15.2037037 71.2351598,16.5617284 C71.2351598,17.9197531 71.6210046,19.0308642 72.3926941,19.8641975 C73.1643836,20.6975309 74.0844749,21.0987654 75.1826484,21.0987654 C76.2511416,21.0987654 77.1712329,20.882716 77.8835616,20.4506173 L77.8835616,16.808642 C77.8835616,16.6234568 78.0319635,16.4691358 78.1803653,16.4691358" id="Fill-13"></path>
                        <path d="M93.797682,9.2991453 L93.797682,11.482906 C93.797682,11.6623932 93.6531692,11.7820513 93.5086563,11.7820513 L87.0347698,11.7820513 L87.0347698,14.6837607 L92.8152837,14.6837607 C92.9884101,14.6837607 93.1043094,14.8333333 93.1043094,14.982906 L93.1043094,17.0470085 C93.1043094,17.2264957 92.9597965,17.3461538 92.8152837,17.3461538 L87.0347698,17.3461538 L87.0347698,20.2478632 L93.7109743,20.2478632 C93.8843897,20.2478632 94,20.3974359 94,20.5470085 L94,22.7008547 C94,22.8803419 93.8554872,23 93.7109743,23 L84.2890257,23 C84.1153213,23 84,22.8504274 84,22.7008547 L84,9.2991453 C84,9.11965812 84.1445128,9 84.2890257,9 L93.4797538,9 C93.6531692,9 93.797682,9.11965812 93.797682,9.2991453" id="Fill-15"></path>
                        <path d="M98.5762712,23.4237288 C98.2030508,23.0508475 98,22.5762712 98,22 C98,21.4237288 98.2030508,20.9491525 98.5762712,20.5762712 C98.9491525,20.2033898 99.4237288,20 99.999661,20 C100.575932,20 101.050847,20.2033898 101.42339,20.5762712 C101.79661,20.9491525 102,21.4237288 102,22 C102,22.5762712 101.79661,23.0508475 101.42339,23.4237288 C101.050847,23.7966102 100.575932,24 99.999661,24 C99.4237288,24 98.9491525,23.7966102 98.5762712,23.4237288" id="Fill-17"></path>
                        <path d="M109.045649,11.6865672 L109.045649,22.7014925 C109.045649,22.880597 108.897,23 108.748351,23 L106.251351,23 C106.072676,23 105.954054,22.8507463 105.954054,22.7014925 L105.954054,11.6865672 L102.297297,11.6865672 C102.118622,11.6865672 102,11.5373134 102,11.3880597 L102,9.29850746 C102,9.11940299 102.148649,9 102.297297,9 L112.702703,9 C112.880784,9 113,9.14925373 113,9.29850746 L113,11.3880597 C113,11.5671642 112.851351,11.6865672 112.702703,11.6865672 L109.045649,11.6865672 Z" id="Fill-19"></path>
                        <path d="M124.797682,9.2991453 L124.797682,11.482906 C124.797682,11.6623932 124.653169,11.7820513 124.508656,11.7820513 L118.03477,11.7820513 L118.03477,14.6837607 L123.815284,14.6837607 C123.98841,14.6837607 124.104309,14.8333333 124.104309,14.982906 L124.104309,17.0470085 C124.104309,17.2264957 123.959797,17.3461538 123.815284,17.3461538 L118.03477,17.3461538 L118.03477,20.2478632 L124.710974,20.2478632 C124.884679,20.2478632 125,20.3974359 125,20.5470085 L125,22.7008547 C125,22.8803419 124.855487,23 124.710974,23 L115.289026,23 C115.115321,23 115,22.8504274 115,22.7008547 L115,9.2991453 C115,9.11965812 115.144513,9 115.289026,9 L124.479754,9 C124.682361,9 124.797682,9.11965812 124.797682,9.2991453" id="Fill-21"></path>
                        <path d="M134.258706,20.9753086 C135.686648,20.9753086 136.8766,20.4197531 137.798515,19.3395062 C137.917808,19.2160494 138.126049,19.1851852 138.244747,19.308642 L139.821433,20.9753086 C139.940726,21.0987654 139.940726,21.3148148 139.821433,21.4382716 C138.274793,23.1358025 136.489865,24 134.40745,24 C132.265537,24 130.480609,23.2901235 129.082416,21.8703704 C127.683925,20.4506173 127,18.691358 127,16.5308642 C127,14.3703704 127.713971,12.5802469 129.141913,11.1604938 C130.569855,9.70987654 132.294988,9 134.347952,9 C136.549065,9 138.393491,9.83333333 139.910977,11.5 C140.029674,11.6234568 140.029674,11.808642 139.910977,11.9320988 L138.393491,13.7222222 C138.274793,13.8765432 138.066551,13.845679 137.947259,13.7222222 C136.995297,12.6419753 135.864843,12.0864198 134.496696,12.0864198 C133.336196,12.0864198 132.325034,12.4876543 131.49177,13.2901235 C130.658804,14.0925926 130.242619,15.1728395 130.242619,16.5 C130.242619,17.8580247 130.629353,18.9382716 131.43257,19.7407407 C132.17629,20.5740741 133.127954,20.9753086 134.258706,20.9753086" id="Fill-23"></path>
                        <path d="M152.144304,9 L154.696203,9 C154.878481,9 155,9.14893617 155,9.29787234 L155,22.6723404 C155,22.8510638 154.848101,22.9702128 154.696203,22.9702128 L152.144304,22.9702128 C151.962025,22.9702128 151.840506,22.8212766 151.840506,22.6723404 L151.840506,17.4893617 L146.159797,17.4893617 L146.159797,22.7021277 C146.159797,22.8808511 146.007899,23 145.856,23 L143.303797,23 C143.121823,23 143,22.8510638 143,22.7021277 L143,9.29787234 C143,9.11914894 143.151899,9 143.303797,9 L145.856,9 C146.037975,9 146.159797,9.14893617 146.159797,9.29787234 L146.159797,14.8382979 L151.840506,14.8382979 L151.840506,9.29787234 C151.840506,9.11914894 151.992405,9 152.144304,9" id="Fill-25"></path>
                    </g>
                </g>
            </g>
        </g>
    </g>
</svg>