<?xml version="1.0" encoding="UTF-8"?>
<svg width="122px" height="47px" viewBox="0 0 122 47" version="1.1" xmlns="http://www.w3.org/2000/svg" xmlns:xlink="http://www.w3.org/1999/xlink">
    <!-- Generator: Sketch 50.2 (55047) - http://www.bohemiancoding.com/sketch -->
    <title>Logo_JDSC</title>
    <desc>Created with Sketch.</desc>
    <defs>
        <polygon id="path-1" points="0.319433333 0.148866667 1.93 0.148866667 1.93 1.7722 0.319433333 1.7722"></polygon>
    </defs>
    <g id="Konnexion-Site" stroke="none" stroke-width="1" fill="none" fill-rule="evenodd">
        <g id="À-Propos-(960)" transform="translate(-497.000000, -1459.000000)">
            <g id="Clients" transform="translate(271.000000, 1394.000000)">
                <g id="Logos" transform="translate(0.000000, 65.000000)">
                    <g id="Logo_JDSC" transform="translate(226.500000, 0.000000)">
                        <path d="M0,47 L47,47 L47,0 L0,0 L0,47 Z M2.35837232,44.6416277 L44.6416277,44.6416277 L44.6416277,2.35837232 L2.35837232,2.35837232 L2.35837232,44.6416277 Z" id="Fill-1" fill="#2B2E42"></path>
                        <g id="Group-43" transform="translate(5.000000, 11.000000)">
                            <path d="M4.81193333,14.7688333 C4.81193333,16.6105 4.26626667,17.8211667 3.0556,18.4011667 C2.20293333,18.8105 1.35026667,18.9468333 0.412266667,18.9295 L0.326933333,18.4011667 C0.889933333,18.2305 1.1286,18.0768333 1.4696,17.7018333 C1.8276,17.2755 2.01526667,16.2525 2.01526667,14.7005 L2.01526667,7.52116667 C2.01526667,6.71983333 1.87893333,6.6345 0.770266667,6.6005 L0.770266667,5.9695 L6.07393333,5.9695 L6.07393333,6.6005 C4.96526667,6.6345 4.81193333,6.71983333 4.81193333,7.52116667 L4.81193333,14.7688333 Z" id="Fill-2" fill="#2B2E42"></path>
                            <path d="M10.0297333,15.7407 C10.0297333,16.1500333 10.2174,16.3377 11.1724,16.3377 C12.6900667,16.3377 14.2247333,15.7067 14.2247333,11.4433667 C14.2247333,8.2717 13.0820667,6.72003333 11.1040667,6.72003333 C10.1830667,6.72003333 10.0297333,6.80503333 10.0297333,7.11203333 L10.0297333,15.7407 Z M11.5134,5.9697 C13.6277333,5.9697 15.0090667,6.3787 15.9300667,7.2997 C16.8510667,8.20336667 17.2770667,9.51636667 17.2770667,11.3580333 C17.2770667,16.8833667 13.0140667,17.1050333 10.6777333,17.1050333 L5.98806667,17.1050333 L5.98806667,16.4910333 C7.09673333,16.4400333 7.23306667,16.3547 7.23306667,15.5363667 L7.23306667,7.53836667 C7.23306667,6.72003333 7.09673333,6.6347 5.98806667,6.58336667 L5.98806667,5.9697 L11.5134,5.9697 Z" id="Fill-4" fill="#2B2E42"></path>
                            <path d="M24.5232,9.08996667 C24.0458667,7.1803 23.0565333,6.44696667 22.0335333,6.44696667 C21.0442,6.44696667 20.4305333,7.16296667 20.4305333,8.10096667 C20.4305333,9.31196667 21.5558667,9.7553 22.8518667,10.3689667 C24.3012,11.0343 25.8022,11.7163 25.8022,13.8479667 C25.8022,15.5193 24.8298667,17.3779667 21.5558667,17.3779667 C20.4988667,17.3779667 18.9812,17.1903 18.1282,16.4229667 L17.9065333,13.4556333 L18.5035333,13.4556333 C19.1515333,15.5019667 20.2938667,16.6106333 21.5218667,16.6106333 C22.5108667,16.6106333 23.2272,16.0819667 23.2272,14.9049667 C23.2272,13.9503 22.7325333,13.3703 21.2318667,12.7053 C19.3218667,11.8529667 17.9918667,11.0853 17.9918667,9.08996667 C17.9918667,7.1973 19.1342,5.69663333 22.0335333,5.69663333 C22.9885333,5.69663333 24.2332,5.8843 25.1028667,6.41263333 L25.1028667,9.08996667 L24.5232,9.08996667 Z" id="Fill-6" fill="#2B2E42"></path>
                            <path d="M36.3227,13.4216667 L36.1180333,16.6103333 C35.1290333,17.2246667 33.4407,17.378 32.3493667,17.378 C28.0180333,17.378 26.4660333,15.0246667 26.4660333,11.665 C26.4660333,10.011 26.8413667,8.51033333 27.8303667,7.402 C28.7850333,6.34466667 30.3200333,5.67966667 32.6393667,5.67966667 C33.3553667,5.67966667 35.1290333,5.816 36.1350333,6.42966667 L36.1350333,9.34566667 L35.5210333,9.34566667 C35.0267,8.03266667 34.6003667,6.447 32.5197,6.447 C29.6037,6.447 29.5357,10.3863333 29.5357,11.358 C29.5357,13.1656667 29.8937,16.6103333 32.6903667,16.6103333 C34.4640333,16.6103333 35.0607,15.195 35.6917,13.4216667 L36.3227,13.4216667 Z" id="Fill-8" fill="#2B2E42"></path>
                            <path d="M51.7792333,3.651 C51.4725667,3.47233333 51.0125667,3.37 50.5779,3.37 C49.5172333,3.37 48.8652333,3.945 48.8652333,4.67333333 C48.8652333,6.91 53.0829,6.22 53.0829,9.3 C53.0829,11.2936667 51.5495667,11.9583333 49.8879,11.9583333 C48.9932333,11.9583333 48.0345667,11.7666667 47.3445667,11.4726667 C47.3445667,10.8336667 47.3955667,9.90066667 47.4849,9.32566667 C47.7152333,9.32566667 48.1882333,9.37666667 48.4309,9.45333333 L48.4309,10.757 C48.8909,11.0126667 49.5172333,11.1403333 50.0795667,11.1403333 C51.2935667,11.1403333 51.8942333,10.54 51.8942333,9.51733333 C51.8942333,7.16566667 47.6512333,8.04766667 47.6512333,4.86533333 C47.6512333,3.51066667 48.7119,2.57766667 50.4502333,2.57766667 C51.1912333,2.57766667 52.1245667,2.74366667 52.8145667,3.012 C52.8145667,3.549 52.7505667,4.40533333 52.6355667,4.90366667 C52.3799,4.90366667 51.9835667,4.827 51.7792333,4.72466667 L51.7792333,3.651 Z" id="Fill-10" fill="#2B2E42"></path>
                            <path d="M58.2595333,11.1020333 C60.0998667,11.1020333 61.0075333,9.59403333 61.0075333,7.14003333 C61.0075333,4.99303333 59.9212,3.42136667 58.2595333,3.42136667 C56.4322,3.42136667 55.4735333,4.8907 55.4735333,7.14003333 C55.4735333,9.5427 56.4958667,11.1020333 58.2595333,11.1020333 M62.2728667,7.14003333 C62.2728667,10.2073667 60.6882,11.9583667 58.2595333,11.9583667 C55.6525333,11.9583667 54.2082,10.2970333 54.2082,7.14003333 C54.2082,4.3157 55.9465333,2.5777 58.2595333,2.5777 C60.6625333,2.5777 62.2728667,4.2007 62.2728667,7.14003333" id="Fill-12" fill="#2B2E42"></path>
                            <path d="M69.1752333,3.67673333 C68.7149,3.4724 68.2672333,3.3954 67.7945667,3.3954 C66.0949,3.3954 64.7145667,4.66073333 64.7145667,7.1274 C64.7145667,9.7474 65.9542333,10.9614 67.7689,10.9614 C68.4975667,10.9614 69.5199,10.7444 70.1592333,10.5140667 C70.1845667,10.7314 70.0952333,11.1404 70.0182333,11.3194 C69.3539,11.6644 68.2802333,11.9584 67.2962333,11.9584 C65.0085667,11.9584 63.4619,10.0540667 63.4619,7.45973333 C63.4619,4.3924 65.4685667,2.57773333 67.8715667,2.57773333 C68.8172333,2.57773333 69.5969,2.7564 70.2359,3.0634 C70.2359,3.7534 70.1845667,4.64806667 70.0825667,5.18473333 C69.8269,5.18473333 69.4049,5.09506667 69.1752333,4.9804 L69.1752333,3.67673333 Z" id="Fill-14" fill="#2B2E42"></path>
                            <path d="M71.1439667,11.7027667 C71.1566333,11.5111 71.2333,11.2044333 71.2973,11.0254333 C71.5269667,10.9614333 72.0126333,10.8847667 72.2939667,10.8591 L72.2939667,3.6511 C71.9999667,3.63843333 71.5656333,3.6001 71.3483,3.56176667 C71.3099667,3.39543333 71.2973,2.99943333 71.3226333,2.8331 L74.5433,2.8331 C74.5816333,2.98676667 74.5689667,3.38276667 74.5179667,3.5491 C74.2236333,3.6001 73.8023,3.63843333 73.4699667,3.6511 L73.4699667,10.8721 C73.8406333,10.8974333 74.2879667,10.9357667 74.6076333,11.0001 C74.6459667,11.1404333 74.6586333,11.3194333 74.6586333,11.4984333 C74.6586333,11.5751 74.6586333,11.6134333 74.6459667,11.7027667 L71.1439667,11.7027667 Z" id="Fill-16" fill="#2B2E42"></path>
                            <path d="M78.3396,2.1813 C78.2629333,1.98963333 78.1989333,1.5293 78.1989333,1.29963333 L80.8702667,0.0469666667 C81.0999333,0.2513 81.3302667,0.660633333 81.4452667,0.992633333 L78.3396,2.1813 Z M75.3616,11.7026333 C75.3742667,11.5109667 75.4509333,11.2043 75.5149333,11.0253 C75.7449333,10.9616333 76.2306,10.8849667 76.5119333,10.8593 L76.5119333,3.65096667 C76.2179333,3.6383 75.7832667,3.59996667 75.5662667,3.56163333 C75.5276,3.39563333 75.5149333,2.9993 75.5406,2.8333 L81.5986,2.8333 L81.5986,4.71196667 C81.3812667,4.71196667 81.0872667,4.67363333 80.8829333,4.62263333 C80.8186,4.36696667 80.7422667,3.8683 80.7296,3.61263333 L77.6879333,3.61263333 L77.6879333,6.85896667 L80.1032667,6.85896667 C80.1159333,6.67996667 80.1799333,6.33496667 80.2312667,6.16896667 C80.3972667,6.11763333 80.7422667,6.06663333 80.9596,6.06663333 L80.9596,8.4183 C80.7422667,8.44363333 80.4229333,8.4183 80.2186,8.36696667 C80.1672667,8.13696667 80.1159333,7.8303 80.1032667,7.62563333 L77.6879333,7.62563333 L77.6879333,10.8976333 L80.7806,10.8976333 C80.8059333,10.5653 80.8702667,10.0926333 80.9339333,9.7983 C81.1256,9.7473 81.4966,9.70896667 81.7266,9.70896667 L81.7266,11.7026333 L75.3616,11.7026333 Z" id="Fill-18" fill="#2B2E42"></path>
                            <path d="M86.5580333,10.8720333 C86.9540333,10.8977 87.4400333,10.9357 87.7850333,11.0000333 C87.8360333,11.1533667 87.8487,11.5493667 87.8233667,11.7027 L84.1427,11.7027 C84.1553667,11.5110333 84.2447,11.2043667 84.3087,11.0253667 C84.5643667,10.9617 85.0757,10.8850333 85.3823667,10.8590333 L85.3823667,3.6127 L83.3120333,3.6127 C83.2863667,3.9067 83.1967,4.46903333 83.1457,4.69903333 C82.9537,4.75036667 82.6087,4.7757 82.3790333,4.7757 L82.3790333,2.83303333 L89.5613667,2.83303333 L89.5613667,4.82703333 C89.3057,4.82703333 88.9863667,4.7887 88.7817,4.7377 C88.7180333,4.45636667 88.6413667,3.93236667 88.6157,3.6127 L86.5580333,3.6127 L86.5580333,10.8720333 Z" id="Fill-20" fill="#2B2E42"></path>
                            <path d="M93.0639,2.1813 C92.9872333,1.98963333 92.9232333,1.5293 92.9232333,1.29963333 L95.5945667,0.0469666667 C95.8242333,0.2513 96.0545667,0.660633333 96.1695667,0.992633333 L93.0639,2.1813 Z M90.0859,11.7026333 C90.0985667,11.5109667 90.1755667,11.2043 90.2392333,11.0253 C90.4692333,10.9616333 90.9549,10.8849667 91.2362333,10.8593 L91.2362333,3.65096667 C90.9422333,3.6383 90.5075667,3.59996667 90.2905667,3.56163333 C90.2519,3.39563333 90.2392333,2.9993 90.2649,2.8333 L96.3229,2.8333 L96.3229,4.71196667 C96.1055667,4.71196667 95.8115667,4.67363333 95.6072333,4.62263333 C95.5429,4.36696667 95.4669,3.8683 95.4539,3.61263333 L92.4122333,3.61263333 L92.4122333,6.85896667 L94.8275667,6.85896667 C94.8402333,6.67996667 94.9042333,6.33496667 94.9555667,6.16896667 C95.1215667,6.11763333 95.4669,6.06663333 95.6839,6.06663333 L95.6839,8.4183 C95.4669,8.44363333 95.1472333,8.4183 94.9429,8.36696667 C94.8915667,8.13696667 94.8402333,7.8303 94.8275667,7.62563333 L92.4122333,7.62563333 L92.4122333,10.8976333 L95.5049,10.8976333 C95.5302333,10.5653 95.5945667,10.0926333 95.6582333,9.7983 C95.8499,9.7473 96.2209,9.70896667 96.4509,9.70896667 L96.4509,11.7026333 L90.0859,11.7026333 Z" id="Fill-22" fill="#2B2E42"></path>
                            <path d="M49.4276667,22.8263 C49.811,22.8516333 50.284,22.8646333 50.6673333,22.8646333 C52.6993333,22.8516333 53.9006667,21.7783 53.9006667,19.0816333 C53.9006667,16.7169667 52.3546667,15.4516333 50.4373333,15.4516333 C50.1946667,15.4516333 49.6706667,15.4646333 49.4276667,15.4899667 L49.4276667,22.8263 Z M48.252,15.6436333 C47.958,15.6436333 47.5873333,15.6309667 47.306,15.6049667 C47.2676667,15.4389667 47.255,15.0299667 47.2803333,14.8383 C48.29,14.7359667 49.6833333,14.6596333 50.6546667,14.6596333 C53.1343333,14.6596333 55.1406667,16.1929667 55.1406667,19.0176333 C55.1406667,22.2896333 53.1853333,23.6696333 51.038,23.6696333 C49.8876667,23.6696333 48.29,23.6569667 47.1016667,23.6059667 C47.1273333,23.4016333 47.191,23.1076333 47.255,22.9286333 C47.485,22.8646333 47.9706667,22.7879667 48.252,22.7623 L48.252,15.6436333 Z" id="Fill-24" fill="#2B2E42"></path>
                            <path d="M55.9717667,23.6186333 C55.9844333,23.4269667 56.0614333,23.1203 56.1254333,22.9413 C56.3551,22.8773 56.8407667,22.8006333 57.1221,22.7749667 L57.1221,15.5669667 C56.8281,15.5543 56.3937667,15.5156333 56.1764333,15.4773 C56.1381,15.3113 56.1254333,14.9149667 56.1507667,14.7489667 L62.2091,14.7489667 L62.2091,16.6276333 C61.9917667,16.6276333 61.6977667,16.5893 61.4931,16.5383 C61.4294333,16.2826333 61.3527667,15.7839667 61.3397667,15.5283 L58.2981,15.5283 L58.2981,18.7749667 L60.7137667,18.7749667 C60.7264333,18.5959667 60.7901,18.2506333 60.8411,18.0846333 C61.0074333,18.0333 61.3527667,17.9823 61.5697667,17.9823 L61.5697667,20.3339667 C61.3527667,20.3596333 61.0331,20.3339667 60.8284333,20.2829667 C60.7774333,20.0529667 60.7264333,19.7459667 60.7137667,19.5416333 L58.2981,19.5416333 L58.2981,22.8133 L61.3911,22.8133 C61.4164333,22.4809667 61.4804333,22.0083 61.5441,21.7143 C61.7361,21.6633 62.1064333,21.6249667 62.3367667,21.6249667 L62.3367667,23.6186333 L55.9717667,23.6186333 Z" id="Fill-26" fill="#2B2E42"></path>
                            <path d="M71.7823333,15.5924333 C71.322,15.3881 70.8746667,15.3114333 70.4016667,15.3114333 C68.702,15.3114333 67.3216667,16.5767667 67.3216667,19.0431 C67.3216667,21.6631 68.5613333,22.8774333 70.376,22.8774333 C71.1046667,22.8774333 72.127,22.6604333 72.7663333,22.4301 C72.7916667,22.6474333 72.7023333,23.0564333 72.6253333,23.2354333 C71.961,23.5804333 70.8873333,23.8741 69.9033333,23.8741 C67.6156667,23.8741 66.069,21.9701 66.069,19.3754333 C66.069,16.3081 68.0756667,14.4934333 70.4786667,14.4934333 C71.4243333,14.4934333 72.204,14.6721 72.843,14.9791 C72.843,15.6691 72.7916667,16.5641 72.6896667,17.1007667 C72.434,17.1007667 72.012,17.0111 71.7823333,16.8961 L71.7823333,15.5924333 Z" id="Fill-28" fill="#2B2E42"></path>
                            <path d="M76.0769,19.235 C76.4862333,19.2733333 76.9972333,19.2986667 77.4445667,19.2986667 C78.6075667,19.2986667 79.2849,18.7366667 79.2849,17.3436667 C79.2849,16.091 78.3519,15.4263333 77.0099,15.4263333 C76.7669,15.4263333 76.3069,15.4516667 76.0769,15.4773333 L76.0769,19.235 Z M74.9012333,15.5796667 C74.6072333,15.5796667 74.2235667,15.5796667 73.9555667,15.541 C73.9172333,15.375 73.9042333,14.9533333 73.9299,14.7616667 C75.0419,14.6593333 76.1665667,14.621 77.1889,14.621 C79.0675667,14.621 80.4992333,15.503 80.4992333,17.2793333 C80.4992333,19.235 79.0035667,20.0913333 77.4959,20.0913333 C77.0482333,20.0913333 76.5495667,20.053 76.0769,19.989 L76.0769,22.788 C76.5242333,22.8133333 77.0609,22.8516667 77.4575667,22.9156667 C77.5085667,23.069 77.5212333,23.478 77.4959,23.6186667 L73.7505667,23.6186667 C73.7635667,23.427 73.8402333,23.1203333 73.9042333,22.9413333 C74.1342333,22.8773333 74.6199,22.8006667 74.9012333,22.775 L74.9012333,15.5796667 Z" id="Fill-30" fill="#2B2E42"></path>
                            <path d="M84.1934667,16.0014333 C84.1424667,16.2954333 83.9634667,16.8961 83.8354667,17.2284333 L82.8128,19.9887667 L85.6504667,19.9887667 L84.6024667,17.2027667 C84.4874667,16.8961 84.3211333,16.3081 84.2828,16.0014333 L84.1934667,16.0014333 Z M85.7274667,23.6187667 C85.7528,23.4141 85.8164667,23.1331 85.8934667,22.9411 C86.1104667,22.8774333 86.5704667,22.8134333 86.8391333,22.7881 C86.6344667,22.4937667 86.4684667,22.1361 86.3401333,21.8037667 L85.9314667,20.7174333 L82.5448,20.7174333 L82.1228,21.8677667 C82.0078,22.2001 81.8288,22.5451 81.6628,22.8264333 C81.9694667,22.8391 82.4041333,22.8774333 82.7361333,22.9411 C82.7874667,23.1074333 82.8388,23.4654333 82.8388,23.6187667 L79.7968,23.6187667 C79.8224667,23.4014333 79.9118,23.1201 80.0014667,22.9411 C80.1801333,22.8774333 80.4741333,22.8264333 80.6788,22.8007667 L83.9761333,14.5701 L84.7941333,14.5701 L87.9638,22.7751 C88.1681333,22.7881 88.5514667,22.8391 88.7691333,22.8901 C88.8324667,23.0817667 88.8964667,23.4014333 88.9091333,23.6187667 L85.7274667,23.6187667 Z" id="Fill-32" fill="#2B2E42"></path>
                            <path d="M92.1182667,23.6186333 C92.1309333,23.4269667 92.2076,23.1203 92.2716,22.9413 C92.5012667,22.8773 92.9869333,22.8006333 93.2682667,22.7749667 L93.2682667,15.5669667 C92.9742667,15.5543 92.5399333,15.5156333 92.3226,15.4773 C92.2842667,15.3113 92.2716,14.9149667 92.2969333,14.7489667 L95.5176,14.7489667 C95.5559333,14.9023 95.5432667,15.2986333 95.4922667,15.4646333 C95.1982667,15.5156333 94.7766,15.5543 94.4446,15.5669667 L94.4446,22.7879667 C94.8149333,22.8133 95.2622667,22.8516333 95.5819333,22.9159667 C95.6202667,23.0563 95.6329333,23.2353 95.6329333,23.4143 C95.6329333,23.4909667 95.6329333,23.5293 95.6202667,23.6186333 L92.1182667,23.6186333 Z" id="Fill-34" fill="#2B2E42"></path>
                            <path d="M102.380967,20.6663 C102.597967,21.0626333 103.032967,22.0849667 103.134967,22.5196333 L103.224633,22.5196333 L103.224633,15.5669667 C102.9303,15.5543 102.4833,15.5156333 102.265967,15.4773 C102.227633,15.3113 102.214967,14.9023 102.2403,14.7489667 L105.064967,14.7489667 C105.077967,14.7999667 105.090633,14.9023 105.090633,15.0173 C105.090633,15.1963 105.064967,15.3623 105.039633,15.4646333 C104.796633,15.5156333 104.425967,15.5543 104.131967,15.5669667 L104.131967,23.6953 L102.687633,23.6953 L98.9559667,16.7299667 C98.8279667,16.4996333 98.6363,16.1036333 98.5086333,15.7969667 L98.4189667,15.7969667 L98.4189667,22.7879667 C98.7766333,22.8133 99.2243,22.8516333 99.5309667,22.9159667 C99.5819667,23.0689667 99.5949667,23.4653 99.5689667,23.6186333 L96.3229667,23.6186333 C96.3356333,23.4269667 96.4126333,23.1203 96.4763,22.9413 C96.6936333,22.8773 97.1796333,22.8006333 97.4476333,22.7749667 L97.4476333,15.5669667 C97.1536333,15.5543 96.7193,15.5156333 96.5016333,15.4773 C96.4636333,15.3113 96.4509667,14.9023 96.4763,14.7489667 L99.1729667,14.7489667 L102.380967,20.6663 Z" id="Fill-36" fill="#2B2E42"></path>
                            <path d="M111.685967,15.5924333 C111.225633,15.3881 110.778633,15.3114333 110.305633,15.3114333 C108.605633,15.3114333 107.225633,16.5767667 107.225633,19.0431 C107.225633,21.6631 108.4653,22.8774333 110.279967,22.8774333 C111.008633,22.8774333 112.030967,22.6604333 112.669967,22.4301 C112.6953,22.6474333 112.605967,23.0564333 112.5293,23.2354333 C111.864633,23.5804333 110.7913,23.8741 109.806967,23.8741 C107.5193,23.8741 105.972967,21.9701 105.972967,19.3754333 C105.972967,16.3081 107.979633,14.4934333 110.3823,14.4934333 C111.327967,14.4934333 112.107633,14.6721 112.746967,14.9791 C112.746967,15.6691 112.6953,16.5641 112.5933,17.1007667 C112.337633,17.1007667 111.915633,17.0111 111.685967,16.8961 L111.685967,15.5924333 Z" id="Fill-38" fill="#2B2E42"></path>
                            <g id="Group-42" transform="translate(114.000000, 22.000000)">
                                <mask id="mask-2" fill="white">
                                    <use xlink:href="#path-1"></use>
                                </mask>
                                <g id="Clip-41"></g>
                                <path d="M1.9301,0.928533333 C1.9301,1.4782 1.59776667,1.7722 1.13743333,1.7722 C0.600766667,1.7722 0.319433333,1.49086667 0.319433333,0.928533333 C0.319433333,0.468533333 0.664766667,0.148866667 1.13743333,0.148866667 C1.59776667,0.148866667 1.9301,0.4302 1.9301,0.928533333" id="Fill-40" fill="#2B2E42" mask="url(#mask-2)"></path>
                            </g>
                        </g>
                    </g>
                </g>
            </g>
        </g>
    </g>
</svg>