<?xml version="1.0" encoding="UTF-8"?>
<svg width="106px" height="53px" viewBox="0 0 106 53" version="1.1" xmlns="http://www.w3.org/2000/svg" xmlns:xlink="http://www.w3.org/1999/xlink">
    <!-- Generator: Sketch 50.2 (55047) - http://www.bohemiancoding.com/sketch -->
    <title>Logo_MartineLord</title>
    <desc>Created with Sketch.</desc>
    <defs>
        <polygon id="path-1" points="0 53 106 53 106 0 0 0"></polygon>
    </defs>
    <g id="Konnexion-Site" stroke="none" stroke-width="1" fill="none" fill-rule="evenodd">
        <g id="À-Propos-(960)" transform="translate(-736.000000, -1546.000000)">
            <g id="Clients" transform="translate(271.000000, 1394.000000)">
                <g id="Logos" transform="translate(0.000000, 65.000000)">
                    <g id="Logo_MartineLord" transform="translate(465.000000, 87.000000)">
                        <path d="M56.3246964,16 C56.4221053,16 56.5195143,15.969697 56.5844535,15.9090909 C56.6493928,15.8484848 56.6818625,15.7575758 56.6818625,15.6666667 L56.6818625,12.2727273 L58.1754659,14.4545455 C58.2079356,14.4848485 58.2400805,14.5454545 58.3053445,14.5757576 C58.3702838,14.6060606 58.4024287,14.6060606 58.4676927,14.6060606 C58.532632,14.6060606 58.5647769,14.6060606 58.6300409,14.5757576 C58.6949802,14.5454545 58.7271251,14.5151515 58.7599195,14.4545455 L60.253523,12.3333333 L60.253523,15.6666667 C60.253523,15.7575758 60.2859926,15.8484848 60.3506072,15.9090909 C60.4158712,15.969697 60.5129554,16 60.6431586,16 C60.7405676,16 60.8376518,15.969697 60.9029158,15.9090909 C60.9678551,15.8484848 61,15.7575758 61,15.6666667 L61,11.3333333 C61,11.2424242 60.9678551,11.1515152 60.9029158,11.0909091 C60.8376518,11.030303 60.7405676,11 60.6431586,11 C60.5129554,11 60.4158712,11.0606061 60.3506072,11.1515152 L58.5001623,13.7272727 L56.6818625,11.1515152 C56.6493928,11.0909091 56.5844535,11.0606061 56.5519839,11.030303 C56.4870446,11 56.4221053,11 56.357166,11 C56.2597571,11 56.1623482,11.030303 56.0974089,11.0909091 C56.0324696,11.1515152 56,11.2424242 56,11.3333333 L56,15.6666667 C56,15.7575758 56.0324696,15.8484848 56.0974089,15.9090909 C56.1295539,15.969697 56.2272875,16 56.3246964,16" id="Fill-1" fill="#2B2E42"></path>
                        <path d="M65.013986,12.1011905 L65.7972028,14.0654762 L64.2587413,14.0654762 L65.013986,12.1011905 Z M63.3074126,15.9702381 C63.3636364,15.9702381 63.4195804,15.9404762 63.4755245,15.9107143 C63.5311888,15.8809524 63.5594406,15.8214286 63.5871329,15.7619048 L63.979021,14.7202381 L66.020979,14.7202381 L66.4405594,15.7619048 C66.4682517,15.8214286 66.5241958,15.8809524 66.5524476,15.9404762 C66.6081119,15.9702381 66.6640559,16 66.7202797,16 C66.8039161,16 66.8601399,15.9702381 66.9160839,15.9107143 C66.972028,15.8511905 67,15.7619048 67,15.672619 C67,15.6130952 67,15.5833333 66.972028,15.5238095 L65.2937063,11.2083333 C65.2654545,11.1488095 65.2377622,11.0892857 65.1818182,11.0595238 C65.1255944,11.0297619 65.0696503,11 65.013986,11 C64.9297902,11 64.8741259,11 64.8181818,11.0595238 C64.7622378,11.0892857 64.706014,11.1488095 64.6783217,11.2380952 L63,15.6130952 L63,15.7321429 C63,15.8214286 63.0276923,15.8809524 63.0839161,15.9404762 C63.1398601,15.9404762 63.2237762,15.9702381 63.3074126,15.9702381 Z" id="Fill-3" fill="#2B2E42"></path>
                        <path d="M70.6412214,11.5757576 L72.2598473,11.5757576 C72.4732824,11.5757576 72.6259542,11.6666667 72.778626,11.8181818 C72.9312977,11.969697 72.9923664,12.1818182 72.9923664,12.3939394 C72.9923664,12.5757576 72.9621374,12.7272727 72.9007634,12.8787879 C72.8396947,13.030303 72.7480916,13.1515152 72.6259542,13.2424242 C72.5041221,13.3333333 72.4125191,13.3636364 72.2900763,13.3939394 L70.6412214,13.3939394 L70.6412214,11.5757576 Z M70.3358779,15.9393939 C70.4277863,15.9393939 70.4885496,15.9090909 70.5496183,15.8484848 C70.610687,15.7878788 70.6412214,15.6969697 70.6412214,15.6060606 L70.6412214,14 L72.1071756,14 C72.3514504,14 72.5343511,14.0606061 72.6870229,14.1818182 C72.8396947,14.3030303 72.9007634,14.4848485 72.9007634,14.7272727 C72.9007634,15.0909091 72.9621374,15.3636364 73.0534351,15.5454545 C73.1450382,15.7272727 73.2674809,15.8484848 73.4201527,15.9393939 C73.4812214,15.969697 73.5728244,16 73.6641221,16 C73.7557252,16 73.8473282,15.969697 73.9083969,15.9393939 C73.9694656,15.8787879 74,15.8181818 74,15.7272727 C74,15.6666667 74,15.6363636 73.9694656,15.5757576 C73.9392366,15.5151515 73.9083969,15.4848485 73.8473282,15.4545455 C73.7557252,15.4242424 73.7254962,15.3333333 73.6946565,15.2424242 C73.6641221,15.1515152 73.6338931,14.969697 73.6338931,14.6969697 C73.6338931,14.4848485 73.5728244,14.3030303 73.4503817,14.1212121 C73.3587786,13.969697 73.2061069,13.8181818 73.0232061,13.7272727 C73.2366412,13.6060606 73.4503817,13.4242424 73.5728244,13.2121212 C73.7254962,12.969697 73.7865649,12.7272727 73.7865649,12.4545455 C73.7865649,12.1818182 73.7254962,11.9393939 73.6030534,11.6969697 C73.4812214,11.4848485 73.2977099,11.3030303 73.0839695,11.1818182 C72.8705344,11.0606061 72.6259542,11 72.3816794,11 L70.3358779,11 C70.2442748,11 70.1526718,11.030303 70.0916031,11.0909091 C70.0305344,11.1515152 70,11.2424242 70,11.3333333 L70,15.6666667 C70,15.7575758 70.0305344,15.8484848 70.1224427,15.9090909 C70.1224427,15.9090909 70.2140458,15.9393939 70.3358779,15.9393939 Z" id="Fill-5" fill="#2B2E42"></path>
                        <path d="M76.3384615,11.6626506 L77.6307692,11.6626506 L77.6307692,15.6686747 C77.6307692,15.7590361 77.6618462,15.8493976 77.7230769,15.9096386 C77.7846154,15.9698795 77.8769231,16 78,16 C78.0923077,16 78.1846154,15.9698795 78.2772308,15.9096386 C78.3384615,15.8493976 78.3695385,15.7590361 78.3695385,15.6686747 L78.3695385,11.6626506 L79.6618462,11.6626506 C79.7541538,11.6626506 79.8461538,11.6325301 79.908,11.5722892 C79.9695385,11.5120482 80,11.4216867 80,11.3313253 C80,11.2409639 79.9695385,11.1506024 79.908,11.0903614 C79.8461538,11.0301205 79.7541538,11 79.6618462,11 L76.3384615,11 C76.2461538,11 76.1538462,11.0301205 76.0923077,11.0903614 C76.0307692,11.1506024 76,11.2409639 76,11.3313253 C76,11.4216867 76.0307692,11.5120482 76.0923077,11.5722892 C76.1538462,11.6325301 76.2461538,11.6626506 76.3384615,11.6626506" id="Fill-7" fill="#2B2E42"></path>
                        <path d="M82.4782609,16 C82.6086957,16 82.7391304,15.969697 82.826087,15.9090909 C82.9130435,15.8484848 83,15.7575758 83,15.6666667 L83,11.3333333 C83,11.2424242 82.9565217,11.1515152 82.8695652,11.0909091 C82.7826087,11.030303 82.6521739,11 82.5217391,11 C82.3913043,11 82.2608696,11.030303 82.1304348,11.0909091 C82.0434783,11.1515152 82,11.2424242 82,11.3333333 L82,15.6666667 C82,15.7575758 82.0434783,15.8484848 82.1304348,15.9090909 C82.2173913,15.969697 82.3478261,16 82.4782609,16" id="Fill-9" fill="#2B2E42"></path>
                        <path d="M86.3007293,16 C86.3912488,16 86.4510939,15.9698795 86.5112398,15.9096386 C86.5713856,15.8493976 86.6014585,15.7891566 86.6014585,15.6987952 L86.6014585,12.2650602 L89.3985415,15.9096386 C89.4283137,15.939759 89.4583866,15.9698795 89.5185324,15.9698795 C89.5786783,16 89.6087512,16 89.6688971,16 C89.7591159,16 89.8496354,15.9698795 89.9094805,15.9096386 C89.9696263,15.8493976 90,15.7590361 90,15.6686747 L90,11.3313253 C90,11.2409639 89.9696263,11.1506024 89.9094805,11.1204819 C89.8496354,11.060241 89.7894895,11.0301205 89.6992707,11.0301205 C89.6087512,11.0301205 89.5185324,11.060241 89.4887602,11.1204819 C89.4283137,11.1807229 89.3985415,11.2409639 89.3985415,11.3313253 L89.3985415,14.7951807 L86.6014585,11.1204819 C86.5713856,11.0903614 86.5416134,11.060241 86.4814676,11.0301205 C86.421021,11 86.3608751,11 86.3311029,11 C86.2408841,11 86.1503646,11.0301205 86.0905195,11.0903614 C86.0303737,11.1506024 86,11.2409639 86,11.3313253 L86,15.6686747 C86,15.7590361 86.0303737,15.8493976 86.0905195,15.8795181 C86.1503646,15.9096386 86.2105105,16 86.3007293,16" id="Fill-11" fill="#2B2E42"></path>
                        <path d="M92.3145714,16 L94.686,16 C94.7717143,16 94.8571429,15.9698795 94.9145714,15.9096386 C94.9717143,15.8493976 95,15.7590361 95,15.6686747 C95,15.5783133 94.9717143,15.4879518 94.9145714,15.4277108 C94.8571429,15.3674699 94.7717143,15.3373494 94.686,15.3373494 L92.686,15.3373494 L92.686,13.7710843 L94.4002857,13.7710843 C94.486,13.7710843 94.5714286,13.7409639 94.6288571,13.6807229 C94.686,13.6204819 94.7142857,13.560241 94.7142857,13.439759 C94.7142857,13.3493976 94.686,13.2590361 94.6288571,13.1987952 C94.5714286,13.1385542 94.486,13.1084337 94.4002857,13.1084337 L92.686,13.1084337 L92.686,11.6626506 L94.686,11.6626506 C94.7717143,11.6626506 94.8571429,11.6325301 94.9145714,11.5722892 C94.9717143,11.5120482 95,11.4216867 95,11.3313253 C95,11.2409639 94.9717143,11.1506024 94.9145714,11.0903614 C94.8571429,11.0301205 94.7717143,11 94.686,11 L92.3145714,11 C92.2285714,11 92.1428571,11.0301205 92.0857143,11.0903614 C92.0288571,11.1506024 92,11.2409639 92,11.3313253 L92,15.6385542 C92,15.7289157 92.0288571,15.8192771 92.0857143,15.8795181 C92.1428571,15.9698795 92.2285714,16 92.3145714,16" id="Fill-13" fill="#2B2E42"></path>
                        <path d="M56.3234977,24 L58.6762082,24 C58.7644349,24 58.8529556,23.9698795 58.9114793,23.9096386 C58.970297,23.8493976 59,23.7590361 59,23.6686747 C59,23.5783133 58.970297,23.4879518 58.9114793,23.4277108 C58.8529556,23.3674699 58.7644349,23.3373494 58.6762082,23.3373494 L56.6764043,23.3373494 L56.6764043,19.3313253 C56.6764043,19.2409639 56.6472895,19.1506024 56.5881776,19.0903614 C56.5293599,19.0301205 56.4411332,19 56.3532007,19 C56.2646799,19 56.1764533,19.0301205 56.0882266,19.0903614 C56.0294089,19.1506024 56,19.2409639 56,19.3313253 L56,23.6385542 C56,23.7289157 56.0294089,23.8192771 56.0882266,23.8795181 C56.1470444,23.939759 56.2061563,24 56.3234977,24" id="Fill-15" fill="#2B2E42"></path>
                        <path d="M62,20.5294118 C62.15625,20.2352941 62.34375,20.0294118 62.625,19.8823529 C62.875,19.7352941 63.1875,19.6470588 63.5309375,19.6470588 C63.875,19.6470588 64.1559375,19.7352941 64.4375,19.8823529 C64.6875,20.0294118 64.90625,20.2647059 65.0625,20.5588235 C65.21875,20.8529412 65.28125,21.1470588 65.28125,21.5 C65.28125,21.8529412 65.21875,22.1764706 65.0625,22.4411765 C64.90625,22.7352941 64.71875,22.9411765 64.4375,23.1176471 C64.1875,23.2647059 63.875,23.3529412 63.5309375,23.3529412 C63.1875,23.3529412 62.9059375,23.2647059 62.625,23.1176471 C62.375,22.9705882 62.15625,22.7352941 62,22.4411765 C61.84375,22.1470588 61.78125,21.8529412 61.78125,21.5 C61.78125,21.1470588 61.84375,20.8235294 62,20.5294118 M62.21875,23.6764706 C62.5934375,23.9117647 63.03125,24 63.5,24 C63.96875,24 64.40625,23.8823529 64.7809375,23.6764706 C65.15625,23.4411765 65.46875,23.1470588 65.6875,22.7647059 C65.90625,22.3823529 66,21.9705882 66,21.5 C66,21.0294118 65.90625,20.6176471 65.6875,20.2352941 C65.46875,19.8529412 65.1875,19.5588235 64.7809375,19.3235294 C64.40625,19.0882353 63.96875,19 63.5,19 C63.03125,19 62.5934375,19.1176471 62.21875,19.3235294 C61.84375,19.5588235 61.53125,19.8529412 61.3125,20.2352941 C61.09375,20.6176471 61,21.0294118 61,21.5 C61,21.9705882 61.09375,22.3823529 61.3125,22.7647059 C61.5625,23.1470588 61.84375,23.4411765 62.21875,23.6764706" id="Fill-17" fill="#2B2E42"></path>
                        <path d="M69.6412214,19.5454545 L71.259542,19.5454545 C71.4732824,19.5454545 71.6259542,19.6363636 71.778626,19.7878788 C71.9312977,19.9393939 71.9923664,20.1515152 71.9923664,20.3636364 C71.9923664,20.5454545 71.9621374,20.6969697 71.9007634,20.8484848 C71.8396947,21 71.7480916,21.1212121 71.6259542,21.2121212 C71.5041221,21.3030303 71.4122137,21.3333333 71.2900763,21.3636364 L69.6412214,21.3636364 L69.6412214,19.5454545 Z M69.3358779,23.9393939 C69.4274809,23.9393939 69.4885496,23.9090909 69.5496183,23.8484848 C69.610687,23.7878788 69.6412214,23.6969697 69.6412214,23.6060606 L69.6412214,22 L71.1068702,22 C71.3514504,22 71.5343511,22.0606061 71.6870229,22.1818182 C71.8396947,22.3030303 71.9007634,22.4848485 71.9007634,22.7272727 C71.9007634,23.0909091 71.9621374,23.3636364 72.0534351,23.5454545 C72.1450382,23.7272727 72.2674809,23.8484848 72.4201527,23.9393939 C72.480916,23.969697 72.5728244,24 72.6641221,24 C72.7557252,24 72.8473282,23.969697 72.9083969,23.9393939 C72.9694656,23.8787879 73,23.8181818 73,23.7272727 C73,23.6666667 73,23.6363636 72.9694656,23.5757576 C72.9389313,23.5151515 72.9083969,23.4848485 72.8473282,23.4545455 C72.7557252,23.4242424 72.7254962,23.3333333 72.6946565,23.2424242 C72.6641221,23.1515152 72.6335878,22.969697 72.6335878,22.6969697 C72.6335878,22.4848485 72.5728244,22.3030303 72.4503817,22.1212121 C72.3282443,21.9393939 72.2061069,21.8181818 72.0229008,21.7272727 C72.2366412,21.6060606 72.4503817,21.4242424 72.5728244,21.2121212 C72.7254962,20.969697 72.7862595,20.7272727 72.7862595,20.4545455 C72.7862595,20.1818182 72.7254962,19.9393939 72.6030534,19.6969697 C72.480916,19.4848485 72.2977099,19.3030303 72.0839695,19.1818182 C71.870229,19.0606061 71.6259542,19 71.3816794,19 L69.3358779,19 C69.2442748,19 69.1526718,19.030303 69.0916031,19.0909091 C69.0305344,19.1515152 69,19.2424242 69,19.3333333 L69,23.5757576 C69,23.6666667 69.0305344,23.7575758 69.1221374,23.8181818 C69.1221374,23.8787879 69.2140458,23.9393939 69.3358779,23.9393939 Z" id="Fill-19" fill="#2B2E42"></path>
                        <path d="M75.6618229,19.6325301 L76.9279189,19.6325301 C77.3883174,19.6325301 77.7336163,19.813253 77.9638156,20.1445783 C78.1940148,20.5060241 78.3091145,20.9277108 78.3091145,21.4698795 C78.3091145,22.0120482 78.1940148,22.4638554 77.9638156,22.7951807 C77.7336163,23.126506 77.3883174,23.3072289 76.9279189,23.3072289 L75.6618229,23.3072289 L75.6618229,19.6325301 Z M75.316524,24 L76.9857564,24 C77.41738,24 77.7911661,23.8795181 78.0789152,23.6686747 C78.3954392,23.4578313 78.6256384,23.1566265 78.769513,22.7650602 C78.9133875,22.373494 79,21.9518072 79,21.5 C79,21.0481928 78.9133875,20.626506 78.769513,20.2349398 C78.6256384,19.8433735 78.3954392,19.5421687 78.0789152,19.3313253 C77.7623912,19.1204819 77.41738,19 76.9857564,19 L75.316524,19 C75.2301993,19 75.1438745,19.0301205 75.0863247,19.0903614 C75.0287749,19.1506024 75,19.2409639 75,19.3313253 L75,23.6385542 C75,23.7289157 75.0287749,23.8192771 75.0863247,23.8795181 C75.1438745,23.939759 75.2014244,24 75.316524,24 Z" id="Fill-21" fill="#2B2E42"></path>
                        <polygon id="Fill-23" fill="#2B2E42" points="13.0702576 14.6314554 16.9367681 21.7112676 18.0632319 21.7112676 21.9297424 14.6314554 21.9297424 24 24 24 24 11 21.8079625 11 17.4847775 18.9342723 13.1920375 11 11 11 11 24 13.0702576 24"></polygon>
                        <polygon id="Fill-25" fill="#2B2E42" points="36 22.1690141 29.0371622 22.1690141 29.0371622 11 27 11 27 24 36 24"></polygon>
                        <path d="M52.4347826,42 L51,42 L51,45.9958909 L52.4347826,45.9958909 C52.9565217,46.0289148 53.3478261,45.8637954 53.6090217,45.4675087 C53.8695652,45.1042458 54,44.6088875 54,44.0144574 C54,43.4200274 53.8695652,42.9576929 53.6090217,42.5614062 C53.3478261,42.1981434 52.9565217,42 52.4347826,42" id="Fill-27" fill="#2B2E42"></path>
                        <mask id="mask-2" fill="white">
                            <use xlink:href="#path-1"></use>
                        </mask>
                        <g id="Clip-30"></g>
                        <path d="M46.7394325,33.6239861 L105.01795,33.6239861 L105.01795,0.982618772 L46.7394325,0.982618772 L46.7394325,33.6239861 Z M82.2466705,45.9681344 C82.2466705,46.0602549 82.2159815,46.1523754 82.1546034,46.2137891 C82.0932252,46.2752028 82.0011581,46.3059096 81.9090909,46.3059096 C81.8477128,46.3059096 81.8170237,46.3059096 81.7556456,46.2752028 C81.6942675,46.2444959 81.6635785,46.2444959 81.6328894,46.2137891 L78.7788072,42.4982619 L78.7788072,45.9681344 C78.7788072,46.0602549 78.7481181,46.1216686 78.68674,46.1830823 C78.6253619,46.2444959 78.5639838,46.2752028 78.4719166,46.2752028 C78.3798494,46.2752028 78.3184713,46.2444959 78.2570932,46.1830823 C78.1957151,46.1216686 78.1650261,46.0602549 78.1650261,45.9681344 L78.1650261,41.5770568 C78.1650261,41.4849363 78.1957151,41.3928158 78.2570932,41.3314021 C78.3184713,41.2699884 78.4105385,41.2392816 78.5026057,41.2392816 C78.5639838,41.2392816 78.6253619,41.2392816 78.656051,41.2699884 C78.7174291,41.3006952 78.7481181,41.3314021 78.7788072,41.3621089 L81.6022003,45.0776362 L81.6022003,41.5770568 C81.6022003,41.4849363 81.6328894,41.4235226 81.6942675,41.3621089 C81.7556456,41.3006952 81.8170237,41.2699884 81.9090909,41.2699884 C82.0011581,41.2699884 82.0932252,41.3006952 82.1546034,41.3621089 C82.2159815,41.4235226 82.2466705,41.4849363 82.2466705,41.5770568 L82.2466705,45.9681344 Z M75.6485235,45.661066 C75.6485235,45.7838934 75.5871453,45.9067207 75.4643891,45.9681344 C75.2495657,46.1216686 75.0040533,46.2137891 74.7278518,46.3059096 C74.4516503,46.3980301 74.1754488,46.428737 73.8992472,46.428737 C73.4082224,46.428737 72.9785756,46.3059096 72.5796178,46.0909618 C72.1806601,45.8453071 71.8737695,45.5382387 71.6282571,45.1390498 C71.3827446,44.739861 71.2906775,44.3099652 71.2906775,43.8186559 C71.2906775,43.3273465 71.4134337,42.8974508 71.6282571,42.4982619 C71.8737695,42.099073 72.1806601,41.7920046 72.5796178,41.5463499 C72.9785756,41.3006952 73.4082224,41.2085747 73.8992472,41.2085747 C74.1447597,41.2085747 74.3595831,41.2392816 74.6050955,41.3006952 C74.8199189,41.3621089 75.0347423,41.4235226 75.2188767,41.5463499 C75.2802548,41.5770568 75.3109438,41.6077636 75.3416329,41.6691773 C75.3723219,41.730591 75.3723219,41.7612978 75.3723219,41.8227115 C75.3723219,41.914832 75.3416329,42.0069525 75.2802548,42.0683662 C75.2188767,42.1297798 75.1268095,42.1604867 75.0347423,42.1604867 C74.9733642,42.1604867 74.9119861,42.1297798 74.850608,42.099073 C74.5437174,41.9455388 74.2061378,41.8841251 73.8992472,41.8841251 C73.5616676,41.8841251 73.224088,41.9762457 72.9478865,42.1297798 C72.671685,42.283314 72.4261726,42.5289687 72.2727273,42.8360371 C72.119282,43.1431054 72.0272148,43.4501738 72.0272148,43.8186559 C72.0272148,44.1564311 72.119282,44.4942063 72.2727273,44.7705678 C72.4261726,45.0776362 72.671685,45.292584 72.9478865,45.476825 C73.224088,45.661066 73.5616676,45.7224797 73.8992472,45.7224797 C74.0526925,45.7224797 74.2368269,45.6917729 74.4209612,45.661066 C74.6050955,45.6303592 74.7585408,45.5689455 74.881297,45.5075319 L74.881297,44.3713789 L74.0220035,44.3713789 C73.9299363,44.3713789 73.8378691,44.3406721 73.776491,44.2792584 C73.7151129,44.2178447 73.6844239,44.1257242 73.6844239,44.0336037 C73.6844239,43.9414832 73.7151129,43.8493627 73.776491,43.787949 C73.8378691,43.7265353 73.9299363,43.6958285 74.0220035,43.6958285 L75.2802548,43.6958285 C75.403011,43.6651217 75.4950782,43.6958285 75.5564563,43.787949 C75.6178344,43.8493627 75.6485235,43.9414832 75.6485235,44.0336037 L75.6485235,45.661066 Z M68.9276202,45.9988413 C68.9276202,46.0909618 68.8969311,46.1523754 68.835553,46.2444959 C68.7741749,46.3059096 68.6821077,46.3366165 68.5900405,46.3366165 C68.4979734,46.3366165 68.4059062,46.3059096 68.3445281,46.2444959 C68.28315,46.1830823 68.2524609,46.0909618 68.2524609,45.9988413 L68.2524609,41.6384705 C68.2524609,41.5463499 68.28315,41.4542294 68.3445281,41.3928158 C68.4059062,41.3314021 68.4979734,41.3006952 68.5900405,41.3006952 C68.6821077,41.3006952 68.7741749,41.3314021 68.835553,41.3928158 C68.8969311,41.4542294 68.9276202,41.5463499 68.9276202,41.6384705 L68.9276202,45.9988413 Z M65.582513,45.6917729 C65.4290677,45.9067207 65.2142444,46.0909618 64.9380428,46.1830823 C64.6618413,46.3059096 64.3856398,46.3673233 64.0480602,46.3673233 C63.7104806,46.3980301 63.40359,46.3673233 63.1273885,46.2444959 C62.851187,46.1523754 62.6056746,45.9988413 62.3601621,45.7531866 C62.268095,45.661066 62.2067169,45.5689455 62.2067169,45.4461182 C62.2067169,45.3539977 62.2374059,45.292584 62.298784,45.2004635 C62.3601621,45.108343 62.4522293,45.108343 62.5442965,45.108343 C62.6363636,45.108343 62.6977417,45.1390498 62.7591199,45.2004635 C62.9432542,45.3847045 63.1580776,45.5075319 63.3422119,45.5996524 C63.5570353,45.6917729 63.7718587,45.7224797 64.0480602,45.7224797 C64.3549508,45.7224797 64.6004632,45.661066 64.8152866,45.5075319 C65.03011,45.3539977 65.1221772,45.2004635 65.1221772,44.9855156 C65.1221772,44.739861 64.999421,44.5556199 64.8152866,44.4020857 C64.6004632,44.2792584 64.2935727,44.1564311 63.8946149,44.0643105 C63.40359,43.97219 63.0046323,43.787949 62.7591199,43.5730012 C62.4829184,43.3273465 62.3601621,43.0202781 62.3601621,42.6210892 C62.3601621,42.3447277 62.4215402,42.099073 62.5749855,41.8841251 C62.7284308,41.6691773 62.9432542,41.5156431 63.1887666,41.3928158 C63.4649682,41.2699884 63.7411697,41.2085747 64.0787493,41.2085747 C64.3856398,41.2085747 64.6618413,41.2699884 64.9380428,41.3621089 C65.2142444,41.4542294 65.4290677,41.5770568 65.582513,41.730591 C65.7052693,41.8227115 65.7359583,41.9455388 65.7359583,42.0376593 C65.7359583,42.1297798 65.7052693,42.1911935 65.6438911,42.283314 C65.582513,42.3447277 65.4904459,42.3754345 65.3983787,42.3754345 C65.3370006,42.3754345 65.2756225,42.3447277 65.2449334,42.3140209 C65.1221772,42.1911935 64.9380428,42.0683662 64.7232195,42.0069525 C64.5083961,41.914832 64.2935727,41.8841251 64.0787493,41.8841251 C63.7411697,41.8841251 63.4956572,41.9455388 63.3115229,42.0683662 C63.1273885,42.1911935 63.0353214,42.3754345 63.0353214,42.5903824 C63.0353214,42.8360371 63.1273885,43.0202781 63.3115229,43.1431054 C63.4956572,43.2659328 63.7718587,43.3887601 64.1708164,43.4501738 C64.5390851,43.5422943 64.8459757,43.6344148 65.0914881,43.7265353 C65.3370006,43.8493627 65.5211349,44.0028969 65.6438911,44.1871379 C65.7666474,44.3713789 65.8280255,44.6477404 65.8280255,44.9548088 C65.8280255,45.2311703 65.7359583,45.476825 65.582513,45.6917729 Z M59.4753909,43.4808806 C59.567458,43.4808806 59.6595252,43.5115875 59.7209033,43.5730012 C59.7822814,43.6344148 59.8129705,43.7265353 59.8129705,43.8186559 C59.8129705,43.9107764 59.7822814,44.0028969 59.7209033,44.0643105 C59.6595252,44.1257242 59.567458,44.1564311 59.4753909,44.1564311 L57.6647365,44.1564311 L57.6647365,45.7531866 L59.8129705,45.7531866 C59.9050376,45.661066 59.9971048,45.6917729 60.0584829,45.7838934 C60.119861,45.8453071 60.1505501,45.9374276 60.1505501,46.0295481 C60.1505501,46.1216686 60.119861,46.2137891 60.0584829,46.2752028 C59.9971048,46.3366165 59.9050376,46.3673233 59.8129705,46.3673233 L57.2964679,46.3673233 C57.2044007,46.3673233 57.1123335,46.3366165 57.0509554,46.2752028 C56.9895773,46.2137891 56.9588882,46.1216686 56.9588882,46.0295481 L56.9588882,41.6691773 C56.9588882,41.5770568 56.9895773,41.4849363 57.0509554,41.4235226 C57.1123335,41.3621089 57.2044007,41.3314021 57.2964679,41.3314021 L59.8129705,41.3314021 C59.9050376,41.3314021 59.9971048,41.3621089 60.0584829,41.4235226 C60.119861,41.4849363 60.1505501,41.5770568 60.1505501,41.6691773 C60.1505501,41.7612978 60.119861,41.8534183 60.0584829,41.914832 C59.9971048,41.9762457 59.9050376,42.0069525 59.8129705,42.0069525 L57.6647365,42.0069525 L57.6647365,43.4808806 L59.4753909,43.4808806 Z M54.2889404,45.108343 C54.1354951,45.5075319 53.8899826,45.7838934 53.552403,46.0295481 C53.2148234,46.2444959 52.8465547,46.3673233 52.3862189,46.3673233 L50.6062536,46.3673233 C50.5141865,46.3673233 50.4221193,46.3366165 50.3607412,46.2752028 C50.2993631,46.2137891 50.268674,46.1216686 50.268674,46.0295481 L50.268674,41.6691773 C50.268674,41.5770568 50.2993631,41.4849363 50.3607412,41.4235226 C50.4221193,41.3621089 50.5141865,41.3314021 50.6062536,41.3314021 L52.3862189,41.3314021 C52.8465547,41.2699884 53.2455124,41.3928158 53.552403,41.6077636 C53.8592936,41.8227115 54.104806,42.1297798 54.2889404,42.5289687 C54.4423856,42.8974508 54.5344528,43.3273465 54.5344528,43.8186559 C54.5344528,44.2792584 54.4423856,44.7091541 54.2889404,45.108343 Z M0.982049797,33.6239861 L45.7880718,33.6239861 L45.7880718,0.982618772 L0.982049797,0.982618772 L0.982049797,33.6239861 Z M0,0 L0,34.6066049 L26.5153445,34.6066049 L26.5153445,53 L106,53 L106,34.6066049 L106,0 L0,0 Z" id="Fill-29" fill="#2B2E42" mask="url(#mask-2)"></path>
                    </g>
                </g>
            </g>
        </g>
    </g>
</svg>