<?xml version="1.0" encoding="UTF-8"?>
<svg width="21px" height="22px" viewBox="0 0 21 22" version="1.1" xmlns="http://www.w3.org/2000/svg" xmlns:xlink="http://www.w3.org/1999/xlink">
    <!-- Generator: Sketch 50.2 (55047) - http://www.bohemiancoding.com/sketch -->
    <title>Icon_Phone</title>
    <desc>Created with Sketch.</desc>
    <defs></defs>
    <g id="Konnexion-Site" stroke="none" stroke-width="1" fill="none" fill-rule="evenodd">
        <g id="À-Propos-(960)" transform="translate(-491.000000, -1298.000000)">
            <g id="Team" transform="translate(271.000000, 706.000000)">
                <g id="Alexandre-Giroux" transform="translate(0.000000, 362.000000)">
                    <g id="Hover">
                        <g id="Icon_Phone" transform="translate(221.150289, 231.000000)">
                            <rect id="Border" stroke="#FFFFFF" x="0" y="0" width="19.1083481" height="19.8905612" rx="9.55417405"></rect>
                            <path d="M7.06164313,5.32598622 L7.06534313,5.32958622 L7.06164313,5.32598622 Z M7.06292302,5.32958622 L7.06292302,5.32598622 L7.06292302,5.32958622 Z M7.84424011,7.45844537 L6.51751962,5.75111515 L6.51876491,5.75111515 C6.50520506,5.73274709 6.49060747,5.71918724 6.47576774,5.71064315 L6.46718906,5.70687268 C6.45010088,5.69704871 6.42671706,5.6910298 6.40205335,5.6910298 C6.38116012,5.68974991 6.36279206,5.6910298 6.34670703,5.69576883 L6.33587991,5.70081918 C6.31602442,5.70936327 6.29890165,5.72167782 6.28181347,5.74008048 C6.20934438,5.81753073 6.13313942,5.91442139 6.06067033,6.03490341 C5.98699054,6.15638858 5.91804978,6.30253746 5.8617003,6.47338464 C5.59880528,7.26075523 5.65038113,8.11557916 5.92559071,8.94345635 C6.22899233,9.85487189 6.80504375,10.7343595 7.53457745,11.4653461 C8.26539102,12.1961596 9.14608936,12.7722456 10.0565017,13.0743674 C10.8843789,13.349577 11.7392029,13.4011182 12.5290986,13.1395377 C12.6910904,13.0841568 12.8312204,13.0189865 12.9514948,12.9490771 L12.9650547,12.9392878 C13.0855713,12.8668187 13.1823928,12.7906137 13.2611575,12.7181446 C13.2782457,12.7023017 13.2905602,12.6836915 13.2991043,12.6653235 L13.3003842,12.6653235 L13.3003842,12.6640782 C13.307683,12.6456755 13.3114535,12.6235716 13.3089629,12.5978701 C13.3089629,12.5732756 13.3029094,12.5511025 13.2943653,12.532769 L13.2943653,12.5314892 C13.2868244,12.5178947 13.2770004,12.5055802 13.2624028,12.4935077 L13.2500536,12.4824385 L11.5414781,11.1569287 L11.5414781,11.1556834 C11.5266038,11.1433688 11.5107609,11.1348247 11.4959212,11.1300511 L11.4873771,11.1275259 C11.4702543,11.1224756 11.4506756,11.1214724 11.4297477,11.1250354 L11.4260119,11.1250354 C11.4025935,11.1275259 11.3829801,11.1348247 11.3681404,11.1446141 L11.3671372,11.1433688 L11.3658919,11.1446141 C11.3510522,11.1531928 11.3361779,11.1680325 11.3228602,11.1864006 L11.3228602,11.1851207 L11.3215803,11.1864006 L10.7996299,11.902582 C10.7711611,11.9455792 10.7344596,11.9823499 10.6876574,12.0107495 C10.6854089,12.0119947 10.0761497,12.4441803 9.33174167,11.9247205 C8.88443962,11.6127748 8.47418502,11.2699044 8.10211938,10.8978387 L8.10336467,10.8965934 C7.72877385,10.5220026 7.3846581,10.1129933 7.07523757,9.66946171 C6.55574317,8.9250537 6.98920864,8.31454919 6.99045393,8.3132693 C7.01383775,8.27407719 7.04580025,8.23958951 7.08378166,8.21139748 L7.79017368,7.69671129 L7.8135575,7.67709793 C7.82940038,7.66599408 7.84174953,7.65495941 7.85029362,7.64264485 L7.85634712,7.63282088 C7.8661365,7.6169434 7.87243214,7.59608476 7.87495732,7.57394623 C7.87845106,7.55184229 7.87720576,7.53091446 7.87243214,7.512581 C7.86866168,7.49898655 7.86260817,7.48438896 7.85406408,7.47207441 L7.84424011,7.45844537 Z M7.06292302,5.32598622 L8.38964351,7.03463092 L8.40801157,7.06053992 C8.4706221,7.14528897 8.51493375,7.23861671 8.5406006,7.33446962 C8.56875804,7.44263708 8.57629898,7.55557817 8.55893407,7.67104443 C8.5418459,7.78654528 8.50611293,7.89443602 8.44727287,7.99028893 L8.43492372,8.00990228 C8.37857425,8.09845639 8.30613975,8.17469595 8.21883093,8.23730648 L8.19797229,8.25065878 L7.55294551,8.72127546 C7.51243892,8.81591767 7.46338824,9.0209412 7.64025433,9.27401225 C7.92525329,9.68305615 8.24221475,10.0614174 8.59089657,10.4077816 L8.59214187,10.4100647 L8.59214187,10.4077816 C8.94231112,10.758954 9.32067241,11.0759155 9.72591125,11.3597384 C9.98026219,11.5365699 10.1853203,11.4875192 10.2786134,11.4467359 L10.7638623,10.7811272 L10.762617,10.7811272 C10.8315578,10.6877994 10.9138163,10.6115599 11.0106723,10.5526852 C11.1052453,10.4948137 11.2121675,10.4581122 11.3276338,10.4407473 L11.3412282,10.4397441 C11.452924,10.4249044 11.5610915,10.4322032 11.6667338,10.4606374 L11.6851018,10.465411 C11.7847252,10.493603 11.8780529,10.5441757 11.9663649,10.6115599 L13.6736951,11.9370351 L13.7021293,11.9604535 C13.7881582,12.0338911 13.8568223,12.1186748 13.905873,12.2170529 L13.9071528,12.215773 C13.9624992,12.323975 13.9944617,12.4418973 13.9992353,12.5682253 C14.004251,12.6937576 13.9846377,12.8127522 13.9390807,12.9234449 L13.9403606,12.9256933 C13.8948383,13.0363514 13.824929,13.1370125 13.7315666,13.2242521 C13.620874,13.3261585 13.4857944,13.4330461 13.3225227,13.5314588 L13.3029094,13.5425281 C13.1456912,13.6345759 12.9602465,13.7216426 12.7439461,13.7943538 C11.8056184,14.1050196 10.8018783,14.0496733 9.84013222,13.7291835 C8.8218291,13.3900835 7.84648856,12.7563682 7.04704554,11.9554031 C6.24483521,11.1544381 5.60987454,10.178129 5.27077455,9.15979128 C4.95156465,8.19780304 4.89493844,7.19430506 5.20688415,6.25597737 C5.28184382,6.03113294 5.37264638,5.84070701 5.46849929,5.67989135 L5.46974458,5.67736618 L5.46849929,5.67736618 C5.56812266,5.51412912 5.67376495,5.37880737 5.77567137,5.26963675 C5.8629456,5.17630901 5.96357213,5.10615755 6.07526792,5.06084275 L6.10370209,5.04977349 C6.2068538,5.01279523 6.31726971,4.99695234 6.43149068,5.00048067 C6.5592715,5.00674172 6.67726294,5.03745893 6.78418511,5.09405054 L6.80255317,5.10380533 L7.06292302,5.32598622 Z" id="Phone" fill="#FEFEFE"></path>
                        </g>
                    </g>
                </g>
            </g>
        </g>
    </g>
</svg>