<?xml version="1.0" encoding="UTF-8"?>
<svg width="164px" height="23px" viewBox="0 0 164 23" version="1.1" xmlns="http://www.w3.org/2000/svg" xmlns:xlink="http://www.w3.org/1999/xlink">
    <!-- Generator: Sketch 50.2 (55047) - http://www.bohemiancoding.com/sketch -->
    <title>Logo_Turbokids</title>
    <desc>Created with Sketch.</desc>
    <defs>
        <polygon id="path-1" points="0.0272727273 0.169565217 11.9263636 0.169565217 11.9263636 12.8304348 0.0272727273 12.8304348"></polygon>
        <polygon id="path-3" points="0 0.228628571 11.9713714 0.228628571 11.9713714 5.94291429 0 5.94291429"></polygon>
    </defs>
    <g id="Konnexion-Site" stroke="none" stroke-width="1" fill="none" fill-rule="evenodd">
        <g id="Clients-(960)" transform="translate(-271.000000, -307.000000)">
            <g id="Clients" transform="translate(271.000000, 117.000000)">
                <g id="Logos" transform="translate(0.000000, 178.000000)">
                    <g id="Logo_Turbokids" transform="translate(0.000000, 12.000000)">
                        <path d="M59.5614973,3 L49.2085561,3 C49.0659537,3 48.9518717,3.05529954 48.8377897,3.13824885 C48.7237077,3.22119816 48.6666667,3.33179724 48.6381462,3.47004608 L48.0106952,6.23502304 C47.9821747,6.37327189 48.0106952,6.4562212 48.0962567,6.56682028 C48.1818182,6.64976959 48.2673797,6.70506912 48.4099822,6.70506912 L51.3475936,6.70506912 L49.6078431,14.5299539 C49.5793226,14.6682028 49.6078431,14.7511521 49.6934046,14.8617512 C49.7789661,14.9447005 49.8645276,15 50.0071301,15 L53.543672,15 C53.6862745,15 53.8003565,14.9447005 53.9144385,14.8617512 C54.0285205,14.7788018 54.0855615,14.6682028 54.114082,14.5299539 L55.8538324,6.67741935 L58.7914439,6.67741935 C58.9340463,6.67741935 59.0481283,6.62211982 59.1622103,6.53917051 C59.2762923,6.4562212 59.3333333,6.34562212 59.3618538,6.20737327 L59.9893048,3.44239631 C60.0178253,3.30414747 59.9893048,3.22119816 59.9037433,3.11059908 C59.8181818,3.05529954 59.7040998,3 59.5614973,3" id="Fill-1" fill="#FFFFFF"></path>
                        <path d="M72.6505566,3 L69.205539,3 C69.0643497,3 68.9513983,3.05429864 68.8384469,3.13574661 C68.7254955,3.21719457 68.6690198,3.32579186 68.640782,3.46153846 L67.1159381,10.2760181 C67.0312245,10.7104072 66.8335596,11.0361991 66.579419,11.2533937 C66.3252783,11.4705882 65.9581863,11.5791855 65.5346185,11.5791855 C64.8286723,11.5791855 64.4615802,11.280543 64.4615802,10.6832579 C64.4615802,10.5475113 64.4898181,10.4117647 64.5180559,10.2760181 L66.0428998,3.46153846 C66.0711377,3.32579186 66.0428998,3.24434389 65.9581863,3.13574661 C65.8734727,3.05429864 65.7887592,3 65.6475699,3 L62.2025523,3 C62.061363,3 61.9484116,3.05429864 61.8354602,3.13574661 C61.7225088,3.21719457 61.6660331,3.32579186 61.6377953,3.46153846 L60.1129514,10.3574661 C60.0282378,10.6832579 60,11.0090498 60,11.361991 C60,12.1493213 60.2259028,12.8280543 60.7059462,13.3710407 C61.1859897,13.9140271 61.8072224,14.321267 62.5696443,14.5927602 C63.3320663,14.8642534 64.2074396,15 65.1392886,15 C66.9747488,15 68.3866413,14.6199095 69.4032039,13.8868778 C70.4197665,13.1538462 71.0974749,11.9864253 71.4645669,10.3846154 L72.9894108,3.48868778 C73.0176487,3.35294118 72.9894108,3.27149321 72.9046973,3.16289593 C72.8764594,3.05429864 72.7917459,3 72.6505566,3" id="Fill-3" fill="#FFFFFF"></path>
                        <path d="M107.547511,7.60089686 C107.384615,8.51569507 107.167692,9.4573991 106.950498,10.3991031 C106.733032,11.2869955 106.217466,11.7443946 105.429864,11.7443946 C104.778552,11.7443946 104.425339,11.4215247 104.425339,10.8026906 C104.425339,10.6412556 104.425339,10.5067265 104.45276,10.3991031 C104.615385,9.4573991 104.832579,8.51569507 105.050045,7.60089686 C105.158371,7.14349776 105.348416,6.79372197 105.61991,6.57847534 C105.891403,6.3632287 106.217466,6.25560538 106.570136,6.25560538 C106.896199,6.25560538 107.140271,6.33632287 107.303439,6.49775785 C107.466063,6.65919283 107.574932,6.90134529 107.574932,7.22421525 C107.574932,7.38565022 107.574932,7.49327354 107.547511,7.60089686 M109.475385,3.4573991 C108.715204,3.16143498 107.873303,3 106.950498,3 C105.185792,3 103.774027,3.37668161 102.769231,4.15695067 C101.764706,4.93721973 101.059095,6.06726457 100.678733,7.57399103 C100.40724,8.65022422 100.190045,9.61883408 100.054299,10.5067265 C100,10.7219731 100,10.9641256 100,11.2331839 C100,12.0403587 100.217195,12.7130045 100.678733,13.2780269 C101.140271,13.8430493 101.737828,14.2735426 102.497738,14.5695067 C103.257919,14.8654709 104.099819,15 105.050045,15 C106.841629,15 108.226244,14.6233184 109.230769,13.896861 C110.235294,13.1704036 110.914027,12.0134529 111.321267,10.5067265 C111.59276,9.4573991 111.783077,8.48878924 111.945701,7.57399103 C112,7.35874439 112,7.11659193 112,6.84753363 C112,6.06726457 111.783077,5.367713 111.321267,4.80269058 C110.859729,4.21076233 110.235294,3.75336323 109.475385,3.4573991" id="Fill-5" fill="#FFFFFF"></path>
                        <path d="M126.547613,8.92907801 L130.829998,3.53900709 C130.882926,3.45815603 130.93612,3.37730496 130.93612,3.2964539 C130.93612,3.21560284 130.909523,3.13475177 130.856329,3.08085106 C130.803135,3.02695035 130.723344,3 130.643553,3 L126.919972,3 C126.600807,3 126.361434,3.13475177 126.201852,3.37730496 L123.621943,6.77304965 L124.340062,3.45815603 C124.366659,3.32340426 124.340062,3.24255319 124.260271,3.13475177 C124.180746,3.05390071 124.100689,3 123.967704,3 L120.829257,3 C120.696272,3 120.59015,3.05390071 120.483496,3.13475177 C120.377108,3.21560284 120.32418,3.32340426 120.297317,3.45815603 L118.009974,14.2652482 C117.983377,14.4 118.009974,14.4808511 118.089765,14.5886525 C118.169556,14.6695035 118.249347,14.7234043 118.382332,14.7234043 L121.521045,14.7234043 C121.65403,14.7234043 121.760152,14.6695035 121.86654,14.5886525 C121.972928,14.5078014 122.026122,14.4 122.052985,14.2652482 L122.824032,10.6808511 L127.451912,21.622695 C127.5583,21.8921986 127.744479,22 128.063643,22 L131.521254,22 C131.627908,22 131.73403,21.9730496 131.840418,21.8921986 C131.946806,21.8113475 132,21.7304965 132,21.5957447 C132,21.5687943 132,21.5148936 131.973403,21.4340426 L126.547613,8.92907801 Z" id="Fill-7" fill="#FFFFFF"></path>
                        <path d="M137.592194,3 L134.017726,3 C133.875882,3 133.762407,3.05517241 133.649215,3.13793103 C133.535457,3.22068966 133.478719,3.33103448 133.45035,3.46896552 L131.010634,14.5310345 C130.982265,14.6689655 131.010634,14.7517241 131.096024,14.862069 C131.180847,14.9448276 131.265953,15 131.407797,15 L134.982265,15 C135.124109,15 135.237584,14.9448276 135.351343,14.862069 C135.464535,14.7793103 135.521272,14.6689655 135.549641,14.5310345 L137.989357,3.46896552 C138.017726,3.33103448 137.989357,3.24827586 137.904535,3.13793103 C137.847513,3.05517241 137.734038,3 137.592194,3" id="Fill-9" fill="#FFFFFF"></path>
                        <path d="M146.480918,7.71724138 C146.338799,8.54482759 146.139834,9.4 145.912444,10.2551724 C145.770326,10.7241379 145.57136,11.0551724 145.258699,11.3034483 C144.946039,11.5241379 144.60467,11.662069 144.178315,11.662069 L143.041367,11.662069 L144.207023,6.36551724 L145.258699,6.36551724 C145.628207,6.36551724 145.940868,6.44827586 146.167973,6.64137931 C146.395647,6.80689655 146.509342,7.08275862 146.509342,7.44137931 C146.509342,7.46896552 146.480918,7.57931034 146.480918,7.71724138 M148.328458,3.46896552 C147.532594,3.16551724 146.65146,3 145.741618,3 L141.02357,3 C140.881451,3 140.767472,3.05517241 140.654062,3.13793103 C140.540367,3.22068966 140.483235,3.33103448 140.455096,3.46896552 L138.010659,14.5310345 C137.982235,14.6689655 138.010659,14.7517241 138.09593,14.862069 C138.181201,14.9448276 138.266472,15 138.408591,15 L143.922786,15 C145.770326,15 147.19151,14.6137931 148.214763,13.8689655 C149.238016,13.1241379 149.948608,11.9103448 150.374963,10.2827586 C150.573645,9.48275862 150.772895,8.62758621 150.943437,7.74482759 C151,7.52413793 151,7.27586207 151,7 C151,6.17241379 150.744471,5.48275862 150.261268,4.87586207 C149.778066,4.2137931 149.124321,3.77241379 148.328458,3.46896552" id="Fill-11" fill="#FFFFFF"></path>
                        <g id="Group-15" transform="translate(152.000000, 2.000000)">
                            <mask id="mask-2" fill="white">
                                <use xlink:href="#path-1"></use>
                            </mask>
                            <g id="Clip-14"></g>
                            <path d="M11.3181818,1.97826087 C10.8818182,1.44130435 10.3090909,1.0173913 9.54545455,0.67826087 C8.78181818,0.339130435 7.96363636,0.169565217 7.03636364,0.169565217 C5.50909091,0.169565217 4.25454545,0.508695652 3.27272727,1.15869565 C2.29090909,1.83695652 1.69090909,2.74130435 1.44545455,3.95652174 C1.39090909,4.2673913 1.33636364,4.55 1.33636364,4.8326087 C1.33636364,5.70869565 1.66363636,6.44347826 2.29090909,6.98043478 C2.91818182,7.5173913 3.81818182,7.88478261 4.96363636,8.05434783 C5.72727273,8.1673913 6.27272727,8.25217391 6.54545455,8.36521739 C6.84545455,8.47826087 6.98181818,8.61956522 6.98181818,8.78913043 C6.98181818,8.98695652 6.84545455,9.12826087 6.6,9.21304348 C6.35454545,9.32608696 6,9.35434783 5.59090909,9.35434783 C5.1,9.35434783 4.71818182,9.21304348 4.41818182,8.95869565 C4.28181818,8.84565217 4.2,8.76086957 4.11818182,8.7326087 C4.03636364,8.70434783 3.9,8.67608696 3.76363636,8.67608696 L0.545454545,8.67608696 C0.436363636,8.67608696 0.354545455,8.70434783 0.245454545,8.78913043 C0.163636364,8.87391304 0.109090909,8.95869565 0.0818181818,9.07173913 C0.0545454545,9.21304348 0.0272727273,9.3826087 0.0272727273,9.55217391 C0.0272727273,10.1456522 0.218181818,10.6826087 0.627272727,11.1913043 C1.00909091,11.6717391 1.60909091,12.0673913 2.37272727,12.3782609 C3.16363636,12.6608696 4.09090909,12.8304348 5.20909091,12.8304348 C6.95454545,12.8304348 8.37272727,12.4913043 9.38181818,11.8413043 C10.4181818,11.1913043 11.0454545,10.2304348 11.3181818,8.93043478 C11.3727273,8.59130435 11.4272727,8.28043478 11.4272727,7.99782609 C11.4272727,7.12173913 11.1,6.41521739 10.4727273,5.90652174 C9.84545455,5.39782609 8.83636364,5.05869565 7.44545455,4.86086957 C6.73636364,4.77608696 6.27272727,4.66304348 6.02727273,4.55 C5.78181818,4.43695652 5.7,4.29565217 5.72727273,4.12608696 C5.80909091,3.78695652 6.10909091,3.64565217 6.62727273,3.64565217 C6.98181818,3.64565217 7.25454545,3.75869565 7.44545455,3.95652174 C7.52727273,4.06956522 7.63636364,4.12608696 7.71818182,4.1826087 C7.8,4.21086957 7.93636364,4.23913043 8.07272727,4.23913043 L11.4545455,4.23913043 C11.5363636,4.23913043 11.6454545,4.21086957 11.7272727,4.12608696 C11.8090909,4.04130435 11.8636364,3.95652174 11.8909091,3.84347826 C11.8909091,3.78695652 11.9181818,3.70217391 11.9181818,3.58913043 C11.9727273,3.02391304 11.7545455,2.51521739 11.3181818,1.97826087" id="Fill-13" fill="#FFFFFF" mask="url(#mask-2)"></path>
                        </g>
                        <path d="M81.3477275,7.66206897 C81.1616366,7.88275862 80.9489613,7.99310345 80.6565327,7.99310345 L80.3906886,7.99310345 L79.4602341,7.99310345 L79.8324159,6.17241379 L80.3906886,6.17241379 L81.0021301,6.17241379 C81.2148054,6.17241379 81.3743119,6.22758621 81.4540652,6.36551724 C81.5604028,6.50344828 81.5869872,6.66896552 81.5869872,6.86206897 C81.6135717,7.16551724 81.5338184,7.4137931 81.3477275,7.66206897 M84.8568702,3.85517241 C84.1125066,3.30344828 83.04913,3 81.6933249,3 L76.8017927,3 C76.6688706,3 76.562533,3.05517241 76.4561953,3.13793103 C76.3498576,3.22068966 76.2701044,3.33103448 76.2701044,3.46896552 L75.8447538,5.56551724 L75.8447538,5.59310345 L74.4357798,12.3793103 L74.0104292,14.5310345 C73.9838448,14.6689655 74.0104292,14.7517241 74.063598,14.862069 C74.1167669,14.9448276 74.2231045,15 74.3560266,15 L77.5993251,15 C77.7322472,15 77.8385848,14.9448276 77.9449225,14.862069 C78.0512602,14.7793103 78.1310134,14.6689655 78.1310134,14.5310345 L78.5829484,12.3793103 L78.6095329,12.3793103 L78.8487926,11.2482759 L79.5134029,11.2482759 L80.2577665,14.5034483 C80.2843509,14.6137931 80.3375198,14.7241379 80.4438574,14.8068966 C80.5501951,14.9172414 80.6831172,14.9448276 80.8692081,14.9448276 L84.2454287,14.9448276 C84.3517663,14.9448276 84.4315196,14.9172414 84.5378572,14.8344828 C84.6176105,14.7517241 84.6707793,14.6689655 84.6973637,14.5586207 C84.6973637,14.5034483 84.6973637,14.4482759 84.6707793,14.3655172 L83.4478962,10.4758621 C84.0593378,10.1172414 84.591026,9.64827586 85.0163767,9.06896552 C85.4417273,8.51724138 85.7341559,7.85517241 85.8936623,7.11034483 C85.9468312,6.77931034 86,6.47586207 86,6.17241379 C85.9734156,5.20689655 85.6012338,4.40689655 84.8568702,3.85517241" id="Fill-16" fill="#FFFFFF"></path>
                        <path d="M94.2740136,6.72413793 C94.217415,6.91724138 94.132517,7.11034483 93.9627211,7.27586207 C93.7929252,7.44137931 93.5948299,7.49655172 93.3684354,7.49655172 L91.9251701,7.49655172 L92.2647619,5.95172414 L93.7363265,5.95172414 C93.9344218,5.95172414 94.0759184,6.00689655 94.1608163,6.11724138 C94.2457143,6.22758621 94.3023129,6.36551724 94.3023129,6.53103448 C94.2740136,6.6137931 94.2740136,6.69655172 94.2740136,6.72413793 M93.5382313,11.1931034 C93.509932,11.4137931 93.3967347,11.6068966 93.2269388,11.7724138 C93.0571429,11.937931 92.8307483,12.0206897 92.5477551,12.0206897 L91.8685714,12.0206897 L90.9629932,12.0206897 L91.3308844,10.337931 L91.8968707,10.337931 L92.9439456,10.337931 C93.1420408,10.337931 93.3118367,10.3931034 93.425034,10.5310345 C93.5382313,10.6413793 93.5948299,10.8068966 93.5948299,10.9724138 C93.5665306,11.0275862 93.5382313,11.1103448 93.5382313,11.1931034 M97.7831293,3.71724138 C96.9907483,3.24827586 95.8870748,3 94.4438095,3 L88.9820408,3 C88.8405442,3 88.7273469,3.05517241 88.6141497,3.13793103 C88.5009524,3.22068966 88.4443537,3.33103448 88.4160544,3.46896552 L86.9161905,10.3655172 L86.5482993,12.0482759 L86.0106122,14.5310345 C85.9823129,14.6689655 86.0106122,14.7517241 86.0955102,14.862069 C86.1804082,14.9448276 86.2653061,15 86.4068027,15 L92.717551,15 C94.3023129,15 95.5191837,14.6965517 96.3964626,14.0896552 C97.2737415,13.4827586 97.8397279,12.5172414 98.1227211,11.2482759 C98.1510204,11.0551724 98.1793197,10.862069 98.1793197,10.6965517 C98.1793197,10.2551724 98.0661224,9.86896552 97.8680272,9.53793103 C97.6416327,9.17931034 97.3586395,8.93103448 97.0190476,8.76551724 C97.4152381,8.6 97.7831293,8.32413793 98.1793197,7.93793103 C98.5472109,7.55172414 98.8019048,7.11034483 98.915102,6.64137931 C98.9717007,6.33793103 99,6.08965517 99,5.86896552 C98.9717007,4.90344828 98.5755102,4.1862069 97.7831293,3.71724138" id="Fill-18" fill="#FFFFFF"></path>
                        <path d="M49.5625,21.9448276 C49.53125,21.9172414 49.5,21.8896552 49.5,21.8344828 L49,18.1655172 C49,18.1103448 49,18.0827586 49.03125,18.0551724 C49.0625,18.0275862 49.09375,18.0275862 49.125,18.0275862 L49.6875,18.0275862 C49.75,18.0275862 49.78125,18.0275862 49.8125,18.0551724 C49.84375,18.0827586 49.84375,18.1103448 49.875,18.137931 L50.25,21.0344828 L52.03125,18.137931 C52.09375,18.0551724 52.15625,18 52.25,18 L52.875,18 C52.90625,18 52.9375,18 52.96875,18.0275862 C53,18.0551724 53,18.0827586 53,18.1103448 C53,18.137931 53,18.1655172 52.96875,18.1931034 L50.75,21.8344828 C50.6875,21.9448276 50.59375,22 50.46875,22 L49.75,22 C49.65625,21.9724138 49.59375,21.9724138 49.5625,21.9448276" id="Fill-20" fill="#FFFFFF"></path>
                        <path d="M54.1395349,17.7567568 C54.1395349,17.7297297 54.1395349,17.7027027 54.1705426,17.6756757 L54.8527132,17.1081081 C54.9147287,17.0540541 54.9457364,17.027027 54.9767442,17.027027 C55.0077519,17 55.0697674,17 55.1007752,17 L55.7829457,17 C55.8139535,17 55.8449612,17 55.875969,17.027027 C55.9069767,17.0540541 55.9069767,17.0810811 55.9069767,17.0810811 C55.9069767,17.1081081 55.875969,17.1351351 55.8449612,17.1621622 L54.9147287,17.7297297 C54.8837209,17.7567568 54.8217054,17.7837838 54.7906977,17.7837838 C54.7596899,17.7837838 54.6976744,17.8108108 54.6666667,17.8108108 L54.2325581,17.8108108 C54.1395349,17.8378378 54.1085271,17.8108108 54.1395349,17.7567568 M52.0310078,21.972973 C52,21.9459459 52,21.9189189 52,21.8918919 L52.8682171,18.2702703 C52.8682171,18.2162162 52.8992248,18.1891892 52.9302326,18.1621622 C52.9612403,18.1351351 52.9922481,18.1351351 53.0542636,18.1351351 L55.875969,18.1351351 C55.9379845,18.1351351 55.9689922,18.1351351 55.9689922,18.1621622 C56,18.1891892 56,18.2162162 56,18.2702703 L55.9069767,18.6486486 C55.9069767,18.7027027 55.875969,18.7297297 55.8449612,18.7567568 C55.8139535,18.7837838 55.7829457,18.7837838 55.7209302,18.7837838 L53.6124031,18.7837838 L53.3643411,19.7567568 L55.3178295,19.7567568 C55.379845,19.7567568 55.4108527,19.7567568 55.4108527,19.7837838 C55.4418605,19.8108108 55.4418605,19.8378378 55.4418605,19.8918919 L55.3488372,20.2432432 C55.3488372,20.2972973 55.3178295,20.3243243 55.2868217,20.3513514 C55.255814,20.3783784 55.1937984,20.3783784 55.1627907,20.3783784 L53.2093023,20.3783784 L52.9612403,21.3783784 L55.1007752,21.3783784 C55.1627907,21.3783784 55.1937984,21.3783784 55.1937984,21.4054054 C55.2248062,21.4324324 55.2248062,21.4594595 55.2248062,21.4864865 L55.1317829,21.8648649 C55.1317829,21.9189189 55.1007752,21.9459459 55.0697674,21.972973 C55.0387597,22 55.0077519,22 54.9457364,22 L52.0620155,22 C52.0930233,22 52.0620155,22 52.0310078,21.972973" id="Fill-22" fill="#FFFFFF"></path>
                        <path d="M56.0273973,21.9172414 C56,21.8896552 56,21.862069 56,21.8344828 L56.7671233,18.137931 C56.7671233,18.0827586 56.7945205,18.0551724 56.8219178,18.0275862 C56.8493151,18 56.8767123,18 56.9315068,18 L57.4520548,18 C57.5068493,18 57.5342466,18 57.5342466,18.0275862 C57.5616438,18.0551724 57.5616438,18.0827586 57.5616438,18.137931 L57.260274,19.6 L58.9041096,19.6 L59.2054795,18.137931 C59.2054795,18.0827586 59.2328767,18.0551724 59.260274,18.0275862 C59.2876712,18 59.3150685,18 59.369863,18 L59.890411,18 C59.9452055,18 59.9726027,18 59.9726027,18.0275862 C60,18.0551724 60,18.0827586 60,18.137931 L59.2054795,21.8344828 C59.2054795,21.8896552 59.1780822,21.9172414 59.1506849,21.9448276 C59.1232877,21.9724138 59.0958904,21.9724138 59.0410959,21.9724138 L58.5205479,21.9724138 C58.4657534,21.9724138 58.4383562,21.9724138 58.4383562,21.9448276 C58.4109589,21.9172414 58.4109589,21.8896552 58.4109589,21.862069 L58.739726,20.3448276 L57.0958904,20.3448276 L56.7671233,21.862069 C56.7671233,21.9172414 56.739726,21.9448276 56.7123288,21.9724138 C56.6849315,22 56.6575342,22 56.6027397,22 L56.0821918,22 C56.0821918,21.9448276 56.0547945,21.9448276 56.0273973,21.9172414" id="Fill-24" fill="#FFFFFF"></path>
                        <path d="M61.0338983,21.971831 C61,21.943662 61,21.915493 61,21.8873239 L61.9830508,18.1126761 C61.9830508,18.084507 62.0169492,18.028169 62.0508475,18.028169 C62.0847458,18 62.1186441,18 62.1864407,18 L62.8644068,18 C62.8983051,18 62.9322034,18 62.9661017,18.028169 C63,18.056338 63,18.084507 63,18.1126761 L62.0169492,21.8873239 C62.0169492,21.915493 61.9830508,21.971831 61.9491525,21.971831 C61.9152542,22 61.8813559,22 61.8135593,22 L61.1355932,22 C61.1016949,22 61.0677966,22 61.0338983,21.971831" id="Fill-26" fill="#FFFFFF"></path>
                        <path d="M63.4210526,21.6510067 C63.1503759,21.4362416 63,21.1677852 63,20.7919463 C63,20.6577181 63,20.5503356 63.0300752,20.4697987 C63.0902256,20.2013423 63.1503759,19.8791946 63.2706767,19.4765101 C63.3909774,18.9932886 63.6315789,18.6174497 63.9924812,18.3758389 C64.3533835,18.1073826 64.8045113,18 65.3759398,18 C65.7067669,18 65.9774436,18.0536913 66.2180451,18.1342282 C66.4586466,18.2147651 66.6390977,18.3489933 66.7894737,18.5100671 C66.9097744,18.6711409 67,18.8590604 67,19.0738255 C67,19.1275168 67,19.2080537 66.9699248,19.2885906 C66.9699248,19.3154362 66.9398496,19.3422819 66.9097744,19.3691275 C66.8796992,19.3959732 66.8496241,19.3959732 66.8195489,19.3959732 L66.2180451,19.3959732 C66.1578947,19.3959732 66.1278195,19.3959732 66.0977444,19.3691275 C66.0676692,19.3422819 66.0676692,19.3154362 66.0676692,19.261745 C66.0977444,18.8590604 65.8571429,18.6442953 65.3157895,18.6442953 C65.0150376,18.6442953 64.7744361,18.7248322 64.593985,18.8590604 C64.3834586,18.9932886 64.2631579,19.2348993 64.1729323,19.5302013 C64.0827068,19.8255034 64.0225564,20.147651 63.962406,20.4697987 C63.9323308,20.5771812 63.9323308,20.6845638 63.9323308,20.738255 C63.9323308,21.1409396 64.1729323,21.3557047 64.6541353,21.3557047 C64.8947368,21.3557047 65.1353383,21.3020134 65.3157895,21.2214765 C65.4962406,21.114094 65.6466165,20.9530201 65.7669173,20.738255 C65.7969925,20.6845638 65.8270677,20.6577181 65.8571429,20.6308725 C65.887218,20.6040268 65.9172932,20.6040268 65.9774436,20.6040268 L66.5789474,20.6040268 C66.6090226,20.6040268 66.6390977,20.6040268 66.6691729,20.6308725 C66.6992481,20.6577181 66.6992481,20.6845638 66.6992481,20.7114094 C66.5789474,21.0872483 66.3684211,21.409396 66.0075188,21.6510067 C65.6466165,21.8926174 65.1954887,22 64.6240602,22 C64.0827068,21.9731544 63.6917293,21.8657718 63.4210526,21.6510067" id="Fill-28" fill="#FFFFFF"></path>
                        <path d="M68.4028777,21.7221507 C68.1438849,21.5305694 68,21.2568819 68,20.8737193 C68,20.7368755 68.028777,20.6000317 68.057554,20.4358192 L68.5755396,18.1368438 C68.5755396,18.0821063 68.6043165,18.0547375 68.6330935,18.0273688 C68.6618705,18 68.6906475,18 68.7482014,18 L69.294964,18 C69.352518,18 69.381295,18 69.381295,18.0273688 C69.4100719,18.0547375 69.4100719,18.0821063 69.4100719,18.1368438 L68.8920863,20.4358192 C68.8633094,20.5452942 68.8633094,20.682138 68.8633094,20.791613 C68.8633094,20.9831943 68.9208633,21.1200381 69.0359712,21.2021443 C69.1510791,21.2842506 69.323741,21.3389881 69.5539568,21.3389881 C69.8417266,21.3389881 70.0719424,21.2568819 70.2733813,21.1200381 C70.4460432,20.9831943 70.5899281,20.7368755 70.647482,20.4358192 L71.1654676,18.1368438 C71.1654676,18.0821063 71.1942446,18.0547375 71.2230216,18.0273688 C71.2517986,18 71.3093525,18 71.3381295,18 L71.8848921,18 C71.942446,18 71.971223,18 71.971223,18.0273688 C72,18.0547375 72,18.0821063 72,18.1368438 L71.4820144,20.4358192 C71.3669065,20.9831943 71.1366906,21.3663569 70.8201439,21.6126757 C70.5035971,21.8589945 70.0719424,21.9958382 69.4964029,21.9958382 C69.0071942,22.023207 68.6618705,21.913732 68.4028777,21.7221507" id="Fill-30" fill="#FFFFFF"></path>
                        <path d="M72.0288462,21.9440559 C72,21.9160839 72,21.8881119 72,21.8601399 L72.8365385,18.1118881 C72.8365385,18.0839161 72.8653846,18.027972 72.8942308,18.027972 C72.9230769,18 72.9519231,18 73.0096154,18 L73.5865385,18 C73.6153846,18 73.6442308,18 73.6730769,18.027972 C73.7019231,18.0559441 73.7019231,18.0839161 73.7019231,18.1398601 L73.0096154,21.3286713 L74.8846154,21.3286713 C74.9423077,21.3286713 74.9711538,21.3286713 74.9711538,21.3566434 C75,21.3846154 75,21.4125874 75,21.4405594 L74.9134615,21.8601399 C74.9134615,21.9160839 74.8846154,21.9440559 74.8557692,21.972028 C74.8269231,22 74.7980769,22 74.7403846,22 L72.1442308,22 C72.0865385,21.972028 72.0576923,21.972028 72.0288462,21.9440559" id="Fill-32" fill="#FFFFFF"></path>
                        <path d="M76.0310078,21.972028 C76,21.9440559 76,21.9160839 76,21.8881119 L76.8682171,18.1398601 C76.8682171,18.0839161 76.8992248,18.0559441 76.9302326,18.027972 C76.9612403,18 76.9922481,18 77.0542636,18 L79.875969,18 C79.9379845,18 79.9689922,18 79.9689922,18.027972 C80,18.0559441 80,18.0839161 80,18.1398601 L79.9069767,18.5314685 C79.9069767,18.5874126 79.875969,18.6153846 79.8449612,18.6433566 C79.8139535,18.6713287 79.7829457,18.6713287 79.7209302,18.6713287 L77.6434109,18.6713287 L77.3953488,19.6783217 L79.3488372,19.6783217 C79.4108527,19.6783217 79.4418605,19.6783217 79.4418605,19.7062937 C79.4728682,19.7342657 79.4728682,19.7622378 79.4728682,19.8181818 L79.379845,20.1818182 C79.379845,20.2377622 79.3488372,20.2657343 79.3178295,20.2937063 C79.2868217,20.3216783 79.2248062,20.3216783 79.1937984,20.3216783 L77.2403101,20.3216783 L76.9922481,21.3566434 L79.1317829,21.3566434 C79.1937984,21.3566434 79.2248062,21.3566434 79.2248062,21.3846154 C79.255814,21.4125874 79.255814,21.4405594 79.255814,21.4685315 L79.1627907,21.8601399 C79.1627907,21.9160839 79.1317829,21.9440559 79.1007752,21.972028 C79.0697674,22 79.0387597,22 78.9767442,22 L76.0930233,22 C76.0930233,22 76.0620155,22 76.0310078,21.972028" id="Fill-34" fill="#FFFFFF"></path>
                        <path d="M80.5669291,21.9055078 C80.3779528,21.8241431 80.2362205,21.7156568 80.1417323,21.5529273 C80.0472441,21.4173194 80,21.2545899 80,21.0647388 L80,20.9291309 C80,20.9020093 80.023622,20.8748877 80.0472441,20.8477661 C80.0708661,20.8206446 80.0944882,20.8206446 80.1181102,20.8206446 L80.5669291,20.8206446 C80.6141732,20.8206446 80.6377953,20.8206446 80.6377953,20.8477661 C80.6614173,20.8748877 80.6850394,20.9020093 80.6850394,20.9291309 C80.7086614,21.0647388 80.7559055,21.1461035 80.8503937,21.2545899 C80.9448819,21.3359546 81.0866142,21.3901978 81.2755906,21.3901978 C81.511811,21.3901978 81.6771654,21.3359546 81.8188976,21.2545899 C81.9606299,21.1732251 82.0314961,21.0376172 82.0551181,20.9020093 L82.0551181,20.8206446 C82.0551181,20.7392798 82.0314961,20.6579151 81.984252,20.6036719 C81.9370079,20.5494287 81.8425197,20.4951856 81.7480315,20.4409424 C81.6535433,20.3866992 81.488189,20.3324561 81.2992126,20.2782129 C80.992126,20.1968482 80.7795276,20.0612403 80.6141732,19.9256323 C80.4724409,19.7629028 80.4015748,19.5730518 80.4015748,19.3289575 C80.4015748,19.2204712 80.4015748,19.1391065 80.4251969,19.0577417 C80.496063,18.7322827 80.6377953,18.4610669 80.8740157,18.2712158 C81.1102362,18.0813647 81.4409449,18 81.8188976,18 C82.0551181,18 82.2677165,18.0542432 82.4566929,18.1356079 C82.6456693,18.2169727 82.7637795,18.3525806 82.8582677,18.4881885 C82.9527559,18.6237964 83,18.7865259 83,18.9221338 L83,19.0306201 C83,19.0577417 82.976378,19.0848633 82.9527559,19.1119849 C82.9291339,19.1391065 82.9055118,19.1391065 82.8818898,19.1391065 L82.4094488,19.1391065 C82.3385827,19.1391065 82.2913386,19.1119849 82.2913386,19.0306201 C82.2913386,18.9221338 82.2440945,18.8136475 82.1496063,18.7322827 C82.0551181,18.650918 81.9370079,18.5966748 81.7952756,18.5966748 C81.6062992,18.5966748 81.4645669,18.6237964 81.3464567,18.7051611 C81.2283465,18.7865259 81.1574803,18.8950122 81.1338583,19.0577417 L81.1338583,19.166228 C81.1338583,19.2747144 81.1811024,19.3560791 81.2992126,19.4374439 C81.3937008,19.5188086 81.5826772,19.5730518 81.8425197,19.6544165 C82.1968504,19.7357813 82.4330709,19.8713892 82.5984252,20.0069971 C82.7637795,20.142605 82.8346457,20.3595777 82.8346457,20.6036719 C82.8346457,20.6579151 82.8346457,20.7664014 82.8110236,20.8477661 C82.7401575,21.2003467 82.5748031,21.4986841 82.3149606,21.6885352 C82.0551181,21.8783863 81.7007874,21.959751 81.2755906,21.959751 C80.992126,22.0411158 80.7559055,21.9868726 80.5669291,21.9055078" id="Fill-36" fill="#FFFFFF"></path>
                        <path d="M86.7777778,21.3103448 C87.1037037,21.3103448 87.3703704,21.2275862 87.5481481,21.0896552 C87.7259259,20.9517241 87.8740741,20.7310345 87.9333333,20.4 C88.0222222,20.0965517 88.0814815,19.8206897 88.1407407,19.5448276 C88.1703704,19.4344828 88.1703704,19.3241379 88.1703704,19.2413793 C88.1703704,19.0206897 88.1111111,18.8827586 87.962963,18.7724138 C87.8148148,18.662069 87.6074074,18.6344828 87.3407407,18.6344828 L86.6,18.6344828 L85.9777778,21.2827586 L86.7777778,21.3103448 Z M85.0296296,21.9172414 C85,21.8896552 85,21.862069 85,21.8344828 L85.8296296,18.137931 C85.8296296,18.0827586 85.8592593,18.0551724 85.8888889,18.0275862 C85.9185185,18 85.9481481,18 86.0074074,18 L87.4,18 C87.8740741,18 88.2592593,18.1103448 88.5555556,18.3310345 C88.8518519,18.5517241 89,18.8551724 89,19.2413793 C89,19.3517241 89,19.462069 88.9703704,19.5724138 C88.9111111,19.9034483 88.8222222,20.2068966 88.762963,20.4551724 C88.6740741,20.8137931 88.5259259,21.1172414 88.3777778,21.337931 C88.2,21.5586207 87.9925926,21.7241379 87.7259259,21.8344828 C87.4592593,21.9448276 87.1037037,22 86.6888889,22 L85.0888889,22 C85.0888889,21.9448276 85.0592593,21.9448276 85.0296296,21.9172414 Z" id="Fill-38" fill="#FFFFFF"></path>
                        <path d="M90.0310053,21.972028 C90,21.9440559 90,21.9160839 90,21.8881119 L90.8681498,18.1398601 C90.8681498,18.0839161 90.8994652,18.0559441 90.9301605,18.027972 C90.9611658,18 90.9924812,18 91.0544919,18 L93.8756686,18 C93.9379893,18 93.9686846,18 93.9686846,18.027972 C94,18.0559441 94,18.0839161 94,18.1398601 L93.9066739,18.5314685 C93.9066739,18.5874126 93.8756686,18.6153846 93.8449733,18.6433566 C93.8136579,18.6713287 93.7829626,18.6713287 93.7206418,18.6713287 L91.6125882,18.6713287 L91.3645454,19.6783217 L93.3178823,19.6783217 C93.379893,19.6783217 93.4105883,19.6783217 93.4105883,19.7062937 C93.4415937,19.7342657 93.4415937,19.7622378 93.4415937,19.8181818 L93.3485776,20.1818182 C93.3485776,20.2377622 93.3178823,20.2657343 93.2865669,20.2937063 C93.2555616,20.3216783 93.1935509,20.3216783 93.1628556,20.3216783 L91.2095186,20.3216783 L90.9611658,21.3566434 L93.1005348,21.3566434 C93.1628556,21.3566434 93.1935509,21.3566434 93.1935509,21.3846154 C93.2248663,21.4125874 93.2248663,21.4405594 93.2248663,21.4685315 L93.1315402,21.8601399 C93.1315402,21.9160839 93.1005348,21.9440559 93.0698395,21.972028 C93.0385241,22 93.0078289,22 92.9455081,22 L90.0623208,22 C90.093016,22 90.0623208,22 90.0310053,21.972028" id="Fill-40" fill="#FFFFFF"></path>
                        <path d="M96.0288462,21.9440559 C96,21.9160839 96,21.8881119 96,21.8601399 L96.8365385,18.1118881 C96.8365385,18.0839161 96.8653846,18.027972 96.8942308,18.027972 C96.9233654,18 96.9519231,18 97.0096154,18 L97.5865385,18 C97.6153846,18 97.6445192,18 97.6730769,18.027972 C97.7019231,18.0559441 97.7019231,18.0839161 97.7019231,18.1398601 L97.0096154,21.3286713 L98.8846154,21.3286713 C98.9425962,21.3286713 98.9711538,21.3286713 98.9711538,21.3566434 C99,21.3846154 99,21.4125874 99,21.4405594 L98.9134615,21.8601399 C98.9134615,21.9160839 98.8846154,21.9440559 98.8557692,21.972028 C98.8269231,22 98.7983654,22 98.7403846,22 L96.1442308,22 C96.0865385,21.972028 96.0579808,21.972028 96.0288462,21.9440559" id="Fill-42" fill="#FFFFFF"></path>
                        <path d="M102.369231,21.1081081 C102.584615,20.972973 102.708,20.7297297 102.8,20.4324324 C102.892308,20.1081081 102.953846,19.8108108 103.015692,19.5405405 C103.046154,19.4324324 103.046154,19.3243243 103.046154,19.2432432 C103.046154,18.8378378 102.8,18.6216216 102.307692,18.6216216 C102.030769,18.6216216 101.753846,18.7027027 101.569231,18.8378378 C101.353846,18.972973 101.230769,19.2162162 101.138462,19.5135135 C101.046154,19.8378378 100.984615,20.1621622 100.923077,20.4054054 C100.892308,20.4864865 100.892308,20.5945946 100.892308,20.7027027 C100.892308,20.9189189 100.953846,21.0540541 101.076923,21.1621622 C101.2,21.2702703 101.384615,21.2972973 101.631077,21.2972973 C101.938769,21.3513514 102.184615,21.2702703 102.369231,21.1081081 M100.430769,21.6756757 C100.123077,21.4594595 100,21.1621622 100,20.7837838 C100,20.6486486 100,20.5405405 100.030769,20.4594595 C100.123077,20.0540541 100.184615,19.7567568 100.276923,19.5135135 C100.430769,19 100.676923,18.6216216 101.015692,18.3783784 C101.384615,18.1081081 101.846154,18 102.400308,18 C102.892308,18 103.261538,18.1081081 103.569231,18.3243243 C103.876923,18.5405405 104,18.8378378 104,19.2162162 C104,19.3243243 104,19.4324324 103.969231,19.5405405 C103.907692,19.8378378 103.846154,20.1621622 103.753846,20.4864865 C103.6,21 103.353846,21.3783784 103.015692,21.6216216 C102.646154,21.8648649 102.184615,22 101.631077,22 C101.107692,22 100.708,21.8918919 100.430769,21.6756757" id="Fill-44" fill="#FFFFFF"></path>
                        <path d="M104.033898,21.971831 C104,21.943662 104,21.915493 104,21.8873239 L104.983051,18.1126761 C104.983051,18.084507 105.016949,18.028169 105.050847,18.028169 C105.084746,18 105.118644,18 105.186441,18 L105.864407,18 C105.898305,18 105.932203,18 105.966102,18.028169 C106,18.056338 106,18.084507 106,18.1126761 L105.016949,21.8873239 C105.016949,21.915493 104.983051,21.971831 104.949153,21.971831 C104.915254,22 104.881356,22 104.813559,22 L104.135593,22 C104.101695,22 104.067797,22 104.033898,21.971831" id="Fill-46" fill="#FFFFFF"></path>
                        <path d="M106.566929,21.9055078 C106.377717,21.8241431 106.23622,21.7156568 106.141496,21.5529273 C106.047244,21.4173194 106,21.2545899 106,21.0647388 L106,20.9291309 C106,20.9020093 106.023386,20.8748877 106.047244,20.8477661 C106.07063,20.8206446 106.094488,20.8206446 106.11811,20.8206446 L106.566929,20.8206446 C106.613937,20.8206446 106.637795,20.8206446 106.637795,20.8477661 C106.661181,20.8748877 106.685039,20.9020093 106.685039,20.9291309 C106.708661,21.0647388 106.755906,21.1461035 106.850157,21.2545899 C106.944882,21.3359546 107.086378,21.3901978 107.275591,21.3901978 C107.511811,21.3901978 107.676929,21.3359546 107.818898,21.2545899 C107.960394,21.1732251 108.03126,21.0376172 108.055118,20.9020093 L108.055118,20.8206446 C108.055118,20.7392798 108.03126,20.6579151 107.984252,20.6036719 C107.937008,20.5494287 107.842283,20.4951856 107.748031,20.4409424 C107.653543,20.3866992 107.487953,20.3324561 107.299213,20.2782129 C106.992126,20.1968482 106.779291,20.0612403 106.613937,19.9256323 C106.472441,19.7629028 106.401575,19.5730518 106.401575,19.3289575 C106.401575,19.2204712 106.401575,19.1391065 106.424961,19.0577417 C106.495827,18.7322827 106.637795,18.4610669 106.874016,18.2712158 C107.110236,18.0813647 107.440709,18 107.818898,18 C108.055118,18 108.26748,18.0542432 108.456693,18.1356079 C108.645669,18.2169727 108.76378,18.3525806 108.858031,18.4881885 C108.952756,18.6237964 109,18.7865259 109,18.9221338 L109,19.0306201 C109,19.0577417 108.976142,19.0848633 108.952756,19.1119849 C108.929134,19.1391065 108.905276,19.1391065 108.88189,19.1391065 L108.409449,19.1391065 C108.338583,19.1391065 108.291339,19.1119849 108.291339,19.0306201 C108.291339,18.9221338 108.244094,18.8136475 108.14937,18.7322827 C108.055118,18.650918 107.937008,18.5966748 107.795039,18.5966748 C107.606063,18.5966748 107.464567,18.6237964 107.346457,18.7051611 C107.228346,18.7865259 107.15748,18.8950122 107.133622,19.0577417 L107.133622,19.166228 C107.133622,19.2747144 107.181102,19.3560791 107.299213,19.4374439 C107.393701,19.5188086 107.582677,19.5730518 107.842283,19.6544165 C108.196614,19.7357813 108.432835,19.8713892 108.598425,20.0069971 C108.76378,20.142605 108.834646,20.3595777 108.834646,20.6036719 C108.834646,20.6579151 108.834646,20.7664014 108.811024,20.8477661 C108.739921,21.2003467 108.574803,21.4986841 108.314724,21.6885352 C108.055118,21.8783863 107.700787,21.959751 107.275591,21.959751 C106.968268,22.0411158 106.755906,21.9868726 106.566929,21.9055078" id="Fill-48" fill="#FFFFFF"></path>
                        <path d="M110.033898,21.971831 C110,21.943662 110,21.915493 110,21.8873239 L110.983051,18.1126761 C110.983051,18.084507 111.016949,18.028169 111.050847,18.028169 C111.084746,18 111.118644,18 111.186441,18 L111.864407,18 C111.898305,18 111.932203,18 111.966102,18.028169 C112,18.056338 112,18.084507 112,18.1126761 L111.016949,21.8873239 C111.016949,21.915493 110.983051,21.971831 110.949153,21.971831 C110.915254,22 110.881356,22 110.813559,22 L110.135593,22 C110.101695,22 110.067797,22 110.033898,21.971831" id="Fill-50" fill="#FFFFFF"></path>
                        <path d="M115.195489,19.8461538 C115.43609,19.8461538 115.646617,19.7902098 115.766617,19.7062937 C115.887218,19.6223776 116.007519,19.4545455 116.067368,19.2587413 C116.067368,19.2027972 116.097744,19.1468531 116.097744,19.0909091 C116.097744,18.951049 116.037594,18.8391608 115.947368,18.7552448 C115.857143,18.6713287 115.676692,18.6433566 115.496241,18.6433566 L114.62406,18.6433566 L114.353383,19.8461538 L115.195489,19.8461538 Z M113.030075,21.972028 C113,21.9440559 113,21.9160839 113,21.8881119 L113.842105,18.1398601 C113.842105,18.0839161 113.87218,18.0559441 113.902256,18.027972 C113.932331,18 113.992481,18 114.022556,18 L115.616241,18 C116.067368,18 116.398496,18.0839161 116.639098,18.2517483 C116.879699,18.4195804 117,18.6433566 117,18.951049 C117,19.034965 117,19.1468531 116.969624,19.2587413 C116.909774,19.5384615 116.789474,19.7622378 116.609023,19.958042 C116.428571,20.1538462 116.18797,20.2937063 115.916992,20.3776224 L116.488722,21.8321678 L116.488722,21.8881119 C116.488722,21.9160839 116.458647,21.9440559 116.428571,21.972028 C116.398496,22 116.36812,22 116.338346,22 L115.766617,22 C115.706767,22 115.646617,21.972028 115.616241,21.9440559 C115.586466,21.9160839 115.556391,21.8881119 115.556391,21.8321678 L115.075188,20.4615385 L114.233083,20.4615385 L113.932331,21.8321678 C113.932331,21.8601399 113.902256,21.9160839 113.87218,21.9160839 C113.842105,21.9440559 113.781955,21.9440559 113.75188,21.9440559 L113.180451,21.9440559 C113.05985,22 113.030075,22 113.030075,21.972028 Z" id="Fill-52" fill="#FFFFFF"></path>
                        <path d="M117.566738,21.9055078 C117.377746,21.8241431 117.236239,21.7156568 117.141507,21.5529273 C117.047012,21.4173194 117,21.2545899 117,21.0647388 L117,20.9291309 C117,20.9020093 117.023388,20.8748877 117.047012,20.8477661 C117.070635,20.8206446 117.094259,20.8206446 117.11812,20.8206446 L117.566738,20.8206446 C117.613985,20.8206446 117.637609,20.8206446 117.637609,20.8477661 C117.661233,20.8748877 117.684857,20.9020093 117.684857,20.9291309 C117.708717,21.0647388 117.755729,21.1461035 117.850224,21.2545899 C117.944956,21.3359546 118.086464,21.3901978 118.275455,21.3901978 C118.511694,21.3901978 118.677061,21.3359546 118.818805,21.2545899 C118.960548,21.1732251 119.03142,21.0376172 119.055044,20.9020093 L119.055044,20.8206446 C119.055044,20.7392798 119.03142,20.6579151 118.984172,20.6036719 C118.936924,20.5494287 118.842429,20.4951856 118.747933,20.4409424 C118.653674,20.3866992 118.48807,20.3324561 118.299315,20.2782129 C117.991968,20.1968482 117.779353,20.0612403 117.613985,19.9256323 C117.472478,19.7629028 117.40137,19.5730518 117.40137,19.3289575 C117.40137,19.2204712 117.40137,19.1391065 117.424994,19.0577417 C117.495866,18.7322827 117.637609,18.4610669 117.873848,18.2712158 C118.110087,18.0813647 118.440822,18 118.818805,18 C119.055044,18 119.267659,18.0542432 119.45665,18.1356079 C119.645641,18.2169727 119.763761,18.3525806 119.858257,18.4881885 C119.952988,18.6237964 120,18.7865259 120,18.9221338 L120,19.0306201 C120,19.0577417 119.976376,19.0848633 119.952988,19.1119849 C119.929128,19.1391065 119.905504,19.1391065 119.88188,19.1391065 L119.409402,19.1391065 C119.338531,19.1391065 119.291283,19.1119849 119.291283,19.0306201 C119.291283,18.9221338 119.244271,18.8136475 119.149539,18.7322827 C119.055044,18.650918 118.936924,18.5966748 118.795181,18.5966748 C118.606189,18.5966748 118.464446,18.6237964 118.346326,18.7051611 C118.228207,18.7865259 118.157335,18.8950122 118.133711,19.0577417 L118.133711,19.166228 C118.133711,19.2747144 118.181195,19.3560791 118.299315,19.4374439 C118.417434,19.5188086 118.582566,19.5730518 118.842429,19.6544165 C119.196787,19.7357813 119.433026,19.8713892 119.59863,20.0069971 C119.763761,20.142605 119.834869,20.3595777 119.834869,20.6036719 C119.834869,20.6579151 119.834869,20.7664014 119.811009,20.8477661 C119.740137,21.2003467 119.57477,21.4986841 119.314907,21.6885352 C119.055044,21.8783863 118.700685,21.959751 118.275455,21.959751 C117.991968,22.0411158 117.755729,21.9868726 117.566738,21.9055078" id="Fill-54" fill="#FFFFFF"></path>
                        <path d="M27,3.98204596 C26.6125461,3.98204596 26.199262,4.00635866 25.7601476,4.10360946 C25.7601476,4.10360946 24.6752768,3.27697768 23.4870849,3.05816339 C23.1771218,3.00953799 22.7896679,2.98522529 22.3505535,3.00953799 C22.4797048,3.10678879 22.5830258,3.20403958 22.7121771,3.30129038 C23.099631,3.61735547 23.4612546,3.95773326 23.797048,4.29811105 C23.3837638,4.03067136 22.9446494,3.78754437 22.4797048,3.59304277 C22.2472325,3.49579198 22.0405904,3.37422848 21.8081181,3.27697768 C21.6789668,3.22835228 21.5756458,3.17972688 21.4464945,3.13110149 C20.9557196,3.20403958 20.4649446,3.34991578 20,3.49579198 C20.8265683,3.98204596 22.2472325,4.88161583 23.4870849,6 C24.0553506,5.56237141 25.501845,4.54123804 27,3.98204596" id="Fill-56" fill="#FFFFFF"></path>
                        <path d="M34.0849182,2.36144578 L33.3990166,3.85140562 L32.0557926,2.36144578 L34.0849182,2.36144578 Z M29.4550823,1.32128514 L32.4559019,4.04819277 L32.7988527,5.51004016 C33.1989619,5.76305221 34.0563389,6.35341365 34.9422952,7 L34.4850274,6.3253012 L34.6279236,6.10040161 C34.6279236,6.10040161 34.6850821,6.04417671 34.7422405,5.95983936 L34.2563936,5.31325301 L34.1992351,3.99196787 L35.1137706,1.91164659 L36.9714208,1.96787149 C36.9714208,1.96787149 37.0857377,1.63052209 36.8571038,1.40562249 L34.6279236,1.15261044 C34.6279236,1.15261044 34.0849182,1.01204819 33.7705466,1.34939759 L30.7983063,1.20883534 L29.9695085,0.590361446 L24.2536618,0 C24.2536618,0 23.8249733,0.281124498 24.0821864,0.899598394 L29.4550823,1.32128514 Z" id="Fill-58" fill="#FFFFFF"></path>
                        <path d="M30.7848675,16.2343081 C29.9690114,16.7464733 29.7079375,18.1293192 30.3932566,19 C30.1321826,17.9756697 30.3606224,17.2586384 30.7195991,16.8489063 C30.5564278,17.2586384 30.6216963,18.3597935 30.980673,18.7439174 C30.7848675,17.8220201 31.0459415,17.1305971 31.372284,16.9001228 C31.0785758,17.514721 31.372284,18.308577 31.6659922,18.5902679 C31.2743812,17.0025559 32.3186771,16.8745146 32.4165798,16.9513393 C32.4818483,17.0025559 32.579751,17.1049889 32.6123853,17.2842467 L32.579751,17.2842467 C32.3513113,17.2586384 32.1555058,17.4891128 32.1228716,17.7451953 C32.0902374,18.0268862 32.2534086,18.2573605 32.449214,18.2573605 C32.5144825,18.2573605 32.579751,18.2573605 32.6450195,18.206144 C32.579751,18.4878348 32.4818483,18.7695257 32.3839456,18.9743917 C33.2977044,18.1549275 33.0039962,16.9001228 32.710288,16.515999 C32.449214,16.1574833 31.6333579,15.7221429 30.7848675,16.2343081" id="Fill-60" fill="#FFFFFF"></path>
                        <path d="M20.2377388,15.3939394 L24.9767264,17 C27.3462203,16.969697 26.9795129,15.5151515 26.9795129,15.5151515 L21.7045683,13.8181818 L22.4943995,13 L20.4916131,13 C19.5607405,14.0909091 20.2377388,15.3939394 20.2377388,15.3939394" id="Fill-62" fill="#FFFFFF"></path>
                        <path d="M27.3524407,13.8933333 L27.7142267,14 C28.4377988,13.0666667 29.3561788,12.7466667 29.6901352,12.64 L29.7179649,12.64 L29.7736243,12.6133333 L29.8292837,12.6133333 C30.441537,12.2133333 31.1651091,11.9466667 31.9443406,11.8666667 C31.9443406,11.5733333 31.9721703,11.12 32,10.9866667 C30.441537,10.8 28.7995849,11.4933333 28.7717552,11.52 L28.6882661,11.5733333 L28.5769473,11.5733333 C26.9071655,11.4133333 25.7383183,10.4 25.3487025,10 L21.0350995,10.08 C20.9794401,10.4533333 20.9516104,11.0666667 21.2577371,11.68 L22.6770516,11.68 L24.6807898,11.68 L23.4562831,12.8266667 L27.3524407,13.8933333 Z" id="Fill-64" fill="#FFFFFF"></path>
                        <path d="M39,9.00045195 C39.1726619,9.24102627 39.3165468,9.54174417 39.4028777,9.87253386 C41.0143885,9.96274923 42.4532374,11.1956926 43,13 C42.971223,12.8496411 42.971223,12.6992821 42.9136691,12.5489232 C42.4820144,10.4438979 40.8129496,8.97038016 39,9.00045195" id="Fill-66" fill="#FFFFFF"></path>
                        <polygon id="Fill-68" fill="#FFFFFF" points="19 9 16.7438017 6.15068493 12 5 16.7438017 6.83561644 12.4049587 5.82191781 17.1487603 7.65753425 12.8099174 6.61643836"></polygon>
                        <path d="M31,5 L30.4654661,4 C30.4654661,4 29.8863877,4.10810811 30.0200212,4.64864865 L31,5 Z" id="Fill-70" fill="#FFFFFF"></path>
                        <path d="M13.5174432,12.2542848 C12.9646255,12.7616452 12.813857,14.1345028 13.2661624,15 C13.0902659,13.9852792 13.2410344,13.2988504 13.4923152,12.8511794 C13.3918028,13.2690057 13.442059,14.3434159 13.6682117,14.7313974 C13.5425713,13.8062108 13.7184679,13.119782 13.9194925,12.9108689 C13.743596,13.5376082 13.9194925,14.3135712 14.0953891,14.5821738 C13.8441083,13.0004031 14.5225665,12.8810242 14.5979507,12.9705584 C14.6482069,13.0302478 14.698463,13.119782 14.7235911,13.2988504 L14.698463,13.2988504 C14.5476945,13.2988504 14.4220541,13.4779188 14.3969261,13.7465213 C14.371798,14.0151239 14.4723103,14.2538817 14.6230788,14.2538817 C14.673335,14.2538817 14.698463,14.2538817 14.7487192,14.224037 C14.698463,14.4926396 14.6482069,14.7910869 14.5979507,15 C15.2010246,14.1941923 15,12.9705584 14.7989754,12.5527321 C14.5728226,12.1349059 14.0451329,11.7170797 13.5174432,12.2542848" id="Fill-72" fill="#FFFFFF"></path>
                        <path d="M21,16 L25.921875,17.3658537 C25.921875,17.3658537 25.8958333,17.5609756 26,18 L21,16 Z" id="Fill-74" fill="#FFFFFF"></path>
                        <path d="M18.8450704,12.3355049 C18.8169014,12.1270358 18.7605634,11.9446254 18.7042254,11.7361564 L19.0140845,11.7100977 C19.0422535,11.8925081 19.0704225,12.0488599 19.0704225,12.2312704 L18.8450704,12.3355049 Z M18.6197183,14.237785 C18.8169014,13.742671 18.9014085,13.2214984 18.8732394,12.7003257 L19.0704225,12.6742671 C19.0140845,13.2214984 18.8732394,13.742671 18.6197183,14.237785 Z M18.4507042,11.1368078 C18.4225352,11.0586319 18.3661972,11.0065147 18.3380282,10.9283388 L18.7605634,10.8762215 C18.7887324,10.9283388 18.7887324,10.9543974 18.8169014,11.0065147 C18.8450704,11.1107492 18.9014085,11.2149837 18.9295775,11.3192182 L18.6197183,11.4495114 C18.5633803,11.3452769 18.5070423,11.2410423 18.4507042,11.1368078 Z M18,12.7003257 C18,12.5439739 17.971831,12.3615635 17.943662,12.2052117 L17.943662,12.1791531 C17.943662,12.1530945 17.915493,12.1270358 17.915493,12.1009772 C17.915493,12.0749186 17.8873239,12.0228013 17.8873239,11.9967427 C17.8873239,11.9446254 17.8591549,11.8925081 17.8309859,11.8403909 L18.1408451,11.8143322 C18.1971831,12.0749186 18.2253521,12.3615635 18.1971831,12.6221498 L18,12.7003257 Z M17.7746479,14.3420195 C17.971831,13.8208469 18.056338,13.2996743 18.028169,12.7785016 L18.2253521,12.752443 C18.1690141,13.2996743 18.028169,13.8469055 17.7746479,14.3420195 Z M17.4647887,11.0325733 L17.8873239,10.980456 C17.915493,11.0325733 17.943662,11.0846906 17.943662,11.1368078 C18,11.3192182 18.056338,11.47557 18.1126761,11.6579805 L17.8309859,11.7882736 C17.7746479,11.6058632 17.6901408,11.4234528 17.6056338,11.267101 C17.5492958,11.1889251 17.4929577,11.1107492 17.4647887,11.0325733 Z M14.8732394,14.9413681 C13.7183099,14.9413681 12.7887324,13.9771987 12.7887324,12.7785016 C12.7887324,11.5798046 13.7183099,10.6156352 14.8732394,10.6156352 C16.028169,10.6156352 16.9577465,11.5798046 16.9577465,12.7785016 C16.9577465,13.9771987 16.028169,14.9413681 14.8732394,14.9413681 Z M20,12.257329 C19.971831,12.1270358 19.971831,12.0228013 19.943662,11.9185668 C19.3802817,9.13029316 16.7042254,9 16.7042254,9 C16.7042254,9 17.8873239,9.39087948 18.5633803,10.5114007 L18.1690141,10.6938111 C17.971831,10.4071661 17.7183099,10.1726384 17.4647887,9.96416938 C17.2957746,9.83387622 17.1267606,9.72964169 16.9295775,9.62540717 L17.0140845,9.70358306 C17.3802817,10.0423453 17.6338028,10.4332248 17.8591549,10.8501629 L17.4366197,11.0065147 C17.2112676,10.6416938 16.9295775,10.3289902 16.5915493,10.0944625 C16.1690141,9.78175896 15.6901408,9.5732899 15.1830986,9.46905537 C15.0704225,9.44299674 14.9295775,9.44299674 14.7887324,9.41693811 L14.5352113,9.41693811 L14.4507042,9.41693811 C14.3380282,9.44299674 14.1971831,9.44299674 14.084507,9.46905537 L13.8873239,9.52117264 L13.8028169,9.54723127 L13.7183099,9.5732899 C13.2394366,9.72964169 12.8169014,9.96416938 12.4788732,10.3029316 C12.028169,10.7459283 11.7183099,11.3452769 11.5774648,11.9446254 C11.5492958,12.1791531 11.5211268,12.3876221 11.5211268,12.6221498 C11.5211268,13.1693811 11.6056338,13.6644951 11.7746479,14.1335505 L8.90140845,13.5602606 L10.7042254,14.3420195 L6.08450704,13.3257329 L10.6197183,14.8631922 L4,13.3257329 L14.5352113,16.8175896 C14.5352113,16.8175896 14.5633803,16.8175896 14.5915493,16.8436482 C14.9577465,16.9478827 15.3521127,17 15.7746479,17 C17.4647887,17 18.9295775,15.9837134 19.6056338,14.4983713 C19.4366197,13.8990228 19.3802817,13.0390879 20,12.257329 Z" id="Fill-76" fill="#FFFFFF"></path>
                        <path d="M38.6592518,16.575419 C38.413549,16.4916201 38.1678463,16.3519553 37.9767442,16.1564246 C37.7856421,15.9608939 37.5945399,15.7374302 37.4853387,15.4860335 L38.0859454,15.4022346 C38.140546,15.5698324 38.1951466,15.7374302 38.3043478,15.877095 C38.5500506,16.2681564 38.9595551,16.575419 39.4509606,16.6312849 C39.1779575,16.6871508 38.9049545,16.6592179 38.6592518,16.575419 Z M35.7381193,17.1061453 C35.710819,16.8547486 35.6562184,16.603352 35.5743175,16.3519553 L35.9292214,16.3240223 C35.9565217,16.547486 35.983822,16.7709497 36.0111223,16.9944134 L35.7381193,17.1061453 Z M35.4924166,19.4804469 C35.710819,18.8379888 35.7927199,18.1955307 35.7654196,17.5251397 L35.983822,17.4972067 C35.9565217,18.1955307 35.7927199,18.8659218 35.4924166,19.4804469 Z M35.3013145,15.5698324 C35.2467139,15.4860335 35.2194135,15.4022346 35.1648129,15.3184358 L35.6562184,15.2625698 C35.6835187,15.3184358 35.710819,15.3743017 35.710819,15.4022346 C35.7654196,15.5418994 35.7927199,15.6536313 35.8200202,15.7932961 L35.4651163,15.9608939 C35.4105157,15.8212291 35.3559151,15.7094972 35.3013145,15.5698324 Z M34.7826087,17.5530726 C34.7553084,17.3575419 34.7553084,17.1340782 34.7007078,16.9385475 L34.7007078,16.9106145 C34.7007078,16.8826816 34.6734075,16.8268156 34.6734075,16.7988827 C34.6734075,16.7430168 34.6461072,16.7150838 34.6461072,16.6592179 C34.6188069,16.603352 34.6188069,16.547486 34.5915066,16.4636872 L34.9464105,16.4357542 C35.0010111,16.7709497 35.0283114,17.1061453 35.0283114,17.4692737 L34.7826087,17.5530726 Z M34.536906,19.6201117 C34.7553084,18.9776536 34.8645096,18.3072626 34.809909,17.6368715 L35.0283114,17.6089385 C35.0010111,18.3072626 34.809909,19.0055866 34.536906,19.6201117 Z M34.1547017,15.4301676 L34.6461072,15.3743017 C34.6734075,15.4301676 34.7007078,15.5139665 34.7280081,15.5698324 C34.809909,15.7932961 34.8645096,16.0167598 34.9191102,16.2402235 L34.5915066,16.4078212 C34.5096057,16.1843575 34.4550051,15.9608939 34.3458038,15.7374302 C34.2639029,15.6256983 34.2093023,15.5418994 34.1547017,15.4301676 Z M31.206269,20.3743017 C29.8958544,20.3743017 28.8311426,19.1452514 28.8311426,17.6648045 C28.8311426,16.1843575 29.8958544,14.9553073 31.206269,14.9553073 C32.5166835,14.9553073 33.5813953,16.1843575 33.5813953,17.6648045 C33.5813953,19.1452514 32.5166835,20.3743017 31.206269,20.3743017 Z M39.9150657,9.84357542 C39.8877654,10.3463687 39.7785642,11.2681564 39.5055612,12.1340782 L41.0889788,14.1452514 L36.5298281,14.8156425 C36.5298281,14.7877095 36.5025278,14.7877095 36.5025278,14.7597765 C36.4479272,14.6480447 36.3933266,14.5642458 36.338726,14.452514 L36.3114257,14.424581 C36.2568251,14.3128492 36.1749242,14.2011173 36.0930233,14.0893855 C36.0930233,14.0893855 36.0930233,14.0614525 36.065723,14.0614525 L39.5328615,13.5586592 L38.5500506,12.301676 L38.6319515,12.0782123 C39.041456,10.9329609 39.0687563,9.98324022 39.0687563,9.59217877 C38.7957533,9.00558659 37.5945399,6.40782123 36.0930233,4.9273743 C35.6016178,5.15083799 35.1921132,5.59776536 34.9464105,5.90502793 L37.7310415,10.1787709 C37.7037412,10.1787709 37.7037412,10.2067039 37.6764408,10.2067039 L35.7927199,8.6424581 C34.4004044,7.4972067 31.7249747,5.62569832 31.7249747,5.62569832 C31.7249747,5.62569832 30.851365,5.01117318 30.4964611,4.75977654 C30.3053589,4.64804469 30.0869565,4.50837989 29.8412538,4.42458101 C27.7391304,4.36871508 24.4357937,7.18994413 24.4084934,7.21787709 L24.1354904,7.46927374 L23.8624874,7.21787709 C22.2790698,5.59776536 20.2861476,4.34078212 19.5763397,3.92178771 C19.2760364,4.08938547 19.0030334,4.2849162 18.7573306,4.48044693 C18.7573306,4.48044693 17.3923155,3.44692737 16,3 L20.8048534,9.20111732 L25.3367037,9.11731844 C25.5824065,8.83798883 25.8281092,8.58659218 26.1011122,8.33519553 C26.4014156,8.05586592 26.7290192,7.77653631 27.0839232,7.52513966 C27.4388271,7.27374302 27.793731,7.05027933 28.1759353,6.82681564 C28.5581395,6.63128492 28.9676441,6.46368715 29.3771486,6.32402235 L29.5409505,6.26815642 L29.677452,6.37988827 C30.0869565,6.68715084 30.4964611,6.99441341 30.8786653,7.27374302 C31.2881699,7.58100559 31.6703741,7.88826816 32.0525784,8.19553073 C32.8442872,8.83798883 33.6086957,9.48044693 34.3185035,10.1787709 C33.4994944,9.59217877 32.6804853,9.03351955 31.8068756,8.53072626 C31.3700708,8.27932961 30.9605662,8.02793296 30.5237614,7.77653631 C30.1415571,7.55307263 29.7593529,7.3575419 29.4044489,7.13407821 C29.4590495,7.18994413 29.5136502,7.21787709 29.5682508,7.27374302 C29.7866532,7.44134078 29.9777553,7.63687151 30.1961577,7.80446927 C30.6056623,8.16759777 30.9878665,8.55865922 31.3427705,8.94972067 C30.9059656,8.6424581 30.4418605,8.36312849 29.950455,8.1396648 C29.7047523,8.02793296 29.4863498,7.88826816 29.2406471,7.77653631 C29.0222447,7.66480447 28.776542,7.55307263 28.5581395,7.46927374 C28.5308392,7.46927374 28.5035389,7.4972067 28.4762386,7.4972067 C28.148635,7.69273743 27.793731,7.88826816 27.4934277,8.11173184 C27.1658241,8.33519553 26.8655207,8.61452514 26.5925177,8.86592179 C26.4014156,9.06145251 26.2103134,9.25698324 26.0192113,9.45251397 C26.4014156,9.84357542 27.2750253,10.5418994 28.421638,10.6815642 C28.8857432,10.4860335 30.7148635,9.7877095 32.380182,10.2067039 L32.8442872,10.3184358 L32.8442872,10.3463687 C32.8169869,10.4301676 32.6258847,10.9329609 32.5712841,11.7988827 C32.8988878,11.9385475 33.281092,12.0502793 33.6632963,12.1620112 C34.0728008,12.273743 34.4823054,12.3575419 34.9191102,12.4413408 C35.2467139,12.4972067 35.5470172,12.5251397 35.8746208,12.5530726 C35.8473205,12.6368715 35.8200202,12.7206704 35.7927199,12.8044693 C35.1375126,12.8603352 34.2912032,12.8882682 33.2537917,12.8324022 C33.2537917,12.8324022 34.5642063,13.3631285 35.2467139,14.5083799 C35.3013145,14.5921788 35.3286148,14.6759777 35.3832154,14.7597765 L34.9737108,14.9832402 C34.7280081,14.6201117 34.4823054,14.3128492 34.1547017,14.0614525 C33.9635996,13.8938547 33.7451972,13.7541899 33.5267947,13.6424581 C33.554095,13.6703911 33.5813953,13.698324 33.6086957,13.726257 C34.0182002,14.1452514 34.3185035,14.6480447 34.5642063,15.1787709 L34.1274014,15.4022346 C33.8816987,14.9553073 33.554095,14.5642458 33.1718908,14.2290503 C32.7077856,13.8379888 32.1344793,13.5586592 31.5611729,13.4469274 C31.4246714,13.4189944 31.2608696,13.4189944 31.124368,13.3910615 L30.8240647,13.3910615 L30.7967644,13.3910615 L30.6875632,13.3910615 C30.5510617,13.4189944 30.3872599,13.4189944 30.2507583,13.4469274 L30.0323559,13.5027933 L29.9231547,13.5307263 L29.8139535,13.5586592 C29.2679474,13.7541899 28.776542,14.0614525 28.3943377,14.4804469 C27.875632,15.0670391 27.520728,15.7932961 27.3842265,16.547486 C27.3569262,16.8268156 27.3296259,17.1061453 27.3296259,17.4134078 C27.3296259,18.0837989 27.4388271,18.726257 27.6299292,19.3407821 L24.3811931,18.6703911 L26.4560162,19.6759777 L21.1870576,18.3351955 L26.3741153,20.2625698 L18.8119312,18.3351955 L30.851365,22.7486034 C30.851365,22.7486034 30.8786653,22.7486034 30.9332659,22.7765363 C31.3700708,22.9162011 31.8068756,23 32.2709808,23 C34.9464105,23 37.1304348,20.5139665 37.1304348,17.4692737 L37.1304348,17.1620112 C37.7583418,17.6927374 38.5227503,18.027933 39.3690597,18.027933 C41.3619818,18.027933 43,16.1843575 43,13.9217877 C42.9726997,11.8547486 41.6622851,10.150838 39.9150657,9.84357542 Z" id="Fill-78" fill="#FFFFFF"></path>
                        <g id="Group-82" transform="translate(0.000000, 8.000000)">
                            <mask id="mask-4" fill="white">
                                <use xlink:href="#path-3"></use>
                            </mask>
                            <g id="Clip-81"></g>
                            <path d="M9.51422857,4.77148571 L4.08565714,3.51434286 L10.9142286,5.94291429 C10.8856571,5.80005714 10.8856571,5.68577143 10.8856571,5.54291429 L10.8856571,5.4572 L10.8856571,5.37148571 L10.8856571,5.34291429 L10.8856571,5.31434286 C10.8856571,5.0572 10.9142286,4.80005714 10.9428,4.57148571 C11.0570857,3.91434286 11.3713714,3.28577143 11.8570857,2.77148571 C11.8856571,2.74291429 11.9428,2.68577143 11.9713714,2.6572 L2.05708571,0.228628571 L10.0285143,3.00005714 L-5.71428571e-05,0.4572 L9.79994286,3.94291429 L1.7428,2.00005714 L9.51422857,4.77148571 Z" id="Fill-80" fill="#FFFFFF" mask="url(#mask-4)"></path>
                        </g>
                    </g>
                </g>
            </g>
        </g>
    </g>
</svg>