<?xml version="1.0" encoding="UTF-8"?>
<svg width="92px" height="48px" viewBox="0 0 92 48" version="1.1" xmlns="http://www.w3.org/2000/svg" xmlns:xlink="http://www.w3.org/1999/xlink">
    <!-- Generator: Sketch 50.2 (55047) - http://www.bohemiancoding.com/sketch -->
    <title>Logo_GroupeEssa</title>
    <desc>Created with Sketch.</desc>
    <defs>
        <polygon id="path-1" points="0 0.447333333 5.874 0.447333333 5.874 7.8652 0 7.8652"></polygon>
        <polygon id="path-3" points="0 48 92 48 92 1 0 1"></polygon>
    </defs>
    <g id="Konnexion-Site" stroke="none" stroke-width="1" fill="none" fill-rule="evenodd">
        <g id="Clients-(960)" transform="translate(-271.000000, -385.000000)">
            <g id="Clients" transform="translate(271.000000, 117.000000)">
                <g id="Logos" transform="translate(0.000000, 178.000000)">
                    <g id="Logo_GroupeEssa" transform="translate(0.000000, 90.000000)">
                        <path d="M8.53209973,47 L6.92468493,46.9981253 C4.80458742,46.9981253 3.10636536,46.456972 1.8785754,45.392787 C0.649524222,44.3254776 0,42.8432423 0,41.1048027 L0.0170263631,40 C0.273052416,40.2999464 0.567545437,40.5786467 0.906811486,40.8273523 C2.15541145,41.7353151 3.89840654,42.1958579 6.08850132,42.1958579 L67,42.1958579 L67,47 L8.53209973,47 Z" id="Fill-1" fill="#FEFEFE"></path>
                        <g id="Group-5">
                            <mask id="mask-2" fill="white">
                                <use xlink:href="#path-1"></use>
                            </mask>
                            <g id="Clip-4"></g>
                            <path d="M5.8566,7.2752 C5.1378,7.68386667 4.3422,7.8652 3.3846,7.8652 C1.2138,7.8652 0,6.5472 0,4.25586667 C0,1.8832 1.2408,0.4472 3.348,0.4472 C4.9254,0.4472 5.874,1.33386667 5.874,2.64986667 L5.874,2.78053333 L4.5894,2.78053333 C4.5534,1.8932 4.0932,1.42453333 3.2694,1.42453333 C2.127,1.42453333 1.3914,2.4612 1.3914,4.20586667 C1.3914,5.88986667 2.109,6.77786667 3.4812,6.77786667 C3.801,6.77786667 4.1556,6.7372 4.5276,6.62853333 L4.5276,5.0632 L3.3132,5.0632 L3.3132,3.9172 L5.8566,3.9172 L5.8566,7.2752 Z" id="Fill-3" fill="#FEFEFE" mask="url(#mask-2)"></path>
                        </g>
                        <path d="M15.1038992,4.04421326 C16.0085994,4.04421326 16.3991047,3.85890767 16.3991047,3.08062419 C16.3991047,2.22561769 15.9985864,2.07997399 15.1038992,2.07997399 L14.3128755,2.07997399 L14.3128755,4.04421326 L15.1038992,4.04421326 Z M13,1 L15.5992461,1 C17.0340441,1 17.7214042,1.53576073 17.7214042,2.76007802 C17.7214042,3.75227568 17.3550477,4.26788036 16.5033573,4.49154746 C17.2254683,4.57737321 17.4681352,4.9473342 17.5653198,5.81469441 L17.6778184,6.82379714 C17.7390741,7.34915475 17.8339027,7.73862159 18,8 L16.5475321,8 C16.4332666,7.75747724 16.3991047,7.47529259 16.3731888,7.1443433 L16.2866062,6.08517555 C16.2165155,5.26853056 16.1723407,5.18140442 15.4690776,5.18140442 L14.3128755,5.18140442 L14.3128755,8 L13,8 L13,1 Z" id="Fill-6" fill="#FEFEFE"></path>
                        <path d="M27.9958588,6.99072991 C29.0347072,6.99072991 29.5943601,6.13329133 29.5943601,4.46566466 C29.5943601,2.82827828 29.0175508,1.97902979 27.9958588,1.97902979 C26.9836324,1.97902979 26.4068231,2.82827828 26.4068231,4.46566466 C26.4068231,6.13329133 26.966476,6.99072991 27.9958588,6.99072991 M28.0053244,1 C29.8475646,1 31,2.30852309 31,4.45684457 C31,6.6795068 29.8730034,8 28.0053244,8 C26.1275882,8 25,6.6795068 25,4.45684457 C25,2.30852309 26.161901,1 28.0053244,1" id="Fill-8" fill="#FEFEFE"></path>
                        <path d="M40.4840478,1 L40.4840478,5.34626292 C40.4840478,6.37151221 41.0010964,6.8697283 42.0476921,6.8697283 C43.0969192,6.8697283 43.5633154,6.36318727 43.5633154,5.28030372 L43.5633154,1 L45,1 L45,5.24252127 C45,7.09898454 44.0205021,8 42.0016446,8 C39.9623945,8 39,7.11883634 39,5.24252127 L39,1 L40.4840478,1 Z" id="Fill-10" fill="#FEFEFE"></path>
                        <path d="M53.173095,4.12093628 C54.0856068,4.12093628 54.4914662,3.87776333 54.4914662,3.13849155 C54.4914662,2.40962289 54.0768714,2.16579974 53.173095,2.16579974 L52.44873,2.16579974 L52.44873,4.12093628 L53.173095,4.12093628 Z M51,1 L53.1132912,1 C55.0975675,1 56,1.60338101 56,3.12938882 C56,4.55851756 55.1573713,5.29843953 53.5097433,5.29843953 L52.44873,5.29843953 L52.44873,8 L51,8 L51,1 Z" id="Fill-12" fill="#FEFEFE"></path>
                        <polygon id="Fill-14" fill="#FEFEFE" points="63 1 67.8871191 1 67.8871191 2.1579974 64.5948753 2.1579974 64.5948753 3.81014304 67.683518 3.81014304 67.683518 4.94668401 64.5948753 4.94668401 64.5948753 6.83289987 68 6.83289987 68 8 63 8"></polygon>
                        <path d="M86.3025271,18.9170795 L86.3025271,22.5283128 L75.6968403,22.5283128 L75.6968403,18.9170795 C75.6968403,17.9500205 76.0257773,16.6662639 78.8685517,16.6662639 L83.1295506,16.6662639 C85.9735902,16.6662639 86.3025271,17.9500205 86.3025271,18.9170795 M89.1155707,13.6149068 C87.8826897,12.5435387 86.1791758,12 84.0512066,12 L77.9494259,12 C75.8208242,12 74.1166777,12.5435387 72.8850618,13.6149068 C71.6509156,14.6875317 71,16.1780216 71,17.9255142 L71,38 L75.6968403,38 L75.6968403,27.1461923 L86.3025271,27.1461923 L86.3025271,38 L91,38 L91,17.9255142 C91,16.1780216 90.3478192,14.6875317 89.1155707,13.6149068" id="Fill-16" fill="#FEFEFE"></path>
                        <path d="M1.88632698,13.6147507 C0.652180789,14.6866436 0,16.1769894 0,17.9230565 L0,32.0210241 C0,34.0542278 0.697725907,35.5590247 2.13429484,36.6252628 C3.38805073,37.5375655 5.13774235,38 7.33592687,38 L20,38 L20,33.3360721 L7.94003226,33.3360721 C5.05550811,33.3360721 4.72277572,32.0210241 4.72277572,31.0352094 L4.72277572,27.142215 L19.1662713,27.142215 L19.1662713,22.5272951 L4.72277572,22.5272951 L4.72277572,18.9138977 C4.72277572,17.9475605 5.05171269,16.6632996 7.89575229,16.6632996 L20,16.6632996 L20,12 L6.94942594,12 C4.82208938,12 3.11857545,12.5416012 1.88632698,13.6147507" id="Fill-18" fill="#FEFEFE"></path>
                        <path d="M26.3587333,13.1989269 C24.7928088,14.3299901 24,15.8745197 24,17.7891582 L24,21.6429417 C24,23.3948329 24.7375409,24.7979796 26.1935648,25.8121662 C27.4793381,26.703821 29.1316584,27.1556179 31.1098688,27.1556179 L35.9670934,27.1556179 L36.0477718,27.1480774 C38.8696122,27.1600164 39.1980434,28.4381178 39.1980434,29.3988931 L39.1980434,31.07538 C39.1980434,32.042439 38.8677064,33.3255673 36.009656,33.3255673 L24.6778261,33.3337361 L24.0431979,33.3375063 L24.0431979,38 L36.7827717,38 C38.9509259,38 40.6979005,37.5004471 41.9760506,36.5170505 C43.2904107,35.5009788 43.9561668,34.0356237 43.9561668,32.1605723 L43.9561668,28.1748314 C43.9561668,26.3833531 43.3050218,24.9688958 42.0192485,23.9710467 C40.7734968,23.0014742 39.1059302,22.5100901 37.0629228,22.5100901 L32.5093543,22.5100901 L32.5093543,22.5069483 L32.1644062,22.5069483 L32.1644062,22.5100901 L31.9966966,22.5100901 L31.9153829,22.5176306 C29.0935425,22.5056916 28.7657466,21.2288469 28.7657466,20.2668149 L28.7657466,18.9239916 C28.7657466,17.957561 29.0960836,16.6731759 31.9534987,16.6731759 L44,16.6662639 L44,12 L31.0222025,12 C29.0134993,12 27.4443986,12.4046693 26.3587333,13.1989269" id="Fill-20" fill="#FEFEFE"></path>
                        <path d="M50.3592936,13.1989269 C48.7927836,14.3299901 48,15.8745197 48,17.7891582 L48,21.6429417 C48,23.3948329 48.7381527,24.7979796 50.1947656,25.8121662 C51.4792275,26.703821 53.1321306,27.1556179 55.1083725,27.1556179 L59.9667133,27.1556179 L60.0480244,27.1480774 C62.8697751,27.1600164 63.1975607,28.4381178 63.1975607,29.3988931 L63.1975607,31.07538 C63.1975607,32.042439 62.8672342,33.3255673 60.0099098,33.3255673 L48.6778046,33.3337361 L48.0431965,33.3375063 L48.0431965,38 L60.7830009,38 C62.950451,38 64.6980053,37.5004471 65.9761149,36.5170505 C67.2904332,35.5009788 67.9561682,34.0356237 67.9561682,32.1605723 L67.9561682,28.1748314 C67.9561682,26.3833531 67.3050438,24.9688958 66.0193114,23.9710467 C64.772964,23.0014742 63.1054504,22.5100901 61.0625079,22.5100901 L55.9970779,22.5100901 L55.9151315,22.5176306 C53.0933808,22.5056916 52.7662305,21.2288469 52.7662305,20.2668149 L52.7662305,18.9239916 C52.7662305,17.957561 53.096557,16.6731759 55.9532461,16.6731759 L68,16.6662639 L68,12 L55.0226147,12 C53.0139754,12 51.4449244,12.4046693 50.3592936,13.1989269" id="Fill-22" fill="#FEFEFE"></path>
                        <mask id="mask-4" fill="white">
                            <use xlink:href="#path-3"></use>
                        </mask>
                        <g id="Clip-25"></g>
                        <polygon id="Fill-24" fill="#FEFEFE" mask="url(#mask-4)" points="69 47 70 47 70 46 69 46"></polygon>
                        <path d="M73.0917703,48 C71.8271166,48 71,47.0499596 71,45.4333423 C71,43.914355 71.8271166,43 73.1853168,43 C74.2735346,43 74.9798697,43.6571506 75,44.7405063 L73.7152161,44.7405063 C73.6595619,44.1412604 73.473653,43.8847293 73.0834813,43.8847293 C72.6169331,43.8847293 72.4049734,44.3897118 72.4049734,45.4050633 C72.4049734,46.499192 72.580225,47.0210073 73.1101243,47.0210073 C73.4837182,47.0210073 73.6885731,46.7079181 73.7240971,46.0810665 L75,46.0810665 C75,47.2970644 74.2907046,48 73.0917703,48" id="Fill-26" fill="#FEFEFE" mask="url(#mask-4)"></path>
                        <path d="M79.4963199,47.068139 C80.1900147,47.068139 80.5659961,46.5368974 80.5659961,45.4905737 C80.5659961,44.4449232 80.1900147,43.9136817 79.4963199,43.9136817 C78.8026251,43.9136817 78.4254171,44.4449232 78.4254171,45.4905737 C78.4254171,46.5368974 78.8026251,47.068139 79.4963199,47.068139 M79.4963199,43 C80.9971786,43 82,43.9695664 82,45.5006733 C82,47.0297603 80.9971786,48 79.4963199,48 C78.002208,48 77,47.0210073 77,45.5006733 C77,43.979666 78.002208,43 79.4963199,43" id="Fill-27" fill="#FEFEFE" mask="url(#mask-4)"></path>
                        <path d="M84.0405699,44.0513986 C84.0405699,43.7496211 84.0302664,43.4375086 84,43.1178173 L85.4057796,43.1178173 L85.4469935,43.8467686 C85.8333736,43.2521703 86.3427513,43 87.0994124,43 C87.8728165,43 88.4137487,43.3314042 88.6584561,43.9535621 C88.9939628,43.2914427 89.5123561,43 90.330194,43 C91.4693713,43 92,43.613201 92,44.8588949 L92,48 L90.523384,48 L90.523384,45.052501 C90.523384,44.3621331 90.3082991,44.0314179 89.6875151,44.0314179 C89.12662,44.0314179 88.7505433,44.4014055 88.7505433,44.9946259 L88.7505433,48 L87.2719955,48 L87.2719955,45.052501 C87.2719955,44.3621331 87.0569106,44.0314179 86.447074,44.0314179 C85.8855349,44.0314179 85.5178298,44.4014055 85.5178298,44.9946259 L85.5178298,48 L84.0405699,48 L84.0405699,44.0513986 Z" id="Fill-28" fill="#FEFEFE" mask="url(#mask-4)"></path>
                    </g>
                </g>
            </g>
        </g>
    </g>
</svg>