<?xml version="1.0" encoding="UTF-8"?>
<svg width="160px" height="14px" viewBox="0 0 160 14" version="1.1" xmlns="http://www.w3.org/2000/svg" xmlns:xlink="http://www.w3.org/1999/xlink">
    <!-- Generator: Sketch 50.2 (55047) - http://www.bohemiancoding.com/sketch -->
    <title>Logo_X-Reload</title>
    <desc>Created with Sketch.</desc>
    <defs>
        <polygon id="path-1" points="0.181538462 0.00799555556 20.5621538 0.00799555556 20.5621538 13.0665733 0.181538462 13.0665733"></polygon>
        <polygon id="path-3" points="0.153046154 0.0056 2.8432 0.0056 2.8432 1.44663556 0.153046154 1.44663556"></polygon>
        <polygon id="path-5" points="0 0.0848711111 17.3854462 0.0848711111 17.3854462 0.610648889 0 0.610648889"></polygon>
    </defs>
    <g id="Konnexion-Site" stroke="none" stroke-width="1" fill="none" fill-rule="evenodd">
        <g id="Clients-(960)" transform="translate(-681.000000, -311.000000)">
            <g id="Clients" transform="translate(271.000000, 117.000000)">
                <g id="Logos" transform="translate(0.000000, 178.000000)">
                    <g id="Logo_X-Reload" transform="translate(410.000000, 16.000000)">
                        <polygon id="Fill-1" fill="#FEFEFE" points="70.1453596 1 67 14 84.8531039 14 85.6555009 10.691078 73.5113706 10.691078 73.8862938 9.14191781 79.3869084 9.14191781 80.1896128 5.83237641 74.6880762 5.83237641 75.0559312 4.30923169 87.1997541 4.30923169 88 1"></polygon>
                        <polygon id="Fill-2" fill="#FEFEFE" points="89.1126925 1 86 14 99.2108496 14 100 10.7045773 92.4170704 10.7045773 94.7403097 1"></polygon>
                        <path d="M129.084921,1 L120,14 L126.146739,14 L127.421582,12.2368936 L132.443619,12.2368936 L132.883471,14 L139,14 L136.118612,1 L129.084921,1 Z M131.25729,5.77351509 L132.076271,8.92078877 L129.009095,8.92078877 L131.25729,5.77351509 Z" id="Fill-3" fill="#FEFEFE"></path>
                        <g id="Group-71">
                            <g id="Group-6" transform="translate(139.384615, 0.933333)">
                                <mask id="mask-2" fill="white">
                                    <use xlink:href="#path-1"></use>
                                </mask>
                                <g id="Clip-5"></g>
                                <path d="M14.5036923,4.22884 C14.5981538,3.83217333 14.4747692,3.59572889 14.1476923,3.46350667 C13.956,3.38417333 13.6064615,3.33190667 13.0646154,3.33190667 L8.21846154,3.33190667 L6.67107692,9.74297333 L11.5193846,9.74297333 C12.6329231,9.74297333 13.2424615,9.45270667 13.3849231,8.87124 L14.5036923,4.22884 Z M17.5412308,12.0903067 C16.9243077,12.5383067 16.0332308,12.8571956 14.888,12.9887956 C14.3649231,13.0407511 13.4843077,13.0665733 12.312,13.0665733 L0.181538462,13.0665733 L3.33230769,0.00799555556 L15.4612308,0.00799555556 C16.5747692,0.00799555556 17.4963077,0.0599511111 18.1689231,0.139284444 C19.2218462,0.271195556 19.9036923,0.562395556 20.2473846,1.00977333 C20.5898462,1.45839556 20.6578462,2.17084 20.4276923,3.12035111 L18.78,9.95235111 C18.5458462,10.9307956 18.1316923,11.6429289 17.5412308,12.0903067 Z" id="Fill-4" fill="#FEFEFE" mask="url(#mask-2)"></path>
                            </g>
                            <polygon id="Fill-7" fill="#FEFEFE" points="33.0752 10.5674178 33.3019692 11.3143956 34.1841231 11.6743511 33.7096615 11.1087511"></polygon>
                            <path d="M31.5836,10.3778267 C31.5534462,10.4985378 32.3008308,11.4384044 32.3008308,11.4384044 L32.6839077,10.6428933 C32.6839077,10.6428933 31.6189846,10.2266267 31.5836,10.3778267" id="Fill-9" fill="#FEFEFE"></path>
                            <path d="M24.8720615,3.68424 L22.5683692,0.961395556 L14.4277538,0.961395556 L18.5782154,6.09535111 L18.6203692,5.98241778 L19.9219077,5.60846222 L20.9757538,4.86117333 L21.1671385,6.35295111 L22.0640615,5.42117333 L22.4714462,6.35295111 L23.4009846,5.98241778 L23.9631385,6.72690667 L25.2502154,6.44690667 C25.2502154,6.44690667 26.2268308,6.16939556 26.4126769,6.16939556 C26.6003692,6.16939556 27.7631385,6.25992889 27.7631385,6.25992889 L29.1431385,5.79544 L29.9785231,5.55588444 L29.9569846,5.57517333 L34.0612923,5.25939556 L31.3923692,4.99370667 L36.5994462,0.961395556 L28.4914462,0.961395556 L24.8720615,3.68424 Z" id="Fill-11" fill="#FEFEFE"></path>
                            <path d="M33.6322769,9.43568889 L29.0685846,9.324 L29.0572,9.33706667 L28.4455077,9.33706667 L28.0919692,10.3643556 L26.8596615,9.14977778 L25.5759692,10.5510222 L24.8452,10.0837333 L24.0393538,10.4576889 L23.2147385,9.42977778 C23.2147385,9.42977778 21.5682769,9.61706667 21.4621231,9.89613333 C21.3535077,10.1761333 20.1553538,9.52373333 20.1553538,9.52373333 L19.4298154,10.5510222 L18.9922769,9.80373333 L17.4901231,9.27204444 L11.2159692,13.9903556 L19.7612,13.9903556 L22.9864308,11.5098667 L25.0110462,13.9903556 L33.5233538,13.9903556 L30.0008923,9.83391111 L33.6322769,9.43568889 Z" id="Fill-13" fill="#FEFEFE"></path>
                            <polygon id="Fill-15" fill="#FEFEFE" points="34.2624 4.08647556 36.3953231 3.48136444 35.9254769 2.95060889"></polygon>
                            <polygon id="Fill-17" fill="#FEFEFE" points="36.7458769 2.19109333 37.5012615 1.82118222 38.0732615 1.11402667 36.9578769 1.58504889"></polygon>
                            <g id="Group-21" transform="translate(39.384615, 0.000000)">
                                <mask id="mask-4" fill="white">
                                    <use xlink:href="#path-3"></use>
                                </mask>
                                <g id="Clip-20"></g>
                                <path d="M1.81181538,0.00556888889 C1.81181538,0.00556888889 1.08381538,0.537257778 1.01827692,0.651124444 C0.953353846,0.76468 0.153046154,1.44663556 0.153046154,1.44663556 L2.8432,0.0839688889 L1.81181538,0.00556888889 Z" id="Fill-19" fill="#FEFEFE" mask="url(#mask-4)"></path>
                            </g>
                            <polygon id="Fill-22" fill="#FEFEFE" points="2.07310769 7.83122667 33.0614154 7.33904889 33.7324923 8.32589333"></polygon>
                            <g id="Group-26" transform="translate(0.000000, 6.533333)">
                                <mask id="mask-6" fill="white">
                                    <use xlink:href="#path-5"></use>
                                </mask>
                                <g id="Clip-25"></g>
                                <polygon id="Fill-24" fill="#FEFEFE" mask="url(#mask-6)" points="17.3854462 0.610648889 -9.23076923e-05 0.248204444 13.0417538 0.0848711111"></polygon>
                            </g>
                            <path d="M61.6579692,4.92488889 C61.4650462,5.71573333 61.2964308,6.16466667 61.1536615,6.27106667 C61.0355077,6.37528889 60.5112,6.42693333 59.6401231,6.42693333 L54.7927385,6.42693333 L55.3158154,4.26533333 L61.3041231,4.26533333 C61.6250462,4.31728889 61.7527385,4.52915556 61.6579692,4.92488889 M67.3825846,2.02315556 C67.0699692,1.57422222 66.4235077,1.25844444 65.4385846,1.10071111 C64.7727385,0.993377778 63.7918154,0.941111111 62.5570462,0.941111111 L50.4287385,0.941111111 L49.3118154,5.572 C50.8632,5.92791111 52.8238154,6.41417778 54.2761231,6.89982222 L54.3056615,6.90977778 L54.3336615,6.92191111 C54.6112,7.04355556 54.9284308,7.30955556 55.0198154,7.69346667 L55.0456615,7.73982222 L55.0456615,7.91622222 L55.0456615,7.92462222 L55.0456615,7.938 L55.0447385,8.1032 L55.0198154,8.148 C54.9275077,8.53377778 54.6099692,8.79977778 54.3315077,8.91986667 L54.3044308,8.932 L54.2761231,8.94133333 C52.4142769,9.56355556 49.7195077,10.1867111 48.1142769,10.5364 L47.2788923,14 L52.9656615,14 L53.9927385,9.75302222 L58.8373538,9.75302222 C59.9512,9.75302222 60.4228923,10.0432889 60.2745846,10.6499556 L59.4675077,14 L65.1247385,14 L66.2004308,9.54302222 C66.3678154,8.85577778 66.0887385,8.3804 65.4007385,8.11657778 C66.2358154,7.77311111 66.7493538,7.27377778 66.9001231,6.63911111 L67.5262769,4.05346667 C67.7413538,3.15777778 67.6979692,2.47115556 67.3825846,2.02315556" id="Fill-27" fill="#FEFEFE"></path>
                            <path d="M116.500985,7.21292444 L117.049908,7.43848 L113.439754,9.36425778 L113.696985,10.3697689 C111.3896,10.0045244 110.764677,10.2568356 110.764677,10.2568356 L110.330215,12.6415022 L109.929292,12.6119467 L109.519138,12.6443022 L110.208062,10.2596356 C110.208062,10.2596356 109.698523,10.0123022 107.218215,10.3946578 L107.949292,9.38603556 L105.240985,7.48514667 L105.895754,7.25368 C105.895754,7.25368 106.072369,7.17963556 106.043754,6.98208 C106.012369,6.78452444 105.910831,5.41345778 105.910831,5.41345778 L107.179446,5.75972444 C107.179446,5.75972444 107.379446,5.82163556 107.522523,5.65768 C107.664677,5.49559111 108.030215,4.97292444 108.030215,4.97292444 L109.345292,6.24630222 C109.345292,6.24630222 109.6456,6.41803556 109.632062,6.07550222 C109.621292,5.73483556 109.639138,3.34861333 109.639138,3.34861333 L110.628985,4.01221333 C110.628985,4.01221333 110.828062,4.08376889 110.922831,3.92696889 C111.0136,3.77452444 112.383138,2.00679111 112.448062,1.92434667 L112.4496,1.91936889 L112.4496,1.92061333 L112.451138,1.91936889 L112.4496,1.92434667 C112.475446,2.00679111 113.012062,3.76674667 113.036369,3.92043556 C113.057292,4.07692444 113.289292,4.00163556 113.289292,4.00163556 L114.591754,3.33119111 C114.591754,3.33119111 113.487446,5.72145778 113.313908,6.06212444 C113.142215,6.40403556 113.5216,6.22919111 113.5216,6.22919111 L115.439446,4.94368 C115.439446,4.94368 115.560062,5.46292444 115.624677,5.62688 C115.691138,5.78990222 115.921908,5.72363556 115.921908,5.72363556 L117.356369,5.36959111 C117.356369,5.36959111 116.606831,6.74314667 116.484369,6.94070222 C116.362215,7.14012444 116.500985,7.21292444 116.500985,7.21292444 M121.235138,1.94332444 C120.892062,1.49594667 120.184369,1.17892444 119.164985,1.04701333 C118.552369,0.968302222 117.653292,0.941235556 116.478831,0.941235556 L108.926523,0.941235556 C107.903138,0.941235556 107.054523,0.968302222 106.372677,1.04701333 C105.196985,1.17892444 104.314215,1.46856889 103.725292,1.91656889 C103.133908,2.36519111 102.723754,3.07825778 102.487754,4.05359111 L100.839446,10.8859022 C100.602831,11.8640356 100.671446,12.5761689 101.074523,13.0235467 C101.449908,13.4718578 102.183446,13.7904356 103.266215,13.9220356 C103.764062,13.9739911 104.601908,13.9998133 105.777908,13.9998133 L113.329292,13.9998133 C114.504062,13.9998133 115.413908,13.9739911 116.064985,13.8940356 C117.149908,13.7624356 118.008369,13.4457244 118.597908,12.99928 C119.156369,12.54848 119.571446,11.8369689 119.801292,10.8859022 L121.448677,4.05359111 C121.677908,3.10408 121.608985,2.39163556 121.235138,1.94332444" id="Fill-29" fill="#FEFEFE"></path>
                            <path d="M54.3296462,8.02397778 L54.3286462,8.02597778 C54.3286462,8.02597778 54.3281462,8.02797778 54.3276462,8.02847778 L54.3266462,8.02947778 L54.3316462,8.01997778 L54.3306462,8.02147778 L54.3296462,8.02397778 Z" id="Fill-31" fill="#FEFEFE"></path>
                            <path d="M54.3306154,8.01937111 L54.3321154,8.01587111 L54.3316154,8.01737111 C54.3311154,8.01787111 54.3306154,8.01887111 54.3306154,8.01937111" id="Fill-33" fill="#FEFEFE"></path>
                            <path d="M54.3321615,8.02463111 C54.3321615,8.02463111 54.3326615,8.02313111 54.3331615,8.02263111 L54.3341615,8.02013111 L54.3356615,8.01763111 L54.3366615,8.01513111 L54.3376615,8.01313111 C54.3376615,8.01313111 54.3386615,8.01113111 54.3391615,8.01063111 L54.3401615,8.00813111 L54.3411615,8.00613111 L54.3416615,8.00363111 L54.3421615,8.00163111 L54.3421615,7.99963111 L54.3316615,8.02563111 L54.3321615,8.02463111 Z" id="Fill-35" fill="#FEFEFE"></path>
                            <path d="M54.3387769,8.00314667 L54.3387769,8.00064667 C54.3387769,8.00064667 54.3387769,7.99914667 54.3392769,7.99864667 L54.3397769,7.99614667 L54.3402769,7.99364667 L54.3402769,7.99164667 L54.3407769,7.98914667 L54.3382769,8.00514667 L54.3387769,8.00314667 Z" id="Fill-37" fill="#FEFEFE"></path>
                            <polygon id="Fill-39" fill="#FEFEFE" points="54.3402154 7.98782667 54.3402154 7.98982667 54.3407154 7.98382667 54.3407154 7.98532667"></polygon>
                            <polygon id="Fill-41" fill="#FEFEFE" points="54.3409846 7.98340889 54.3409846 7.98590889 54.3414846 7.97940889 54.3414846 7.98140889"></polygon>
                            <polygon id="Fill-43" fill="#FEFEFE" points="54.3417231 7.97917778 54.3417231 7.98117778 54.3422231 7.97517778 54.3417231 7.97667778"></polygon>
                            <polygon id="Fill-45" fill="#FEFEFE" points="54.3429231 7.97024222 54.3429231 7.96774222 54.3429231 7.96974222"></polygon>
                            <polygon id="Fill-47" fill="#FEFEFE" points="54.3426846 7.97494889 54.3426846 7.97294889 54.3431846 7.97044889 54.3421846 7.97744889"></polygon>
                            <polygon id="Fill-49" fill="#FEFEFE" points="54.3435385 7.96760444 54.3435385 7.96960444 54.3440385 7.96360444 54.3435385 7.96510444"></polygon>
                            <polygon id="Fill-51" fill="#FEFEFE" points="54.3449308 7.95938 54.3449308 7.95788 54.3444308 7.96138"></polygon>
                            <polygon id="Fill-53" fill="#FEFEFE" points="54.3453615 7.95743111 54.3448615 7.95943111 54.3458615 7.95343111 54.3453615 7.95493111"></polygon>
                            <polygon id="Fill-55" fill="#FEFEFE" points="54.3456308 7.95456889 54.3461308 7.95056889 54.3461308 7.95206889"></polygon>
                            <polygon id="Fill-57" fill="#FEFEFE" points="54.3474846 7.94814222 54.3474846 7.94614222 54.3479846 7.94364222 54.3484846 7.94114222 54.3489846 7.93864222 54.3489846 7.93664222 54.3494846 7.93414222 54.3469846 7.95064222"></polygon>
                            <polygon id="Fill-59" fill="#FEFEFE" points="54.3459385 7.95148667 54.3464385 7.94798667 54.3464385 7.94898667"></polygon>
                            <polygon id="Fill-61" fill="#FEFEFE" points="54.3465231 7.94764889 54.3465231 7.94664889 54.3465231 7.94864889"></polygon>
                            <polygon id="Fill-63" fill="#FEFEFE" points="54.3497308 7.92297333 54.3492308 7.93647333 54.3492308 7.93397333 54.3497308 7.93197333 54.3502308 7.92947333 54.3502308 7.92897333 54.3507308 7.92547333 54.3502308 7.92347333"></polygon>
                            <path d="M46.6497231,5.71436444 L46.0411077,5.60547556 C45.4294154,5.49845333 43.8358769,5.41725333 43.8358769,5.41725333 L36.9500308,5.41725333 L36.9500308,10.41992 L43.8358769,10.41992 C43.8358769,10.41992 45.4294154,10.34152 46.0411077,10.2338756 L46.6497231,10.1256089 C46.6497231,10.1256089 49.2475692,9.60045333 51.7038769,8.95552 L51.7038769,6.88352 C49.2475692,6.23889778 46.6497231,5.71436444 46.6497231,5.71436444" id="Fill-65" fill="#FEFEFE"></path>
                            <path d="M34.5164615,6.19758222 L34.5164615,7.17291556 L34.5164615,8.66656 L34.5164615,9.64251556 C35.1506154,10.0746489 35.8641538,10.2666044 36.2973846,10.3527822 L36.2973846,5.48576 C35.8641538,5.57256 35.1506154,5.76513778 34.5164615,6.19758222" id="Fill-67" fill="#FEFEFE"></path>
                            <path d="M54.35,7.91444889 L54.3487692,7.91569333 L54.3487692,7.91320444 L54.35,7.91444889 C54.35,7.69418222 54.0573846,7.56662667 54.0573846,7.56662667 C54.0555385,7.56600444 54.0530769,7.56507111 54.0506154,7.56413778 L54.0481538,7.56413778 C54.0472308,7.56351556 54.046,7.56289333 54.046,7.56289333 C54.0435385,7.56227111 54.0423077,7.56133778 54.0410769,7.56133778 C54.0398462,7.56133778 54.0392308,7.56071556 54.0370769,7.56071556 C54.0364615,7.56009333 54.0358462,7.56009333 54.0358462,7.56009333 L54.0346154,7.55884889 C54.0327692,7.55884889 54.0321538,7.55822667 54.0306154,7.55760444 C54.0284615,7.55760444 54.0256923,7.55636 54.0232308,7.55573778 C54.0232308,7.55573778 54.0226154,7.55573778 54.0226154,7.55511556 L54.0204615,7.55511556 C54.0192308,7.55418222 54.0173846,7.55387111 54.0161538,7.55387111 C54.0096923,7.55107111 54.0026154,7.54920444 53.9970769,7.54733778 L53.9946154,7.54733778 C53.9924615,7.54609333 53.9912308,7.54609333 53.9887692,7.54484889 C53.9887692,7.54484889 53.9881538,7.54422667 53.9875385,7.54329333 L53.986,7.54329333 L53.9856923,7.54329333 C53.9844615,7.54329333 53.9838462,7.54329333 53.9829231,7.54298222 C53.9823077,7.54204889 53.9816923,7.54204889 53.9804615,7.54204889 C53.9792308,7.54204889 53.9773846,7.54080444 53.9758462,7.54080444 C53.9758462,7.54080444 53.9727692,7.53956 53.9721538,7.53956 C53.9721538,7.53956 53.9715385,7.53893778 53.9709231,7.53893778 C53.9644615,7.53707111 53.9567692,7.53427111 53.9506154,7.53240444 C53.9478462,7.53209333 53.9453846,7.53053778 53.9423077,7.52991556 C53.9423077,7.52991556 53.9407692,7.52929333 53.9401538,7.52929333 C53.9401538,7.52929333 53.9370769,7.52804889 53.9358462,7.52804889 C53.9352308,7.52804889 53.9352308,7.52711556 53.9352308,7.52711556 C53.9210769,7.52276 53.9066154,7.51840444 53.8933846,7.51373778 L53.8924615,7.51373778 L53.8912308,7.51311556 C53.8693846,7.50596 53.8466154,7.49911556 53.8247692,7.49196 L53.8244615,7.49196 L53.8238462,7.49196 C53.774,7.47516 53.7235385,7.45991556 53.6727692,7.44280444 L53.6718462,7.44280444 L53.6712308,7.44280444 C53.6706154,7.44218222 53.6706154,7.44280444 53.6706154,7.44280444 C53.6604615,7.43907111 53.6512308,7.43564889 53.6407692,7.43253778 L53.6401538,7.43253778 C53.6401538,7.43253778 53.6395385,7.43253778 53.6389231,7.43191556 C53.6343077,7.43067111 53.6293846,7.42849333 53.6241538,7.42756 C53.6235385,7.42756 53.6229231,7.42693778 53.6223077,7.42693778 C53.6223077,7.42693778 53.6216923,7.42631556 53.6210769,7.42631556 C53.6192308,7.42569333 53.6173846,7.42476 53.6146154,7.42413778 L53.614,7.42413778 L53.6133846,7.42413778 C53.6121538,7.42289333 53.6109231,7.42227111 53.6075385,7.42227111 C53.5967692,7.41853778 53.5866154,7.41542667 53.5758462,7.41200444 L53.5752308,7.41200444 C53.5752308,7.41200444 53.574,7.41200444 53.574,7.41138222 C53.5706154,7.41013778 53.5675385,7.40951556 53.5635385,7.40827111 L53.5629231,7.40827111 L53.5623077,7.40827111 L53.5613846,7.40827111 C53.5613846,7.40827111 53.5598462,7.40671556 53.5592308,7.40671556 C53.5453846,7.40236 53.5318462,7.39769333 53.518,7.39333778 L53.5167692,7.39333778 C53.5161538,7.39271556 53.514,7.39209333 53.5115385,7.39209333 C53.5115385,7.39147111 53.5109231,7.39147111 53.5103077,7.39147111 C53.1463077,7.27884889 52.754,7.16778222 52.3564615,7.05827111 L52.3564615,8.78089333 C52.7272308,8.67916 53.0930769,8.57556 53.4355385,8.47071556 C53.4376923,8.46978222 53.4395385,8.46916 53.4413846,8.46853778 C53.4444615,8.46729333 53.4490769,8.46604889 53.4527692,8.46542667 C53.6223077,8.41316 53.786,8.36120444 53.9447692,8.30893778 C53.9478462,8.30738222 53.9512308,8.30613778 53.9543077,8.30551556 C53.9626154,8.30302667 53.9709231,8.30116 53.9786154,8.29773778 C53.9973846,8.29182667 54.018,8.28560444 54.0370769,8.27907111 C54.0401538,8.27782667 54.0441538,8.27658222 54.0481538,8.27533778 C54.0518462,8.27471556 54.0552308,8.27347111 54.0573846,8.27284889 C54.0573846,8.27284889 54.35,8.14653778 54.35,7.92347111 L54.3487692,7.92564889 L54.3487692,7.92471556 L54.3487692,7.92284889 L54.3487692,7.92160444 L54.35,7.92347111 L54.3481538,7.91973778 L54.35,7.91444889 Z" id="Fill-69" fill="#FEFEFE"></path>
                        </g>
                    </g>
                </g>
            </g>
        </g>
    </g>
</svg>